<svg width="15" height="16" viewBox="0 0 15 16" fill="none" xmlns="http://www.w3.org/2000/svg">
<path fill-rule="evenodd" clip-rule="evenodd" d="M8.36449 0.330793C7.64172 -0.110264 6.73168 -0.110264 6.0089 0.330793C5.52924 0.624011 4.96662 0.968151 4.65041 1.16116C4.54774 1.22441 4.4344 1.26876 4.31612 1.29258C3.80525 1.39442 2.70466 1.61454 1.81598 1.79195C0.759736 2.00386 0 2.93032 0 4.0071V7.03701C0 11.2644 2.87714 14.9489 6.97808 15.974C7.11442 16.0085 7.25815 16.0085 7.39449 15.974C11.4954 14.9489 14.3734 11.2644 14.3734 7.03701C14.3734 5.88631 14.3734 4.80626 14.3734 4.0071C14.3734 2.93032 13.6137 2.00386 12.5574 1.79195C11.6687 1.61454 10.5681 1.39442 10.0573 1.29258C9.93899 1.26876 9.82565 1.22441 9.72298 1.16116C9.40677 0.968151 8.84415 0.624011 8.36449 0.330793ZM7.1867 14.7551C10.6913 13.836 13.1414 10.6673 13.1414 7.03701C13.1414 5.88631 13.1414 4.80626 13.1414 4.0071C13.1414 3.51758 12.7956 3.09623 12.3159 3.00014C11.4273 2.82273 10.3267 2.60261 9.81579 2.49994C9.55543 2.4482 9.30739 2.35128 9.0807 2.21248C8.76448 2.01946 8.20105 1.67532 7.72221 1.3821C7.39367 1.1817 6.97972 1.1817 6.65118 1.3821C6.17234 1.67532 5.60891 2.01946 5.29269 2.21248C5.066 2.35128 4.81796 2.4482 4.5576 2.49994C4.04673 2.60261 2.94613 2.82273 2.05745 3.00014C1.57779 3.09623 1.232 3.51758 1.232 4.0071V7.03701C1.232 10.6673 3.68205 13.836 7.1867 14.7551Z" fill="#001A88"/>
<path fill-rule="evenodd" clip-rule="evenodd" d="M6.36538 8.77873L9.21542 5.92951C9.45525 5.68886 9.8462 5.68886 10.086 5.92951C10.3267 6.16934 10.3267 6.5603 10.086 6.80013L6.80069 10.0855C6.56004 10.3261 6.17072 10.3261 5.93007 10.0855L4.69807 8.85347C4.45742 8.61364 4.45742 8.22268 4.69807 7.98285C4.9379 7.7422 5.32885 7.7422 5.56868 7.98285L6.36538 8.77873Z" fill="#001A88"/>
</svg>
