<svg width="20" height="22" viewBox="0 0 20 22" fill="none" xmlns="http://www.w3.org/2000/svg">
<g clip-path="url(#clip0_4299_25783)">
<path d="M8 8C8.79113 8 9.56449 7.76541 10.2223 7.32588C10.8801 6.88635 11.3928 6.26164 11.6955 5.53074C11.9983 4.79983 12.0775 3.99556 11.9231 3.21964C11.7688 2.44372 11.3878 1.73098 10.8284 1.17157C10.269 0.612165 9.55629 0.231202 8.78036 0.0768607C8.00444 -0.0774802 7.20017 0.00173314 6.46927 0.304484C5.73836 0.607234 5.11365 1.11992 4.67412 1.77772C4.2346 2.43552 4 3.20888 4 4C4.00106 5.06054 4.42283 6.07734 5.17274 6.82726C5.92266 7.57718 6.93946 7.99894 8 8ZM8 1.33334C8.52742 1.33334 9.04299 1.48973 9.48152 1.78275C9.92005 2.07577 10.2618 2.49224 10.4637 2.97951C10.6655 3.46678 10.7183 4.00296 10.6154 4.52024C10.5125 5.03753 10.2586 5.51268 9.88562 5.88562C9.51268 6.25856 9.03752 6.51254 8.52024 6.61543C8.00296 6.71832 7.46678 6.66551 6.97951 6.46368C6.49224 6.26185 6.07577 5.92005 5.78275 5.48152C5.48973 5.04299 5.33333 4.52742 5.33333 4C5.33333 3.29276 5.61428 2.61448 6.11438 2.11438C6.61448 1.61429 7.29276 1.33334 8 1.33334Z" fill="#001A88"/>
<path d="M8 9.33398C6.40924 9.33575 4.88414 9.96846 3.75931 11.0933C2.63447 12.2181 2.00176 13.7432 2 15.334C2 15.5108 2.07024 15.6804 2.19526 15.8054C2.32029 15.9304 2.48986 16.0007 2.66667 16.0007C2.84348 16.0007 3.01305 15.9304 3.13807 15.8054C3.2631 15.6804 3.33333 15.5108 3.33333 15.334C3.33333 14.0963 3.825 12.9093 4.70017 12.0342C5.57534 11.159 6.76232 10.6673 8 10.6673C9.23768 10.6673 10.4247 11.159 11.2998 12.0342C12.175 12.9093 12.6667 14.0963 12.6667 15.334C12.6667 15.5108 12.7369 15.6804 12.8619 15.8054C12.987 15.9304 13.1565 16.0007 13.3333 16.0007C13.5101 16.0007 13.6797 15.9304 13.8047 15.8054C13.9298 15.6804 14 15.5108 14 15.334C13.9982 13.7432 13.3655 12.2181 12.2407 11.0933C11.1159 9.96846 9.59076 9.33575 8 9.33398Z" fill="#001A88"/>
</g>
<circle cx="13.5" cy="14.5" r="4.5" fill="white"/>
<path d="M14.9992 18.1122C14.8793 18.1122 14.7588 18.1014 14.6389 18.0792C14.1114 17.9812 13.6505 17.677 13.3405 17.2219C13.0324 16.7679 12.9153 16.2239 13.0111 15.6909C13.1074 15.1567 13.4067 14.6895 13.8538 14.3749C14.3026 14.0596 14.8408 13.9409 15.3689 14.0377C15.8968 14.1359 16.3574 14.4402 16.6666 14.8953L16.669 14.8986C16.9741 15.3603 17.0902 15.9031 16.9965 16.4261C16.9001 16.9599 16.6012 17.4271 16.1538 17.7417C15.8068 17.9854 15.4066 18.1122 14.9992 18.1122ZM15.0093 14.5795C14.7188 14.5795 14.4331 14.6703 14.1847 14.8454C13.8621 15.0719 13.6464 15.4083 13.5775 15.7927C13.5084 16.1767 13.5935 16.5695 13.8167 16.8987C14.0392 17.2258 14.3687 17.4441 14.7442 17.514C15.1179 17.5829 15.5017 17.4973 15.8232 17.2713C16.1458 17.0447 16.3614 16.7084 16.4304 16.3243C16.4979 15.9479 16.4125 15.5546 16.19 15.2168C15.9681 14.8906 15.6392 14.6725 15.2639 14.6031C15.1789 14.5875 15.0941 14.5795 15.0093 14.5795Z" fill="#001A88"/>
<path d="M15.0718 21.1597C15.0353 21.1597 14.9983 21.1564 14.9615 21.1496L13.2763 20.8374C12.9544 20.7776 12.7479 20.4764 12.8063 20.1515L12.9408 19.4029C12.9222 19.3905 12.9043 19.3779 12.8878 19.3652L12.8661 19.351L12.2443 19.7883C12.1318 19.8744 11.9749 19.9131 11.8225 19.8876C11.6652 19.8619 11.5238 19.7714 11.4341 19.6391L10.4629 18.2109C10.3782 18.0956 10.3419 17.942 10.3675 17.7873C10.393 17.6312 10.4813 17.49 10.6101 17.3997L11.2188 16.9605C11.2138 16.9369 11.2098 16.9144 11.2061 16.8935C11.204 16.8829 11.2023 16.8719 11.2007 16.8607L10.4658 16.7245C10.3151 16.6963 10.1797 16.606 10.0946 16.4763C10.0073 16.3429 9.97933 16.1836 10.0153 16.0275L10.3206 14.3285C10.3491 14.1697 10.435 14.0337 10.5632 13.9449C10.6906 13.8566 10.8465 13.8241 11.0023 13.8528L11.7317 13.9883C11.7431 13.9702 11.7549 13.9529 11.7667 13.9368L11.7848 13.9075L11.351 13.2696C11.2665 13.1549 11.2303 13.0016 11.2553 12.8469C11.2808 12.6908 11.3691 12.5494 11.4976 12.4587L12.9038 11.4703C13.0165 11.3846 13.1737 11.3467 13.3256 11.3712C13.4828 11.3967 13.6244 11.4873 13.7141 11.6195L14.1456 12.254C14.1536 12.2521 14.1616 12.2498 14.1695 12.2477C14.1789 12.2449 14.1887 12.2425 14.1987 12.2408C14.2088 12.2389 14.2191 12.237 14.2295 12.2356L14.3643 11.4856C14.3934 11.3262 14.4793 11.1906 14.6076 11.1018C14.7346 11.0138 14.8902 10.9816 15.0463 11.0101L16.7233 11.3209C17.0453 11.3806 17.2517 11.682 17.1933 12.0068L17.0585 12.7555C17.0775 12.7678 17.0953 12.7805 17.112 12.7931L17.1335 12.8073L17.7554 12.37C17.8681 12.2842 18.0253 12.246 18.1772 12.2707C18.3345 12.2963 18.476 12.3868 18.5657 12.5192L19.5292 13.9469C19.6132 14.0607 19.6494 14.214 19.6244 14.3686C19.5989 14.5247 19.5106 14.6662 19.3821 14.7568L18.7542 15.1978C18.7567 15.2094 18.7594 15.2206 18.7622 15.2311C18.7649 15.2404 18.7671 15.2495 18.7685 15.2593C18.7706 15.2706 18.7726 15.2818 18.7743 15.2933L19.5089 15.4295C19.8033 15.4842 20.0095 15.7567 19.9997 16.0768C19.9991 16.0908 19.9977 16.1049 19.995 16.1188L19.6872 17.832C19.6584 17.9909 19.5725 18.1269 19.4439 18.2158C19.3163 18.3037 19.161 18.3351 19.0049 18.3072L18.2761 18.1717C18.2645 18.1898 18.2527 18.2071 18.241 18.2232L18.2228 18.2523L18.6568 18.8905C18.7416 19.0058 18.7778 19.1593 18.7522 19.314C18.7265 19.4701 18.6384 19.6113 18.5095 19.7016L17.1039 20.6897C16.9913 20.7756 16.8346 20.8141 16.6822 20.7891C16.5252 20.7633 16.3837 20.673 16.2937 20.5411L15.8643 19.9091C15.8455 19.9129 15.8271 19.9164 15.8093 19.9197C15.799 19.9214 15.7889 19.9235 15.7782 19.9249L15.6435 20.6747C15.615 20.8335 15.5291 20.9694 15.4007 21.0582C15.3033 21.1249 15.1898 21.1597 15.0718 21.1597ZM12.8684 18.7105C12.9389 18.7105 13.0091 18.7365 13.0639 18.7873C13.0933 18.8144 13.127 18.8347 13.1605 18.8569L13.2264 18.9006C13.2551 18.9219 13.2977 18.9508 13.3811 18.9894C13.4998 19.0443 13.5668 19.1725 13.5435 19.3014L13.3725 20.2533L15.0664 20.5842L15.2487 19.6204C15.2688 19.5083 15.3527 19.4193 15.4635 19.3919C15.5226 19.3776 15.5807 19.3697 15.6369 19.3628C15.6603 19.3598 15.6833 19.3571 15.7055 19.3532C15.7403 19.3467 15.8248 19.331 15.8792 19.3094C16.0051 19.2591 16.1486 19.303 16.2242 19.4144L16.7696 20.2168L18.1789 19.2303L17.6352 18.4109C17.5611 18.3017 17.5705 18.156 17.6588 18.0576C17.6856 18.0277 17.7057 17.9931 17.7276 17.9587L17.7707 17.8921C17.7916 17.863 17.8204 17.8189 17.8593 17.733C17.9133 17.6123 18.0412 17.545 18.174 17.5679L19.1101 17.7416L19.4244 16.0431C19.4217 16.0137 19.4094 15.9962 19.4039 15.9951L18.4678 15.8214C18.3561 15.8006 18.2669 15.7159 18.2407 15.605C18.2264 15.5454 18.2192 15.4873 18.2123 15.4316C18.2099 15.4111 18.2077 15.3907 18.2047 15.3715C18.197 15.3419 18.1901 15.3109 18.1838 15.2788C18.1769 15.2461 18.1712 15.2119 18.1594 15.1811C18.1108 15.0577 18.1534 14.9175 18.2615 14.841L19.051 14.2862L18.0892 12.8414L17.2966 13.3955C17.1853 13.4734 17.0352 13.4633 16.9357 13.3711C16.9065 13.344 16.8728 13.3236 16.8391 13.3014L16.7733 13.2578C16.7445 13.2364 16.7017 13.2071 16.6186 13.1689C16.4997 13.1146 16.4326 12.9857 16.4559 12.857L16.6273 11.905L14.9416 11.5756L14.7593 12.5393C14.7393 12.6509 14.6556 12.7402 14.5457 12.7675C14.4862 12.7821 14.4285 12.79 14.3723 12.7969C14.3528 12.7994 14.3336 12.8018 14.3152 12.8046C14.2856 12.8125 14.2545 12.8196 14.2232 12.8262C14.1918 12.8328 14.1591 12.8386 14.1303 12.8501C14.0049 12.9022 13.8606 12.8578 13.7841 12.7456L13.2387 11.9432L11.8294 12.9294L12.3731 13.7488C12.4475 13.8583 12.4377 14.0045 12.349 14.1027C12.3224 14.1323 12.3027 14.1663 12.281 14.2004L12.2377 14.2678C12.2167 14.2967 12.188 14.3408 12.1491 14.4267C12.095 14.5475 11.968 14.6147 11.8343 14.5918L10.8981 14.4182L10.5793 16.1432L11.5077 16.3323C11.6193 16.353 11.7081 16.4376 11.7348 16.5479C11.7491 16.608 11.7567 16.6664 11.7636 16.7227C11.7664 16.7468 11.7693 16.7704 11.773 16.7931C11.779 16.8274 11.7943 16.915 11.8165 16.9723C11.8645 17.0944 11.8234 17.2334 11.717 17.31L10.9439 17.8679L11.9101 19.3154L12.7034 18.7623C12.7531 18.7278 12.811 18.7105 12.8684 18.7105Z" fill="#001A88"/>
<defs>
<clipPath id="clip0_4299_25783">
<rect width="16" height="16" fill="white"/>
</clipPath>
</defs>
</svg>
