<svg width="181" height="291" viewBox="0 0 181 291" fill="none" xmlns="http://www.w3.org/2000/svg">
<g clip-path="url(#clip0_5296_49299)">
<path d="M95.9078 11.1906V36.8687H169.6C176.469 36.8687 181.229 56.4786 180.986 61.7764C180.769 66.6822 176.848 69.4122 175.266 73.6288C169.817 88.1572 163.178 110.43 159.581 125.539C158.783 128.877 163.989 126.985 166.599 127.701C170.547 128.796 174.049 133.648 174.306 137.662C174.482 140.311 166.95 156.772 164.868 159.191C158.594 166.529 150.251 162.745 148.75 164.043C145.208 167.097 149.196 184.099 135.458 186.572C109.93 191.167 73.205 183.734 46.4458 186.977C34.7767 189.342 34.7496 166.246 32.2076 164.056C30.6932 162.759 22.3639 166.543 16.0898 159.218C14.4132 157.245 7.24673 142.203 6.8546 139.946C5.46188 131.823 13.6154 125.471 21.512 127.445C15.6842 110.105 12.0875 90.6845 5.70527 73.6559C4.13676 69.4122 0.229024 66.6822 -0.000843138 61.7764C-0.244232 56.4921 4.51537 36.8687 11.3843 36.8687H85.077V11.1906H65.4707C63.0233 11.1906 61.6982 2.24382 67.0933 0.649079C70.068 -0.229381 110.89 -0.229381 113.878 0.649079C119.287 2.24382 117.934 11.1906 115.501 11.1906H95.8943H95.9078ZM62.1038 72.0071H17.4826L34.3846 127.418H62.1038V72.0071ZM108.077 72.0071H72.9211V127.418H108.077V72.0071ZM163.516 72.0071H118.895V127.418H146.614L163.516 72.0071Z" fill="black"/>
<path d="M139.178 194.99V283.512C139.178 286.539 130.754 289.377 127.752 289.661C110.39 291.256 68.879 291.634 51.9364 289.634C49.2186 289.31 41.8223 285.796 41.8223 283.525V195.004H139.178V194.99Z" fill="black"/>
</g>
<defs>
<clipPath id="clip0_5296_49299">
<rect width="181" height="291" fill="white"/>
</clipPath>
</defs>
</svg>
