<svg width="16" height="16" viewBox="0 0 16 16" fill="none" xmlns="http://www.w3.org/2000/svg">
<g clip-path="url(#clip0_3755_25038)">
<path d="M8.0007 0C5.87967 0.00229405 3.84617 0.845885 2.34638 2.34568C0.846583 3.84547 0.00299139 5.87897 0.000697332 8C-0.0833027 14.382 7.44003 18.286 12.6007 14.5447C12.6749 14.4953 12.7384 14.4316 12.7875 14.3574C12.8367 14.2831 12.8704 14.1997 12.8868 14.1121C12.9031 14.0246 12.9018 13.9346 12.8828 13.8476C12.8639 13.7606 12.8277 13.6782 12.7763 13.6054C12.725 13.5326 12.6596 13.4709 12.584 13.4238C12.5084 13.3767 12.4242 13.3452 12.3362 13.3312C12.2482 13.3172 12.1584 13.321 12.0719 13.3423C11.9854 13.3636 11.9041 13.4021 11.8327 13.4553C7.53403 16.5707 1.26736 13.3187 1.33403 8C1.70003 -0.844 14.3027 -0.842 14.6674 8V9.33333C14.6674 9.68696 14.5269 10.0261 14.2768 10.2761C14.0268 10.5262 13.6877 10.6667 13.334 10.6667C12.9804 10.6667 12.6413 10.5262 12.3912 10.2761C12.1412 10.0261 12.0007 9.68696 12.0007 9.33333V8C11.8327 2.714 4.16803 2.71467 4.0007 8C4.00846 8.81066 4.26167 9.59995 4.72695 10.2638C5.19224 10.9277 5.84776 11.435 6.60713 11.7189C7.3665 12.0028 8.19407 12.05 8.98076 11.8542C9.76746 11.6583 10.4764 11.2287 11.014 10.622C11.3032 11.1324 11.7527 11.5332 12.2928 11.7623C12.8328 11.9914 13.4334 12.036 14.0014 11.8893C14.5694 11.7425 15.0731 11.4125 15.4346 10.9504C15.796 10.4883 15.995 9.91996 16.0007 9.33333V8C15.9984 5.87897 15.1548 3.84547 13.655 2.34568C12.1552 0.845885 10.1217 0.00229405 8.0007 0V0ZM8.0007 10.6667C7.29345 10.6667 6.61518 10.3857 6.11508 9.88562C5.61498 9.38552 5.33403 8.70724 5.33403 8C5.33403 7.29276 5.61498 6.61448 6.11508 6.11438C6.61518 5.61428 7.29345 5.33333 8.0007 5.33333C8.70794 5.33333 9.38622 5.61428 9.88632 6.11438C10.3864 6.61448 10.6674 7.29276 10.6674 8C10.6674 8.70724 10.3864 9.38552 9.88632 9.88562C9.38622 10.3857 8.70794 10.6667 8.0007 10.6667Z" fill="#001A88"/>
</g>
<defs>
<clipPath id="clip0_3755_25038">
<rect width="16" height="16" fill="white"/>
</clipPath>
</defs>
</svg>
