<svg width="18" height="18" viewBox="0 0 18 18" fill="none" xmlns="http://www.w3.org/2000/svg">
<path d="M16.2683 13.0175C16.1278 13.0191 16.1432 13.0123 15.9564 13.0254V8.65472C15.9564 8.18696 15.5758 7.8064 15.1081 7.8064H12.9664C12.9652 7.8064 12.9641 7.80622 12.9629 7.80622H10.4967V1.22197L12.5194 3.17719C12.6337 3.28772 12.6993 3.44227 12.6993 3.60128V6.82701C12.6993 6.97263 12.8173 7.09068 12.9629 7.09068C13.1086 7.09068 13.2266 6.97263 13.2266 6.82701V3.60128C13.2266 3.30013 13.1024 3.00735 12.8859 2.79803L10.4162 0.410808C10.3607 0.358706 10.2543 0.311949 10.149 0.350445L5.71853 1.83967V0.813102C5.72187 0.364542 5.3194 -0.0258686 4.85122 0.00134244C4.40343 0.00134244 4.03911 0.365492 4.03911 0.813102V2.40417L2.87997 2.79381C2.42466 2.94688 2.11873 3.37241 2.11873 3.85279V13.0189C0.945389 13.049 0 14.0121 0 15.1926V16.5334C0 16.8974 0.296122 17.1935 0.660095 17.1935H17.3399C17.7039 17.1935 18 16.8973 18 16.5334V14.7492C18 13.7943 17.2232 13.0175 16.2683 13.0175ZM16.2683 13.5448C16.9324 13.5448 17.4727 14.0851 17.4727 14.7492V15.0258H14.9151V14.7492C14.9157 14.0285 15.5489 13.4824 16.2683 13.5448ZM15.4291 8.65472V13.1614C14.8168 13.4287 14.3877 14.0396 14.3877 14.7492V15.0258H10.4967V8.33374H15.1081C15.2851 8.33374 15.4291 8.47774 15.4291 8.65472ZM4.56645 0.813102C4.56645 0.656269 4.69421 0.528687 4.85122 0.528687C4.99223 0.50798 5.18211 0.618547 5.19118 0.813102V2.01692L4.56645 2.22691V0.813102ZM2.11877 13.5458V15.0258H0.535712C0.617732 14.2136 1.29199 13.5737 2.11877 13.5458ZM0.527345 16.5334V15.5532H2.11877V16.6661H0.66013C0.5869 16.6661 0.527345 16.6066 0.527345 16.5334ZM2.64611 3.85279C2.64611 3.59917 2.80762 3.37452 3.04802 3.2937L9.96935 0.967192V2.40386L4.21876 4.33685C4.08073 4.38323 4.00645 4.53275 4.05286 4.6708C4.08988 4.78098 4.1926 4.85052 4.30275 4.85052C4.33059 4.85052 4.35893 4.84609 4.38681 4.83671L9.96935 2.96024V4.30163L4.21876 6.23459C4.08073 6.281 4.00645 6.43052 4.05286 6.56854C4.08988 6.67872 4.1926 6.74826 4.30275 6.74826C4.33059 6.74826 4.35893 6.74383 4.38681 6.73445L9.96935 4.85794V6.19933L4.21876 8.13233C4.08073 8.1787 4.00645 8.32822 4.05286 8.46628C4.08988 8.57646 4.1926 8.646 4.30275 8.646C4.33059 8.646 4.35893 8.64157 4.38681 8.63218L9.96935 6.75572V8.06909C9.96935 8.06944 9.96931 8.06975 9.96931 8.07011V8.09714L4.21876 10.0301C4.08073 10.0765 4.00645 10.226 4.05286 10.364C4.08988 10.4742 4.1926 10.5437 4.30275 10.5437C4.33059 10.5437 4.35893 10.5393 4.38681 10.5299L9.96928 8.65342V9.99484L6.37852 11.2018C6.24049 11.2482 6.16621 11.3977 6.21261 11.5358C6.24963 11.646 6.35236 11.7155 6.46251 11.7155C6.49035 11.7155 6.51868 11.7111 6.54656 11.7017L9.96928 10.5512V16.6661H7.69143V13.9263C7.69143 13.7467 7.60937 13.5814 7.46632 13.4728C7.32327 13.3643 7.14201 13.3297 6.96904 13.378L4.51488 14.0631C4.23479 14.1413 4.03918 14.399 4.03918 14.6898V16.6661H2.64611V3.85279ZM4.56652 14.6898C4.56652 14.6347 4.60361 14.5859 4.65667 14.571L5.6016 14.3072V16.6661H4.56649L4.56652 14.6898ZM6.12894 16.6661V14.16L7.11082 13.8859C7.12408 13.8821 7.13645 13.8845 7.14746 13.8929C7.15846 13.9012 7.16405 13.9125 7.16405 13.9263V16.6661H6.12894ZM10.4967 16.6661V15.5532H14.3877V16.6661H10.4967ZM17.4727 16.5334C17.4727 16.6066 17.4131 16.6661 17.3399 16.6661H14.9151V15.5532H17.4727V16.5334Z" fill="#001A88"/>
<path d="M4.30277 12.4415C4.33062 12.4415 4.35895 12.4371 4.38683 12.4277L5.36579 12.0987C5.50382 12.0523 5.5781 11.9028 5.5317 11.7647C5.48529 11.6267 5.33577 11.5523 5.19775 11.5988L4.21878 11.9279C4.08076 11.9742 4.00647 12.1238 4.05288 12.2618C4.0899 12.372 4.19263 12.4415 4.30277 12.4415Z" fill="#001A88"/>
<path d="M11.6517 10.5089H14.2375C14.4827 10.5089 14.6822 10.3094 14.6822 10.0642V9.42956C14.6822 9.18434 14.4827 8.98486 14.2375 8.98486H11.6517C11.4065 8.98486 11.207 9.18434 11.207 9.42956V10.0642C11.207 10.3094 11.4065 10.5089 11.6517 10.5089ZM11.7344 9.51221H14.1548V9.98155H11.7344V9.51221Z" fill="#001A88"/>
<path d="M11.6517 12.5133H14.2375C14.4827 12.5133 14.6822 12.3138 14.6822 12.0686V11.4339C14.6822 11.1887 14.4827 10.9893 14.2375 10.9893H11.6517C11.4065 10.9893 11.207 11.1887 11.207 11.4339V12.0686C11.207 12.3138 11.4065 12.5133 11.6517 12.5133ZM11.7344 11.5166H14.1548V11.9859H11.7344V11.5166Z" fill="#001A88"/>
<path d="M11.6517 14.5387H12.507C12.7522 14.5387 12.9517 14.3392 12.9517 14.094V13.4593C12.9517 13.2141 12.7522 13.0146 12.507 13.0146H11.6517C11.4065 13.0146 11.207 13.2141 11.207 13.4593V14.094C11.207 14.3392 11.4065 14.5387 11.6517 14.5387ZM11.7344 13.542H12.4243V14.0113H11.7344V13.542Z" fill="#001A88"/>
</svg>
