<svg width="14" height="14" viewBox="0 0 14 14" fill="none" xmlns="http://www.w3.org/2000/svg">
<path d="M10.2558 13.9996H1.13954C0.837426 13.9992 0.547794 13.879 0.334168 13.6654C0.120543 13.4518 0.000367043 13.1621 0 12.86V1.13905C0.000367043 0.836938 0.120543 0.547305 0.334168 0.33368C0.547794 0.120055 0.837426 -0.000121238 1.13954 -0.000488281H10.2558C10.558 -0.000121238 10.8476 0.120055 11.0612 0.33368C11.2748 0.547305 11.395 0.836938 11.3954 1.13905V8.30186C11.3954 8.43139 11.3439 8.5556 11.2523 8.64719C11.1608 8.73878 11.0365 8.79023 10.907 8.79023C10.7775 8.79023 10.6533 8.73878 10.5617 8.64719C10.4701 8.5556 10.4186 8.43139 10.4186 8.30186V1.13905C10.4181 1.09603 10.4008 1.05492 10.3704 1.0245C10.34 0.99408 10.2989 0.976766 10.2558 0.976259H1.13954C1.09652 0.976766 1.05541 0.99408 1.02499 1.0245C0.994568 1.05492 0.977254 1.09603 0.976747 1.13905V12.86C0.977254 12.903 0.994568 12.9441 1.02499 12.9746C1.05541 13.005 1.09652 13.0223 1.13954 13.0228H10.2558C10.3782 12.9741 10.5147 12.9751 10.6364 13.0255C10.758 13.0759 10.8552 13.1718 10.9073 13.2927C10.9327 13.351 10.9462 13.4137 10.947 13.4772C10.9479 13.5407 10.9361 13.6037 10.9123 13.6626C10.8886 13.7215 10.8533 13.7751 10.8086 13.8202C10.7639 13.8654 10.7107 13.9011 10.652 13.9255C10.5259 13.9753 10.3914 14.0005 10.2558 13.9996Z" fill="#001A88"/>
<path d="M8.62866 3.58083H2.76771C2.63817 3.58083 2.51394 3.52937 2.42235 3.43778C2.33075 3.34618 2.2793 3.22195 2.2793 3.09242C2.2793 2.96288 2.33075 2.83865 2.42235 2.74706C2.51394 2.65546 2.63817 2.604 2.76771 2.604H8.62866C8.75819 2.604 8.88242 2.65546 8.97402 2.74706C9.06561 2.83865 9.11707 2.96288 9.11707 3.09242C9.11707 3.22195 9.06561 3.34618 8.97402 3.43778C8.88242 3.52937 8.75819 3.58083 8.62866 3.58083Z" fill="#001A88"/>
<path d="M8.62866 6.18581H2.76771C2.63817 6.18581 2.51394 6.13435 2.42235 6.04276C2.33075 5.95116 2.2793 5.82693 2.2793 5.6974C2.2793 5.56786 2.33075 5.44363 2.42235 5.35204C2.51394 5.26044 2.63817 5.20898 2.76771 5.20898H8.62866C8.75819 5.20898 8.88242 5.26044 8.97402 5.35204C9.06561 5.44363 9.11707 5.56786 9.11707 5.6974C9.11707 5.82693 9.06561 5.95116 8.97402 6.04276C8.88242 6.13435 8.75819 6.18581 8.62866 6.18581Z" fill="#001A88"/>
<path d="M7.00062 8.7903H2.76771C2.63817 8.7903 2.51394 8.73884 2.42235 8.64725C2.33075 8.55565 2.2793 8.43142 2.2793 8.30189C2.2793 8.17235 2.33075 8.04812 2.42235 7.95653C2.51394 7.86493 2.63817 7.81348 2.76771 7.81348H7.00062C7.13015 7.81348 7.25438 7.86493 7.34597 7.95653C7.43757 8.04812 7.48903 8.17235 7.48903 8.30189C7.48903 8.43142 7.43757 8.55565 7.34597 8.64725C7.25438 8.73884 7.13015 8.7903 7.00062 8.7903Z" fill="#001A88"/>
<path d="M6.3494 11.3948H2.76771C2.63817 11.3948 2.51394 11.3433 2.42235 11.2517C2.33075 11.1601 2.2793 11.0359 2.2793 10.9064C2.2793 10.7768 2.33075 10.6526 2.42235 10.561C2.51394 10.4694 2.63817 10.418 2.76771 10.418H6.3494C6.47893 10.418 6.60316 10.4694 6.69476 10.561C6.78635 10.6526 6.83781 10.7768 6.83781 10.9064C6.83781 11.0359 6.78635 11.1601 6.69476 11.2517C6.60316 11.3433 6.47893 11.3948 6.3494 11.3948Z" fill="#001A88"/>
<path d="M10.9058 14C10.294 14 9.69593 13.8186 9.18725 13.4787C8.67856 13.1388 8.28209 12.6557 8.04796 12.0905C7.81384 11.5253 7.75258 10.9033 7.87194 10.3033C7.99129 9.70325 8.2859 9.15208 8.7185 8.71948C9.1511 8.28688 9.70227 7.99227 10.3023 7.87291C10.9023 7.75356 11.5243 7.81482 12.0895 8.04894C12.6547 8.28306 13.1379 8.67954 13.4777 9.18822C13.8176 9.69691 13.9991 10.295 13.9991 10.9068C13.9981 11.7269 13.6719 12.5131 13.092 13.093C12.5121 13.6729 11.7259 13.9991 10.9058 14ZM10.9058 8.7903C10.4872 8.7903 10.078 8.91443 9.72994 9.14699C9.38189 9.37955 9.11062 9.71009 8.95043 10.0968C8.79024 10.4836 8.74833 10.9091 8.82999 11.3197C8.91166 11.7302 9.11323 12.1073 9.40922 12.4033C9.70521 12.6993 10.0823 12.9009 10.4929 12.9825C10.9034 13.0642 11.329 13.0223 11.7157 12.8621C12.1024 12.7019 12.433 12.4306 12.6655 12.0826C12.8981 11.7345 13.0222 11.3254 13.0222 10.9068C13.0216 10.3456 12.7984 9.80769 12.4016 9.41091C12.0048 9.01414 11.4669 8.79095 10.9058 8.7903Z" fill="#001A88"/>
<path d="M10.5803 12.0465C10.5161 12.0466 10.4526 12.034 10.3933 12.0094C10.3341 11.9849 10.2803 11.9488 10.235 11.9034L9.58375 11.2522C9.53813 11.2069 9.5019 11.1531 9.47714 11.0937C9.45238 11.0344 9.43957 10.9708 9.43945 10.9065C9.43934 10.8422 9.45191 10.7786 9.47646 10.7191C9.501 10.6597 9.53704 10.6057 9.58249 10.5603C9.62794 10.5148 9.68193 10.4788 9.74134 10.4543C9.80075 10.4297 9.86442 10.4171 9.9287 10.4173C9.99298 10.4174 10.0566 10.4302 10.1159 10.4549C10.1753 10.4797 10.2291 10.5159 10.2744 10.5616L10.5803 10.8674L11.5374 9.91034C11.6291 9.8193 11.7531 9.76832 11.8824 9.76856C12.0116 9.76879 12.1354 9.82023 12.2268 9.91159C12.3182 10.003 12.3696 10.1268 12.3698 10.256C12.3701 10.3852 12.3191 10.5093 12.228 10.601L10.9256 11.9034C10.8803 11.9488 10.8265 11.9849 10.7672 12.0094C10.708 12.034 10.6444 12.0466 10.5803 12.0465Z" fill="#001A88"/>
</svg>
