<svg width="310" height="209" viewBox="0 0 310 209" fill="none" xmlns="http://www.w3.org/2000/svg">
<g clip-path="url(#clip0_5296_49276)">
<path d="M192.06 79.6394C194.96 79.2994 197.85 79.1594 200.77 79.3794C212.84 80.2894 259.38 97.9694 272.54 103.599C283.09 108.109 286.23 112.949 285.15 124.739C284.65 130.229 273.19 172.259 269.78 172.339C250.94 159.309 228.17 160.929 208.58 171.159C205.08 172.989 203.62 175.969 198.78 176.399C191.44 177.059 184.47 169.649 177.26 166.869C158.38 159.609 143.09 162.889 125.78 171.379C124.75 171.879 125.13 173.029 123.78 171.349C121.38 168.339 116.39 152.699 115.01 148.119C109.94 131.329 101.99 112.159 122.01 103.589C135.8 97.6894 178.94 81.1594 192.05 79.6294L192.06 79.6394Z" fill="black"/>
<path d="M149.06 178.64C156.31 177.76 163.61 178.32 170.51 180.63C177.87 183.1 182.81 189.07 190.08 191.06C206.94 195.67 212.38 184 226.52 180.1C235.63 177.58 244.52 177.48 253.56 180.58C267.36 185.31 272.05 196.83 289.84 190.42C292.95 189.3 295.89 186.18 298.02 185.61C309.37 182.54 314.35 195.12 302.98 202.56C291 210.39 272.84 210.25 260.24 203.9C256.05 201.79 253.14 198.15 248.55 196.59C227.4 189.37 221.63 206.56 203.77 208.35C200.3 208.7 194.26 208.7 190.79 208.35C173.02 206.54 167.1 189.4 146.01 196.59C141.42 198.16 138.51 201.79 134.32 203.9C121.44 210.39 102.31 210.41 90.3398 201.8C81.0598 195.12 84.8798 183.35 95.7298 185.41C98.3498 185.91 101.44 189.24 104.72 190.42C124.32 197.48 131.52 180.76 149.06 178.64Z" fill="black"/>
<path d="M253.279 80.3601C236.719 76.5201 218.739 65.4001 201.819 64.3101C180.279 62.9201 161.479 75.0101 141.279 80.3601V52.8601C141.279 49.6401 148.989 43.0301 152.289 41.8701C176.909 33.1501 216.779 33.3901 241.499 41.6501C245.089 42.8501 253.279 49.1701 253.279 52.8701V80.3701V80.3601Z" fill="black"/>
<path d="M221.269 22.3601C205.589 19.3501 188.939 19.3601 173.279 22.3601C172.149 13.6501 174.409 3.06009 184.199 0.790089C188.579 -0.229911 205.009 -0.229911 209.539 0.590089C219.829 2.46009 222.509 13.3001 221.269 22.3501V22.3601Z" fill="black"/>
<path d="M93.1 48.0195H0V69.3995H93.1V48.0195Z" fill="black"/>
<path d="M93.1094 201.811L93.1094 56.6406H71.7294L71.7294 201.811H93.1094Z" fill="black"/>
</g>
<defs>
<clipPath id="clip0_5296_49276">
<rect width="309.41" height="208.61" fill="white"/>
</clipPath>
</defs>
</svg>
