<svg width="256" height="247" viewBox="0 0 256 247" fill="none" xmlns="http://www.w3.org/2000/svg">
<g clip-path="url(#clip0_5296_49285)">
<path d="M195 160.98H156V108.98H100V160.98H61V53.48L125.05 1.54L128.52 0L194.99 53.48V160.98H195ZM122.74 40.22C101.28 43.87 98.21 76.7 120.03 84.46C156.66 97.48 163.46 33.3 122.74 40.22Z" fill="black"/>
<path d="M256 182.98V198.98H239V230.98H256V246.98H0V230.98H17V198.98H0V182.98H256ZM67 198.98H38V230.98H67V198.98ZM118 198.98H88V230.98H118V198.98ZM168 198.98H138V230.98H168V198.98ZM218 198.98H189V230.98H218V198.98Z" fill="black"/>
<path d="M47 54.9805H0V160.98H47V54.9805Z" fill="black"/>
<path d="M256 54.9805H209V160.98H256V54.9805Z" fill="black"/>
<path d="M142 122.98H114V160.98H142V122.98Z" fill="black"/>
<path d="M125.72 54.1808C138.83 51.2908 140.89 71.0708 128.34 71.6908C118.01 72.2008 115.51 56.4308 125.72 54.1808Z" fill="black"/>
</g>
<defs>
<clipPath id="clip0_5296_49285">
<rect width="256" height="246.98" fill="white"/>
</clipPath>
</defs>
</svg>
