<svg width="14" height="16" viewBox="0 0 14 16" fill="none" xmlns="http://www.w3.org/2000/svg">
<path d="M10.334 8.33335C10.334 8.59857 10.2286 8.85292 10.0411 9.04045C9.85355 9.22799 9.5992 9.33335 9.33398 9.33335H4.66732C4.4021 9.33335 4.14775 9.22799 3.96021 9.04045C3.77267 8.85292 3.66732 8.59857 3.66732 8.33335C3.66732 8.06813 3.77267 7.81378 3.96021 7.62624C4.14775 7.4387 4.4021 7.33335 4.66732 7.33335H9.33398C9.5992 7.33335 9.85355 7.4387 10.0411 7.62624C10.2286 7.81378 10.334 8.06813 10.334 8.33335ZM7.33398 10.6667H4.66732C4.4021 10.6667 4.14775 10.772 3.96021 10.9596C3.77267 11.1471 3.66732 11.4015 3.66732 11.6667C3.66732 11.9319 3.77267 12.1863 3.96021 12.3738C4.14775 12.5613 4.4021 12.6667 4.66732 12.6667H7.33398C7.5992 12.6667 7.85356 12.5613 8.04109 12.3738C8.22863 12.1863 8.33398 11.9319 8.33398 11.6667C8.33398 11.4015 8.22863 11.1471 8.04109 10.9596C7.85356 10.772 7.5992 10.6667 7.33398 10.6667ZM13.6673 5.43801V12.3333C13.6663 13.3055 13.2796 14.2375 12.5922 14.9249C11.9048 15.6123 10.9728 15.999 10.0007 16H4.00065C3.02852 15.999 2.0965 15.6123 1.4091 14.9249C0.721692 14.2375 0.335043 13.3055 0.333984 12.3333V3.66668C0.335043 2.69455 0.721692 1.76253 1.4091 1.07513C2.0965 0.387722 3.02852 0.00107359 4.00065 1.48073e-05H8.22932C8.71103 -0.00135889 9.18823 0.0928613 9.63327 0.277218C10.0783 0.461574 10.4824 0.732402 10.822 1.07401L12.5933 2.84535C12.9349 3.18503 13.2057 3.58907 13.39 4.0341C13.5744 4.47914 13.6686 4.95631 13.6673 5.43801ZM11.6673 12.3333V6.00001H9.00065C8.64703 6.00001 8.30789 5.85954 8.05784 5.60949C7.80779 5.35944 7.66732 5.0203 7.66732 4.66668V2.00001H4.00065C3.55862 2.00001 3.1347 2.17561 2.82214 2.48817C2.50958 2.80073 2.33398 3.22465 2.33398 3.66668V12.3333C2.33398 12.7754 2.50958 13.1993 2.82214 13.5119C3.1347 13.8244 3.55862 14 4.00065 14H10.0007C10.4427 14 10.8666 13.8244 11.1792 13.5119C11.4917 13.1993 11.6673 12.7754 11.6673 12.3333Z" fill="#001A88"/>
</svg>
