<svg width="40" height="40" viewBox="0 0 40 40" fill="none" xmlns="http://www.w3.org/2000/svg">
<path d="M20.7255 4.61621C20.7597 5.46713 20.7938 6.31804 20.8281 7.16895C20.1656 7.16895 19.8345 7.16895 19.1721 7.16895C19.2062 6.31804 19.2405 5.46713 19.2746 4.61621C17.9312 4.61621 16.5879 4.61621 15.2445 4.61621C12.5439 14.8724 9.84293 25.1284 7.14246 35.3847C10.7745 35.3847 14.4065 35.3847 18.0384 35.3847C18.0726 34.5337 18.1068 33.6828 18.141 32.832C19.3804 32.832 20.6198 32.832 21.8591 32.832C21.8935 33.6829 21.9276 34.5337 21.9617 35.3847C25.5937 35.3847 29.2256 35.3847 32.8577 35.3847C30.1571 25.1285 27.4562 14.8725 24.7556 4.61621C23.4123 4.61621 22.0689 4.61621 20.7255 4.61621ZM19.0183 10.9911C19.6727 10.9911 20.3271 10.9908 20.9817 10.991C21.0767 13.3571 21.1717 15.7233 21.2669 18.0893C20.4223 18.0893 19.5778 18.0893 18.7331 18.0893C18.8285 15.7234 18.9233 13.3572 19.0183 10.9911ZM18.2945 29.0097C18.3894 26.6437 18.4846 24.2776 18.5796 21.9116C19.5266 21.9116 20.4735 21.9114 21.4203 21.9114C21.5154 24.2774 21.6105 26.6437 21.7055 29.0097C20.5686 29.0097 19.4314 29.0097 18.2945 29.0097Z" fill="black"/>
<path d="M27.3973 4.61621C26.8485 4.61621 26.574 4.61621 26.0253 4.61621C29.4473 14.8724 32.8685 25.1285 36.2907 35.3847C37.5271 35.3847 38.7636 35.3847 40 35.3847C35.7993 25.1284 31.5983 14.8724 27.3973 4.61621Z" fill="black"/>
<path d="M12.6027 4.61621C8.40172 14.8725 4.20064 25.1284 0 35.3847C1.2365 35.3847 2.4729 35.3847 3.7094 35.3847C7.13115 25.1285 10.5528 14.8725 13.9747 4.61621C13.426 4.61621 13.1515 4.61621 12.6027 4.61621Z" fill="black"/>
</svg>
