<svg width="390" height="204" viewBox="0 0 390 204" fill="none" xmlns="http://www.w3.org/2000/svg">
<path fill-rule="evenodd" clip-rule="evenodd" d="M0 0L16.25 3.77778C32.5 7.55556 65 15.1111 97.5 37.7778C130 60.4444 162.5 98.2222 195 102C227.5 105.778 260 75.5556 292.5 64.2222C325 52.8889 357.5 60.4444 373.75 64.2222L390 68V204H373.75C357.5 204 325 204 292.5 204C260 204 227.5 204 195 204C162.5 204 130 204 97.5 204C65 204 32.5 204 16.25 204H0V0Z" fill="#102C57"/>
<path fill-rule="evenodd" clip-rule="evenodd" d="M0 75.5L44 120.5C56 129.5 78 152.316 110.5 124.5C143 96.6845 162.5 57.9686 195 40.5839C227.5 23.1992 260 51.0147 292.5 61.4455C325 71.8763 357.5 64.9224 373.75 61.4455L390 57.9686V204H373.75C357.5 204 325 204 292.5 204C260 204 227.5 204 195 204C162.5 204 130 204 97.5 204C65 204 32.5 204 16.25 204H0V75.5Z" fill="#0099FF" fill-opacity="0.7"/>
</svg>
