<svg width="50" height="50" viewBox="0 0 50 50" fill="none" xmlns="http://www.w3.org/2000/svg">
<g clip-path="url(#clip0_5210_49135)">
<path d="M0.837449 31.248C1.28276 31.2475 1.72778 31.2698 2.17075 31.3147C3.7018 31.4824 5.17494 31.9953 6.47904 32.8147C8.40765 34.0201 10.647 34.6342 12.9207 34.5814C14.7061 34.6349 16.4781 34.2581 18.0874 33.483C18.5291 33.2747 18.9449 33.0413 19.3615 32.8163C21.0424 31.7462 23.0036 31.2002 24.9957 31.248C26.99 31.1989 28.9539 31.7442 30.6374 32.8147C32.5686 34.0211 34.8109 34.6353 37.0874 34.5814C37.8379 34.5871 38.5876 34.5314 39.3291 34.4147C40.8174 34.1509 42.2424 33.608 43.5291 32.8147C45.2124 31.7443 47.1764 31.1989 49.1707 31.248C49.631 31.248 50.004 30.8749 50.004 30.4147C50.004 29.9544 49.631 29.5814 49.1707 29.5814C46.8971 29.5286 44.6577 30.1427 42.7291 31.3481C42.3624 31.5481 42.0041 31.7481 41.6291 31.9314L49.604 22.3314C50.0262 21.8353 50.1205 21.1386 49.8457 20.5481C49.5797 19.9548 48.9876 19.5753 48.3374 19.5814H41.1125L36.7208 16.3897L32.3208 13.1897L31.9041 12.348C31.0615 10.6484 29.3261 9.57548 27.4291 9.58134H18.8524L18.0191 7.91464H22.5041C22.9644 7.91464 23.3374 7.5415 23.3374 7.08135C23.3374 6.62119 22.9644 6.24805 22.5041 6.24805H13.3374C12.8772 6.24805 12.5041 6.62109 12.5041 7.08135C12.5041 7.5416 12.8772 7.91464 13.3374 7.91464H16.1558L16.9891 9.58134H13.3374C11.9568 9.58134 10.8374 10.7006 10.8374 12.0813C10.8374 13.4621 11.9567 14.5813 13.3374 14.5813H14.4957L11.9957 19.5813H11.2541C10.7295 19.5813 10.2356 19.8283 9.92083 20.248L7.92083 22.9147H6.48744C6.20355 22.9129 5.9388 23.0578 5.78744 23.298L1.73745 29.6063C1.45415 29.5896 1.15415 29.5813 0.837449 29.5813C0.377196 29.5813 0.00415039 29.9543 0.00415039 30.4146C0.00415039 30.8748 0.377196 31.248 0.837449 31.248ZM34.1708 23.748C34.1708 24.2083 33.7977 24.5813 33.3375 24.5813C32.8772 24.5813 32.5042 24.2083 32.5042 23.748V21.248H34.1709V23.748H34.1708ZM39.1708 21.2563H40.8375V23.748C40.8375 24.2083 40.4644 24.5813 40.0042 24.5813C39.5439 24.5813 39.1709 24.2083 39.1709 23.748V21.2563H39.1708ZM37.5041 21.248V23.748C37.5041 24.2083 37.131 24.5813 36.6708 24.5813C36.2105 24.5813 35.8375 24.2083 35.8375 23.748V21.248H37.5041ZM21.6708 14.5813H23.3375V15.4146C23.3375 15.8749 23.7105 16.2479 24.1708 16.2479H33.6875L35.9792 17.9146H24.1708C22.7918 17.9105 21.6749 16.7936 21.6708 15.4146V14.5813ZM11.2541 21.248H28.3374V22.0813C28.3374 22.5416 27.9643 22.9146 27.5041 22.9146H10.0041L11.2541 21.248Z" fill="#0D1320"/>
<path d="M49.1707 34.5804C46.8953 34.527 44.654 35.1424 42.725 36.3504C41.0416 37.4172 39.0798 37.9612 37.0875 37.9138C35.094 37.962 33.1309 37.4179 31.4467 36.3504C29.5166 35.1418 27.2741 34.5264 24.9976 34.5804C22.7233 34.5271 20.4835 35.1425 18.5559 36.3504C16.8735 37.4174 14.9125 37.9616 12.9209 37.9138C10.928 37.9619 8.96546 37.4178 7.28177 36.3504C5.35336 35.1423 3.11264 34.5268 0.837645 34.5804C0.377196 34.5804 0.00415039 34.9535 0.00415039 35.4137C0.00415039 35.874 0.377196 36.247 0.837449 36.247C2.83012 36.1991 4.79232 36.7431 6.47581 37.8104C8.40452 39.0187 10.6455 39.6341 12.9208 39.5804C15.1951 39.6339 17.4351 39.0182 19.3625 37.8096C21.045 36.7431 23.006 36.1994 24.9975 36.2471C26.9909 36.199 28.954 36.743 30.6383 37.8105C32.5683 39.0191 34.8108 39.6345 37.0874 39.5805C39.3628 39.6339 41.6041 39.0185 43.5332 37.8105C45.2165 36.7437 47.1783 36.1998 49.1706 36.2471C49.6309 36.2471 50.0039 35.8741 50.0039 35.4138C50.0039 34.9536 49.631 34.5804 49.1707 34.5804Z" fill="#0D1320"/>
</g>
<defs>
<clipPath id="clip0_5210_49135">
<rect width="50" height="50" fill="white"/>
</clipPath>
</defs>
</svg>
