<svg width="18" height="18" viewBox="0 0 18 18" fill="none" xmlns="http://www.w3.org/2000/svg">
<path d="M3.85713 2.25815C3.8586 1.84547 3.76265 1.44028 3.5798 1.08695C3.39695 0.733621 3.13425 0.445772 2.82046 0.254926C2.50667 0.0640794 2.1539 -0.0224043 1.80077 0.00494456C1.44764 0.0322934 1.10777 0.17242 0.818381 0.409981C0.528993 0.647541 0.301245 0.973374 0.160075 1.3518C0.0189044 1.73023 -0.0302433 2.14665 0.0180133 2.55547C0.06627 2.9643 0.21007 3.34976 0.433667 3.66964C0.657264 3.98952 0.952035 4.23149 1.2857 4.36905V17.2504C1.2857 17.4492 1.35343 17.6399 1.47399 17.7804C1.59455 17.921 1.75806 18 1.92856 18C2.09906 18 2.26257 17.921 2.38313 17.7804C2.50369 17.6399 2.57142 17.4492 2.57142 17.2504V4.36905C2.94615 4.21457 3.27079 3.92886 3.50093 3.551C3.73108 3.17314 3.85549 2.7216 3.85713 2.25815Z" fill="#0D1320"/>
<path d="M14.7857 0.00976562H8.35711C7.50494 0.0109559 6.68797 0.406222 6.08539 1.10886C5.48282 1.8115 5.14384 2.76414 5.14282 3.75783V13.5028C5.14447 13.9662 5.26888 14.4178 5.49902 14.7956C5.72917 15.1735 6.05381 15.4592 6.42854 15.6137V16.5012C6.42854 16.8989 6.564 17.2802 6.80512 17.5613C7.04623 17.8425 7.37326 18.0005 7.71425 18.0005H8.99997C9.34096 18.0005 9.66799 17.8425 9.90911 17.5613C10.1502 17.2802 10.2857 16.8989 10.2857 16.5012V15.7516H12.8571V16.5012C12.8571 16.8989 12.9926 17.2802 13.2337 17.5613C13.4748 17.8425 13.8018 18.0005 14.1428 18.0005H15.4286C15.7695 18.0005 16.0966 17.8425 16.3377 17.5613C16.5788 17.2802 16.7143 16.8989 16.7143 16.5012V15.6137C17.089 15.4592 17.4136 15.1735 17.6438 14.7956C17.8739 14.4178 17.9983 13.9662 18 13.5028V3.75783C17.999 2.76414 17.66 1.8115 17.0574 1.10886C16.4548 0.406222 15.6379 0.0109559 14.7857 0.00976562ZM7.71425 12.7532C7.71425 12.6049 7.75196 12.46 7.8226 12.3367C7.89323 12.2134 7.99363 12.1174 8.1111 12.0606C8.22857 12.0039 8.35783 11.989 8.48253 12.018C8.60723 12.0469 8.72178 12.1183 8.81168 12.2231C8.90159 12.328 8.96281 12.4615 8.98762 12.6069C9.01242 12.7523 8.99969 12.9031 8.95104 13.04C8.90238 13.177 8.81998 13.2941 8.71427 13.3765C8.60855 13.4588 8.48426 13.5028 8.35711 13.5028C8.18662 13.5028 8.0231 13.4238 7.90254 13.2832C7.78198 13.1426 7.71425 12.952 7.71425 12.7532ZM14.1428 12.7532C14.1428 12.6049 14.1805 12.46 14.2512 12.3367C14.3218 12.2134 14.4222 12.1174 14.5397 12.0606C14.6572 12.0039 14.7864 11.989 14.9111 12.018C15.0358 12.0469 15.1504 12.1183 15.2403 12.2231C15.3302 12.328 15.3914 12.4615 15.4162 12.6069C15.441 12.7523 15.4283 12.9031 15.3796 13.04C15.331 13.177 15.2486 13.2941 15.1428 13.3765C15.0371 13.4588 14.9128 13.5028 14.7857 13.5028C14.6152 13.5028 14.4517 13.4238 14.3311 13.2832C14.2106 13.1426 14.1428 12.952 14.1428 12.7532ZM16.7143 9.00511C16.7143 9.20392 16.6465 9.39459 16.526 9.53517C16.4054 9.67575 16.2419 9.75472 16.0714 9.75472H7.0714C6.9009 9.75472 6.73739 9.67575 6.61683 9.53517C6.49627 9.39459 6.42854 9.20392 6.42854 9.00511V4.50744C6.42854 4.10982 6.564 3.72849 6.80512 3.44733C7.04623 3.16617 7.37326 3.00821 7.71425 3.00821H15.4286C15.7695 3.00821 16.0966 3.16617 16.3377 3.44733C16.5788 3.72849 16.7143 4.10982 16.7143 4.50744V9.00511Z" fill="#0D1320"/>
</svg>
