<svg width="18" height="18" viewBox="0 0 18 18" fill="none" xmlns="http://www.w3.org/2000/svg">
<path d="M17.875 6.61478C17.8323 6.49022 17.6806 6.39334 17.554 6.39334C17.0057 6.39334 16.4575 6.39334 15.9092 6.39334C15.7827 6.39334 15.631 6.49022 15.5881 6.61478C15.5463 6.73669 15.515 6.84547 15.4942 6.94778L14.3955 3.90826C14.2143 3.40705 13.7344 3.07031 13.2015 3.07031H4.79857C4.26561 3.07031 3.78579 3.40705 3.60449 3.90836L2.50579 6.94814C2.48494 6.84575 2.45366 6.73683 2.41174 6.61478C2.36896 6.49022 2.21726 6.39334 2.09069 6.39334C1.54245 6.39334 0.994218 6.39334 0.445937 6.39334C0.319369 6.39334 0.167669 6.49022 0.124887 6.61478C-0.0416821 7.09975 -0.0415909 7.37738 0.124932 7.8624C0.167715 7.98696 0.319414 8.08384 0.445983 8.08384C0.994264 8.08384 1.5425 8.08384 2.09073 8.08384C2.09229 8.08384 2.09393 8.08343 2.09552 8.08338L2.07071 8.15212C1.73534 8.26354 1.49319 8.57926 1.49319 8.95208V11.4974V11.7071V14.5236C1.49319 14.7475 1.67463 14.929 1.89853 14.929H3.93854C4.1624 14.929 4.34388 14.7475 4.34388 14.5236V12.5505H13.6561V14.5236C13.6561 14.7475 13.8376 14.929 14.0615 14.929H16.1015C16.3254 14.929 16.5068 14.7475 16.5068 14.5236V11.7071V11.4974V8.95208C16.5068 8.57935 16.2648 8.26368 15.9295 8.15216L15.9047 8.08338C15.9062 8.08343 15.9078 8.08379 15.9093 8.08379C16.4576 8.08379 17.0057 8.08379 17.554 8.08379C17.6806 8.08379 17.8323 7.98692 17.8751 7.86236C18.0416 7.37738 18.0415 7.09975 17.875 6.61478ZM4.95378 4.56195H13.0451L14.3271 8.1087H3.67181L4.95378 4.56195ZM5.17946 10.6073H3.47282C3.10666 10.6073 2.80987 10.3105 2.80987 9.94433C2.80987 9.57821 3.10661 9.28138 3.47282 9.28138H5.17946C5.54558 9.28138 5.84241 9.57817 5.84241 9.94433C5.84245 10.3105 5.54558 10.6073 5.17946 10.6073ZM14.5271 10.6073H12.8204C12.4543 10.6073 12.1575 10.3105 12.1575 9.94433C12.1575 9.57821 12.4543 9.28138 12.8204 9.28138H14.5271C14.8932 9.28138 15.19 9.57817 15.19 9.94433C15.19 10.3105 14.8932 10.6073 14.5271 10.6073Z" fill="black"/>
</svg>
