<svg width="20" height="20" viewBox="0 0 20 20" fill="none" xmlns="http://www.w3.org/2000/svg">
<path d="M17.7508 9.23071L18.8442 8.38237C19.0633 8.21237 19.1842 7.94404 19.165 7.66737C19.1458 7.39071 18.9908 7.14071 18.7492 7.00237L7.33167 0.424872C6.54833 -0.0134611 5.64333 -0.118461 4.77917 0.131539C3.91667 0.380706 3.205 0.952372 2.77667 1.74154L2.07333 3.03487C1.21167 4.61821 1.78583 6.63237 3.345 7.51987L8.06 10.269L7.0525 13.2907C6.71167 14.3132 5.75833 14.9999 4.68083 14.9999H1.66667V12.4999C1.66667 12.0399 1.29333 11.6665 0.833333 11.6665C0.373333 11.6665 0 12.0399 0 12.4999V19.1665C0 19.6265 0.373333 19.9999 0.833333 19.9999C1.29333 19.9999 1.66667 19.6265 1.66667 19.1665V16.6665H4.68083C6.47667 16.6665 8.06583 15.5215 8.63333 13.8182L9.53083 11.1274L11.9292 12.5257C12.4392 12.8157 13.0025 12.9632 13.5725 12.9632C13.8783 12.9632 14.1867 12.9207 14.49 12.8349C14.7875 12.7499 15.0675 12.6274 15.3242 12.4707L16.6508 13.2065C17.1433 13.4799 17.7642 13.299 18.0342 12.8049L18.7375 11.5157C19.005 11.0257 18.8267 10.4124 18.3383 10.1415L17.3908 9.61654C17.4892 9.46987 17.61 9.34154 17.75 9.23237L17.7508 9.23071Z" fill="#313F4B"/>
</svg>
