<svg width="21" height="21" viewBox="0 0 21 21" fill="none" xmlns="http://www.w3.org/2000/svg">
<path d="M16.3901 6.71795L6.21091 2.23711C6.11015 2.19259 6.00156 2.16848 5.89142 2.1662C5.78128 2.16391 5.67178 2.18348 5.56925 2.22378C5.4668 2.26427 5.3734 2.32466 5.29444 2.40147C5.21549 2.47828 5.15254 2.56999 5.10925 2.67128L2.60925 8.50461C2.52219 8.70773 2.51938 8.9371 2.60142 9.14229C2.68347 9.34748 2.84365 9.51168 3.04675 9.59878L8.84425 12.0829L7.81091 14.6663H4.20841V12.1663H2.54175V18.8329H4.20841V16.3329H7.81091C8.49675 16.3329 9.10425 15.9213 9.35758 15.2846L10.3759 12.7396L13.2251 13.9604C13.4273 14.0473 13.6556 14.0507 13.8603 13.9698C14.065 13.889 14.2294 13.7304 14.3176 13.5288L16.8176 7.81461C16.906 7.61246 16.9107 7.38348 16.8306 7.1779C16.7504 6.97231 16.592 6.8069 16.3901 6.71795ZM17.4834 14.1429L15.9351 13.5246L17.6001 9.35795L19.1484 9.97545L17.4834 14.1429Z" fill="#0D1320"/>
</svg>
