<svg width="30" height="30" viewBox="0 0 30 30" fill="none" xmlns="http://www.w3.org/2000/svg">
<mask id="path-1-inside-1_294_17496" fill="white">
<path d="M24.016 3.24794C24.0539 3.03846 23.9461 2.82961 23.7532 2.73944C23.5603 2.64928 23.3309 2.70044 23.1946 2.86399L20.092 6.58713L18.4436 3.96902C18.3358 3.79793 18.1306 3.71519 17.9343 3.76376C17.738 3.81232 17.595 3.98123 17.5795 4.18282L17.228 8.75313C17.2081 9.01125 17.4013 9.2366 17.6594 9.25645C17.9175 9.2763 18.1428 9.08315 18.1627 8.82504L18.4055 5.66815L19.6424 7.63258C19.7223 7.75957 19.8583 7.84059 20.008 7.85055C20.1577 7.86051 20.3031 7.79819 20.3992 7.68293L22.775 4.8319L22.156 8.23647C22.1266 8.39824 22.1841 8.56357 22.3075 8.67218C22.4309 8.78081 22.6022 8.81686 22.7589 8.76717L25.8593 7.78411L23.798 9.99269C23.6972 10.1008 23.6531 10.2501 23.6794 10.3956C23.7054 10.5411 23.7987 10.6657 23.9311 10.7318L25.9231 11.7277L23.1261 12.1939C22.8707 12.2365 22.6982 12.478 22.7408 12.7333C22.7833 12.9887 23.0249 13.1612 23.2802 13.1186L27.499 12.4155C27.6992 12.3821 27.8553 12.2236 27.8855 12.0229C27.9157 11.8221 27.8131 11.6247 27.6314 11.5339L24.9113 10.1738L27.7646 7.11672C27.9099 6.96096 27.9319 6.7267 27.8182 6.54654C27.7043 6.36637 27.4833 6.28565 27.2803 6.35008L23.2177 7.63821L24.016 3.24794Z"/>
</mask>
<path d="M24.016 3.24794C24.0539 3.03846 23.9461 2.82961 23.7532 2.73944C23.5603 2.64928 23.3309 2.70044 23.1946 2.86399L20.092 6.58713L18.4436 3.96902C18.3358 3.79793 18.1306 3.71519 17.9343 3.76376C17.738 3.81232 17.595 3.98123 17.5795 4.18282L17.228 8.75313C17.2081 9.01125 17.4013 9.2366 17.6594 9.25645C17.9175 9.2763 18.1428 9.08315 18.1627 8.82504L18.4055 5.66815L19.6424 7.63258C19.7223 7.75957 19.8583 7.84059 20.008 7.85055C20.1577 7.86051 20.3031 7.79819 20.3992 7.68293L22.775 4.8319L22.156 8.23647C22.1266 8.39824 22.1841 8.56357 22.3075 8.67218C22.4309 8.78081 22.6022 8.81686 22.7589 8.76717L25.8593 7.78411L23.798 9.99269C23.6972 10.1008 23.6531 10.2501 23.6794 10.3956C23.7054 10.5411 23.7987 10.6657 23.9311 10.7318L25.9231 11.7277L23.1261 12.1939C22.8707 12.2365 22.6982 12.478 22.7408 12.7333C22.7833 12.9887 23.0249 13.1612 23.2802 13.1186L27.499 12.4155C27.6992 12.3821 27.8553 12.2236 27.8855 12.0229C27.9157 11.8221 27.8131 11.6247 27.6314 11.5339L24.9113 10.1738L27.7646 7.11672C27.9099 6.96096 27.9319 6.7267 27.8182 6.54654C27.7043 6.36637 27.4833 6.28565 27.2803 6.35008L23.2177 7.63821L24.016 3.24794Z" fill="white"/>
<path d="M24.016 3.24794L25.295 3.48051L25.2951 3.47979L24.016 3.24794ZM23.1946 2.86399L22.1959 2.03175L22.1959 2.03175L23.1946 2.86399ZM20.092 6.58713L18.9919 7.27979L19.9452 8.79392L21.0907 7.41937L20.092 6.58713ZM18.4436 3.96902L19.5437 3.27637L19.5436 3.27629L18.4436 3.96902ZM17.5795 4.18282L16.2834 4.08306L16.2834 4.08311L17.5795 4.18282ZM17.228 8.75313L15.9318 8.65342L15.9318 8.65344L17.228 8.75313ZM18.1627 8.82504L16.8665 8.72533L16.8665 8.72535L18.1627 8.82504ZM18.4055 5.66815L19.5056 4.97549L17.4109 1.64854L17.1094 5.56844L18.4055 5.66815ZM19.6424 7.63258L20.7425 6.93998L20.7425 6.93993L19.6424 7.63258ZM20.3992 7.68293L19.4005 6.85069L19.4005 6.85073L20.3992 7.68293ZM22.775 4.8319L24.0541 5.06445L24.9373 0.206489L21.7763 3.99966L22.775 4.8319ZM22.156 8.23647L23.4351 8.46904L23.4351 8.46902L22.156 8.23647ZM22.3075 8.67218L23.1665 7.69642L23.1664 7.69632L22.3075 8.67218ZM22.7589 8.76717L22.366 7.52797L22.366 7.52797L22.7589 8.76717ZM25.8593 7.78411L26.8097 8.67112L30.1928 5.04628L25.4664 6.54491L25.8593 7.78411ZM23.798 9.99269L22.8476 9.10568L22.8472 9.10608L23.798 9.99269ZM23.6794 10.3956L24.9591 10.1667L24.9587 10.1648L23.6794 10.3956ZM23.9311 10.7318L24.5125 9.56903L24.5118 9.56871L23.9311 10.7318ZM25.9231 11.7277L26.1368 13.0101L30.0802 12.3528L26.5044 10.565L25.9231 11.7277ZM23.1261 12.1939L22.9124 10.9116L22.9123 10.9116L23.1261 12.1939ZM22.7408 12.7333L24.0231 12.5196L24.0231 12.5196L22.7408 12.7333ZM23.2802 13.1186L23.0665 11.8363L23.0665 11.8363L23.2802 13.1186ZM27.499 12.4155L27.7127 13.6978L27.7128 13.6978L27.499 12.4155ZM27.8855 12.0229L26.6 11.8293L26.6 11.8293L27.8855 12.0229ZM27.6314 11.5339L27.05 12.6966L27.0502 12.6967L27.6314 11.5339ZM24.9113 10.1738L23.9609 9.28678L22.7739 10.5585L24.3299 11.3365L24.9113 10.1738ZM27.7646 7.11672L28.7149 8.00374L28.7151 8.00351L27.7646 7.11672ZM27.8182 6.54654L28.9177 5.85285L28.917 5.85183L27.8182 6.54654ZM27.2803 6.35008L27.6732 7.58929L27.6737 7.58915L27.2803 6.35008ZM23.2177 7.63821L21.9386 7.40564L21.5524 9.53L23.6106 8.87741L23.2177 7.63821ZM25.2951 3.47979C25.4382 2.69021 25.032 1.90216 24.3037 1.56175L23.2027 3.91713C22.8603 3.75706 22.6696 3.38671 22.7368 3.0161L25.2951 3.47979ZM24.3037 1.56175C23.5759 1.22156 22.7103 1.41456 22.1959 2.03175L24.1933 3.69623C23.9516 3.98633 23.5447 4.077 23.2027 3.91713L24.3037 1.56175ZM22.1959 2.03175L19.0933 5.75489L21.0907 7.41937L24.1933 3.69623L22.1959 2.03175ZM21.1921 5.89448L19.5437 3.27637L17.3435 4.66168L18.9919 7.27979L21.1921 5.89448ZM19.5436 3.27629C19.1371 2.63079 18.3626 2.31857 17.6221 2.50181L18.2465 5.0257C17.8985 5.11181 17.5345 4.96507 17.3435 4.66175L19.5436 3.27629ZM17.6221 2.50181C16.8815 2.68506 16.3419 3.32248 16.2834 4.08306L18.8757 4.28258C18.8482 4.63999 18.5946 4.93958 18.2465 5.0257L17.6221 2.50181ZM16.2834 4.08311L15.9318 8.65342L18.5241 8.85284L18.8757 4.28252L16.2834 4.08311ZM15.9318 8.65344C15.8569 9.62736 16.5857 10.4777 17.5597 10.5526L17.7591 7.96028C18.2169 7.99549 18.5593 8.39514 18.5241 8.85282L15.9318 8.65344ZM17.5597 10.5526C18.5336 10.6275 19.384 9.89875 19.4589 8.92472L16.8665 8.72535C16.9017 8.26755 17.3014 7.92508 17.7591 7.96028L17.5597 10.5526ZM19.4589 8.92474L19.7017 5.76785L17.1094 5.56844L16.8665 8.72533L19.4589 8.92474ZM17.3054 6.3608L18.5423 8.32524L20.7425 6.93993L19.5056 4.97549L17.3054 6.3608ZM18.5423 8.32519C18.844 8.80442 19.3568 9.11011 19.9217 9.14769L20.0943 6.55342C20.3597 6.57108 20.6007 6.71471 20.7425 6.93998L18.5423 8.32519ZM19.9217 9.14769C20.4867 9.18527 21.0354 8.9501 21.3979 8.51513L19.4005 6.85073C19.5708 6.64628 19.8288 6.53575 20.0943 6.55342L19.9217 9.14769ZM21.3979 8.51517L23.7737 5.66414L21.7763 3.99966L19.4005 6.85069L21.3979 8.51517ZM21.496 4.59935L20.877 8.00393L23.4351 8.46902L24.0541 5.06445L21.496 4.59935ZM20.877 8.00391C20.766 8.61417 20.9828 9.23809 21.4486 9.64803L23.1664 7.69632C23.3853 7.88905 23.4872 8.18231 23.4351 8.46904L20.877 8.00391ZM21.4485 9.64794C21.9141 10.0578 22.5605 10.1939 23.1518 10.0064L22.366 7.52797C22.6439 7.43984 22.9477 7.50378 23.1665 7.69642L21.4485 9.64794ZM23.1518 10.0064L26.2522 9.02331L25.4664 6.54491L22.366 7.52797L23.1518 10.0064ZM24.9089 6.8971L22.8476 9.10568L24.7484 10.8797L26.8097 8.67112L24.9089 6.8971ZM22.8472 9.10608C22.4675 9.51334 22.3009 10.0766 22.4 10.6264L24.9587 10.1648C25.0054 10.4236 24.927 10.6882 24.7487 10.8793L22.8472 9.10608ZM22.3997 10.6244C22.4981 11.1748 22.851 11.6455 23.3504 11.8949L24.5118 9.56871C24.7464 9.68582 24.9127 9.90728 24.9591 10.1667L22.3997 10.6244ZM23.3497 11.8946L25.3417 12.8905L26.5044 10.565L24.5125 9.56903L23.3497 11.8946ZM25.7094 10.4454L22.9124 10.9116L23.3398 13.4762L26.1368 13.0101L25.7094 10.4454ZM22.9123 10.9116C21.9489 11.0722 21.2978 11.9835 21.4585 12.9471L24.0231 12.5196C24.0986 12.9725 23.7926 13.4007 23.3398 13.4762L22.9123 10.9116ZM21.4585 12.9471C21.6191 13.9107 22.5304 14.5616 23.4939 14.401L23.0665 11.8363C23.5193 11.7609 23.9476 12.0668 24.0231 12.5196L21.4585 12.9471ZM23.4939 14.401L27.7127 13.6978L27.2853 11.1332L23.0665 11.8363L23.4939 14.401ZM27.7128 13.6978C28.4682 13.5719 29.0569 12.9739 29.171 12.2164L26.6 11.8293C26.6536 11.4734 26.9301 11.1924 27.2852 11.1332L27.7128 13.6978ZM29.171 12.2164C29.2852 11.4578 28.8973 10.7133 28.2127 10.3711L27.0502 12.6967C26.7288 12.5361 26.5462 12.1863 26.6 11.8293L29.171 12.2164ZM28.2128 10.3711L25.4927 9.01104L24.3299 11.3365L27.05 12.6966L28.2128 10.3711ZM25.8616 11.0608L28.7149 8.00374L26.8142 6.22971L23.9609 9.28678L25.8616 11.0608ZM28.7151 8.00351C29.2634 7.41576 29.3464 6.53234 28.9177 5.85285L26.7188 7.24022C26.5174 6.92107 26.5563 6.50616 26.814 6.22993L28.7151 8.00351ZM28.917 5.85183C28.4877 5.1728 27.654 4.86754 26.887 5.11101L27.6737 7.58915C27.3126 7.70377 26.9209 7.55995 26.7194 7.24124L28.917 5.85183ZM26.8874 5.11088L22.8248 6.39901L23.6106 8.87741L27.6732 7.58929L26.8874 5.11088ZM24.4967 7.87077L25.295 3.48051L22.7369 3.01538L21.9386 7.40564L24.4967 7.87077Z" fill="white" mask="url(#path-1-inside-1_294_17496)"/>
<path d="M7.32227 10.1476C7.42052 10.0978 7.52241 10.0781 7.61618 10.0781H16.9932C17.087 10.0781 17.1889 10.0978 17.2871 10.1476C17.8076 10.4115 18.6495 11.1386 19.0639 12.3919C19.1451 12.6377 19.0117 12.9029 18.7659 12.9841C18.5201 13.0654 18.255 12.932 18.1737 12.6862C17.8614 11.7416 17.2538 11.2078 16.9216 11.0156H7.68771C7.28152 11.2504 6.47513 11.9882 6.28083 13.3517C6.26456 13.4658 6.20852 13.5644 6.12872 13.6354C6.54764 14.0626 7.04435 14.2431 7.31236 14.284H11.1816C11.4405 14.284 11.6503 14.4938 11.6503 14.7527C11.6503 15.0116 11.4405 15.2215 11.1816 15.2215H7.25095L7.22191 15.2178C6.62095 15.1425 5.4218 14.6664 4.81875 13.3631H3.08501C2.80617 13.3631 2.57813 13.59 2.57813 13.8724V13.9136C2.57813 14.1659 2.76162 14.379 3.00811 14.417L4.40402 14.6323C4.89415 14.7079 5.12953 15.2731 4.84345 15.6746L4.3429 16.3772C4.21043 16.5631 4.13913 16.7861 4.13913 17.0148V19.3498C4.13913 19.9563 4.62926 20.446 5.23139 20.446H8.60346C8.86235 20.446 9.07221 20.6559 9.07221 20.9147C9.07221 21.1736 8.86235 21.3835 8.60346 21.3835H5.23139C5.02083 21.3835 4.81781 21.3514 4.62694 21.2918V22.1863C4.62694 22.3607 4.76763 22.5 4.9387 22.5H7.47532C7.64639 22.5 7.78709 22.3474 7.78709 22.0885C7.78709 21.8296 7.99695 21.6197 8.25584 21.6197C8.51473 21.6197 8.72459 21.8296 8.72459 22.0885C8.72459 22.8775 8.1664 23.4375 7.47532 23.4375H4.9387C4.24763 23.4375 3.68944 22.8762 3.68944 22.1863L3.69152 20.6748C3.38609 20.3187 3.20163 19.8556 3.20163 19.3498V17.0148C3.20163 16.5912 3.33363 16.1781 3.57938 15.8332L3.82296 15.4913L2.86519 15.3436C2.1598 15.2348 1.64062 14.6268 1.64062 13.9136V13.8724C1.64062 13.0745 2.28618 12.4256 3.08501 12.4256H4.99577C5.18557 12.4256 5.35381 12.5049 5.47413 12.6288C5.85534 11.2277 6.77316 10.4261 7.32227 10.1476Z" fill="white"/>
<path d="M4.82064 16.1644C5.0133 15.9914 5.30966 16.0074 5.48261 16.2L6.22098 17.0225H6.98636C7.24525 17.0225 7.45511 17.2324 7.45511 17.4913C7.45511 17.7502 7.24525 17.96 6.98636 17.96H6.09876C5.91013 17.96 5.73067 17.8798 5.60491 17.7397L4.78497 16.8263C4.61205 16.6337 4.62801 16.3373 4.82064 16.1644Z" fill="white"/>
<path d="M10.9144 20.1487C11.107 19.9758 11.4034 19.9918 11.5764 20.1844L12.3147 21.0069H14.252C14.5109 21.0069 14.7207 21.2168 14.7207 21.4757C14.7207 21.7345 14.5109 21.9444 14.252 21.9444H12.1925C12.0039 21.9444 11.8244 21.8641 11.6987 21.724L10.8787 20.8107C10.7058 20.6181 10.7218 20.3217 10.9144 20.1487Z" fill="white"/>
<path d="M25.8826 20.1487C26.0752 20.3217 26.0912 20.6181 25.9182 20.8107L25.0983 21.724C24.9725 21.8641 24.793 21.9444 24.6045 21.9444H22.5449C22.286 21.9444 22.0762 21.7345 22.0762 21.4757C22.0762 21.2168 22.286 21.0069 22.5449 21.0069H24.4822L25.2205 20.1844C25.3934 19.9918 25.6899 19.9758 25.8826 20.1487Z" fill="white"/>
<path d="M13.9785 23.2363C13.9785 22.9775 14.1884 22.7676 14.4473 22.7676H22.3499C22.6087 22.7676 22.8186 22.9775 22.8186 23.2363C22.8186 23.4951 22.6087 23.7051 22.3499 23.7051H14.4473C14.1884 23.7051 13.9785 23.4951 13.9785 23.2363Z" fill="white"/>
<path fill-rule="evenodd" clip-rule="evenodd" d="M13.416 14.132C13.5143 14.0822 13.6162 14.0625 13.7099 14.0625H23.0869C23.1807 14.0625 23.2826 14.0822 23.3809 14.132C23.9299 14.4105 24.8477 15.212 25.2291 16.6132C25.3493 16.4892 25.5176 16.41 25.7074 16.41H27.618C28.417 16.41 29.0625 17.0588 29.0625 17.8568V17.898C29.0625 18.6111 28.5434 19.2191 27.8379 19.3279L26.8802 19.4757L27.1237 19.8176C27.3694 20.1625 27.5016 20.5756 27.5016 20.9992V23.3342C27.5016 23.8399 27.3171 24.303 27.0117 24.659L27.0136 26.1708C27.0136 26.8605 26.4555 27.4219 25.7644 27.4219H23.2278C22.5367 27.4219 21.9785 26.8359 21.9785 26.0728C21.9785 25.814 22.1884 25.604 22.4473 25.604C22.7062 25.604 22.916 25.814 22.916 26.0728C22.916 26.3318 23.0567 26.4844 23.2278 26.4844H25.7644C25.9355 26.4844 26.0761 26.3451 26.0761 26.1708V25.2761C25.8853 25.3357 25.6823 25.3678 25.4716 25.3678H11.3251C11.1146 25.3678 10.9116 25.3357 10.7207 25.2761V26.1708C10.7207 26.3451 10.8614 26.4844 11.0325 26.4844H13.5691C13.7401 26.4844 13.8808 26.3318 13.8808 26.0728C13.8808 25.814 14.0907 25.604 14.3496 25.604C14.6085 25.604 14.8183 25.814 14.8183 26.0728C14.8183 26.9531 14.2601 27.4219 13.5691 27.4219H11.0325C10.3414 27.4219 9.78319 26.8605 9.78319 26.1708L9.78527 24.659C9.47984 24.303 9.29538 23.8399 9.29538 23.3342V20.9992C9.29538 20.5756 9.42738 20.1625 9.67312 19.8176L9.91671 19.4757L8.95894 19.3279C8.25356 19.2191 7.73438 18.6111 7.73438 17.898V17.8568C7.73438 17.0588 8.37994 16.41 9.17876 16.41H11.0895C11.2793 16.41 11.4476 16.4892 11.5679 16.6132C11.9491 15.212 12.8669 14.4105 13.416 14.132ZM12.2225 17.6198C12.6414 18.047 13.1381 18.2275 13.4061 18.2683H23.3908C23.6587 18.2275 24.1554 18.047 24.5745 17.6198C24.4945 17.5487 24.4385 17.4501 24.4223 17.3361C24.228 15.9726 23.4216 15.2347 23.0154 15H13.7815C13.3753 15.2347 12.5689 15.9726 12.3746 17.3361C12.3583 17.4501 12.3023 17.5487 12.2225 17.6198ZM9.17876 17.3475C8.89992 17.3475 8.67188 17.5744 8.67188 17.8568V17.898C8.67188 18.1503 8.85537 18.3634 9.10186 18.4014L10.4978 18.6167C10.9879 18.6923 11.2233 19.2575 10.9372 19.659L10.4366 20.3616C10.3042 20.5475 10.2329 20.7704 10.2329 20.9992V23.3342C10.2329 23.9407 10.723 24.4303 11.3251 24.4303H25.4716C26.0737 24.4303 26.5641 23.9407 26.5641 23.3342V20.9992C26.5641 20.7704 26.4926 20.5475 26.3602 20.3616L25.8598 19.659C25.5736 19.2575 25.8089 18.6923 26.299 18.6167L27.6949 18.4014C27.9415 18.3634 28.125 18.1503 28.125 17.898V17.8568C28.125 17.5744 27.897 17.3475 27.618 17.3475H25.8844C25.2813 18.6508 24.0823 19.1269 23.4811 19.2022L23.4523 19.2058H13.3447L13.3157 19.2022C12.7147 19.1269 11.5155 18.6508 10.9125 17.3475H9.17876Z" fill="white"/>
</svg>
