<svg width="17" height="18" viewBox="0 0 17 18" fill="none" xmlns="http://www.w3.org/2000/svg">
<path d="M16.2052 15.3503V17.6113H0.793945V15.3498C0.793945 14.2821 1.71444 12.9677 2.83893 12.4335L5.34115 11.2447L7.07813 14.8644L7.96747 12.4531C8.14282 12.4863 8.31667 12.5305 8.49957 12.5305C8.68246 12.5305 8.85581 12.4863 9.03166 12.4531L9.87579 14.7458L11.5786 11.2045L14.1617 12.433C15.2847 12.9672 16.2052 14.2816 16.2052 15.3503ZM3.06704 7.4256V5.79262C3.06704 5.51577 3.21125 5.27309 3.42881 5.13341C3.72073 2.592 5.88229 0.611328 8.50057 0.611328C11.1189 0.611328 13.2809 2.592 13.5733 5.13341C13.7904 5.27309 13.9346 5.51577 13.9346 5.79262V7.4256C13.9346 7.85921 13.5834 8.21093 13.1493 8.21093C12.7151 8.21093 12.3639 7.85921 12.3639 7.4256V7.08242C11.9389 9.22036 10.3737 11.2051 8.50107 11.2051C6.62843 11.2051 5.06329 9.22036 4.63821 7.08242V7.4256C4.63821 7.77732 4.40457 8.07175 4.08552 8.17174C4.39804 9.23543 5.09143 10.1544 6.0491 10.7574C6.22597 10.6991 6.44906 10.7101 6.66561 10.8227C7.01331 11.0036 7.19068 11.3553 7.05903 11.6065C6.92789 11.8577 6.54 11.914 6.19029 11.7326C5.93505 11.5995 5.77326 11.3759 5.75617 11.1669C4.65932 10.4654 3.88152 9.3917 3.56045 8.15315C3.27204 8.03759 3.06704 7.75621 3.06704 7.4256ZM3.96392 4.95001C3.98754 4.95152 4.01015 4.95202 4.03276 4.96056C4.08954 4.98167 4.13074 5.02236 4.15938 5.0701C4.32971 5.14245 4.46537 5.2746 4.54878 5.4384C4.78041 3.2673 6.4586 2.11869 8.49957 2.11869C10.5405 2.11869 12.2187 3.2673 12.4504 5.4384C12.5654 5.21279 12.784 5.05151 13.0458 5.01784C12.7061 2.81057 10.7998 1.11328 8.49957 1.11328C6.22295 1.11378 4.33172 2.7764 3.96392 4.95001Z" fill="black"/>
</svg>
