<svg width="25" height="24" viewBox="0 0 25 24" fill="none" xmlns="http://www.w3.org/2000/svg">
<g clip-path="url(#clip0_1239_4920)">
<path d="M21.875 12.9487V5.595C23.1451 5.412 24.125 4.31962 24.125 3C24.125 1.55288 22.9475 0.375 21.5 0.375C20.0525 0.375 18.875 1.55288 18.875 3H0.875V18H12.1441C12.3391 21.1335 14.9435 23.625 18.125 23.625C21.4333 23.625 24.125 20.9333 24.125 17.625C24.125 15.7354 23.2449 14.0494 21.875 12.9487ZM21.5 1.125C22.5339 1.125 23.375 1.96613 23.375 3C23.375 4.03387 22.5339 4.875 21.5 4.875C20.4661 4.875 19.625 4.03387 19.625 3C19.625 1.96613 20.4661 1.125 21.5 1.125ZM1.625 3.75H18.9856C19.0752 4.04925 19.2178 4.32488 19.4007 4.56938L17.1073 6.86287C16.9602 6.79238 16.7983 6.75 16.625 6.75C16.4517 6.75 16.2898 6.79238 16.1431 6.86287L15.3875 6.10725C15.4576 5.96025 15.5 5.79825 15.5 5.625C15.5 5.00475 14.9952 4.5 14.375 4.5C13.7548 4.5 13.25 5.00475 13.25 5.625C13.25 5.79825 13.2924 5.96025 13.3629 6.10687L11.4823 7.9875C11.3352 7.91737 11.1733 7.875 11 7.875C10.3798 7.875 9.875 8.37975 9.875 9C9.875 9.62025 10.3798 10.125 11 10.125C11.6202 10.125 12.125 9.62025 12.125 9C12.125 8.82675 12.0826 8.66475 12.0121 8.51813L13.8927 6.6375C14.0398 6.70763 14.2017 6.75 14.375 6.75C14.5483 6.75 14.7102 6.70762 14.8569 6.63713L15.6125 7.39275C15.5424 7.53975 15.5 7.70175 15.5 7.875C15.5 8.49525 16.0048 9 16.625 9C17.2453 9 17.75 8.49525 17.75 7.875C17.75 7.70175 17.7076 7.53975 17.6371 7.39313L19.931 5.09963C20.2741 5.35687 20.6814 5.53125 21.125 5.59538V12.4373C20.2411 11.9239 19.2185 11.625 18.125 11.625C16.3325 11.625 14.7253 12.4192 13.625 13.6699V12H11.375V16.5H12.2345C12.188 16.7449 12.1599 16.9958 12.1441 17.25H1.625V3.75ZM16.625 7.5C16.8316 7.5 17 7.668 17 7.875C17 8.082 16.8316 8.25 16.625 8.25C16.4184 8.25 16.25 8.082 16.25 7.875C16.25 7.668 16.4184 7.5 16.625 7.5ZM14 5.625C14 5.418 14.1684 5.25 14.375 5.25C14.5816 5.25 14.75 5.418 14.75 5.625C14.75 5.832 14.5816 6 14.375 6C14.1684 6 14 5.832 14 5.625ZM11.375 9C11.375 9.207 11.2066 9.375 11 9.375C10.7934 9.375 10.625 9.207 10.625 9C10.625 8.793 10.7934 8.625 11 8.625C11.2066 8.625 11.375 8.793 11.375 9ZM18.125 20.625C16.4709 20.625 15.125 19.2791 15.125 17.625C15.125 15.9709 16.4709 14.625 18.125 14.625C19.7791 14.625 21.125 15.9709 21.125 17.625C21.125 19.2791 19.7791 20.625 18.125 20.625ZM12.875 14.7266C12.6954 15.0506 12.5469 15.393 12.4291 15.75H12.125V12.75H12.875V14.7266ZM17.75 12.3941V13.8941C15.8577 14.0831 14.375 15.684 14.375 17.625C14.375 18.1736 14.4965 18.6938 14.7091 19.164L13.4083 19.9151C13.07 19.2221 12.875 18.4466 12.875 17.625C12.875 14.8568 15.0301 12.5876 17.75 12.3941ZM18.125 22.875C16.3197 22.875 14.7245 21.9589 13.7795 20.5669L15.0856 19.8127C15.7674 20.757 16.874 21.375 18.125 21.375C19.376 21.375 20.4826 20.757 21.1644 19.8127L22.4705 20.5669C21.5255 21.9589 19.9303 22.875 18.125 22.875ZM22.8417 19.9151L21.5409 19.164C21.7535 18.6938 21.875 18.1736 21.875 17.625C21.875 15.684 20.3923 14.0827 18.5 13.8941V12.3941C21.2199 12.5876 23.375 14.8568 23.375 17.625C23.375 18.4466 23.18 19.2221 22.8417 19.9151Z" fill="#1845CC"/>
<path d="M18.125 15.375C16.8841 15.375 15.875 16.3841 15.875 17.625C15.875 18.8659 16.8841 19.875 18.125 19.875C19.3659 19.875 20.375 18.8659 20.375 17.625C20.375 16.3841 19.3659 15.375 18.125 15.375ZM18.125 19.125C17.2977 19.125 16.625 18.4523 16.625 17.625C16.625 16.7977 17.2977 16.125 18.125 16.125C18.9523 16.125 19.625 16.7977 19.625 17.625C19.625 18.4523 18.9523 19.125 18.125 19.125Z" fill="#1845CC"/>
<path d="M2.375 4.5H3.125V5.25H2.375V4.5Z" fill="#1845CC"/>
<path d="M3.875 4.5H9.125V5.25H3.875V4.5Z" fill="#1845CC"/>
<path d="M2.375 6H3.125V6.75H2.375V6Z" fill="#1845CC"/>
<path d="M3.875 6H9.125V6.75H3.875V6Z" fill="#1845CC"/>
<path d="M2.375 7.5H3.125V8.25H2.375V7.5Z" fill="#1845CC"/>
<path d="M3.875 7.5H9.125V8.25H3.875V7.5Z" fill="#1845CC"/>
<path d="M2.375 9H3.125V9.75H2.375V9Z" fill="#1845CC"/>
<path d="M3.875 9H9.125V9.75H3.875V9Z" fill="#1845CC"/>
<path d="M2.375 16.5H4.625V12.75H2.375V16.5ZM3.125 13.5H3.875V15.75H3.125V13.5Z" fill="#1845CC"/>
<path d="M5.375 16.5H7.625V13.5H5.375V16.5ZM6.125 14.25H6.875V15.75H6.125V14.25Z" fill="#1845CC"/>
<path d="M8.375 16.5H10.625V10.5H8.375V16.5ZM9.125 11.25H9.875V15.75H9.125V11.25Z" fill="#1845CC"/>
</g>
<defs>
<clipPath id="clip0_1239_4920">
<rect width="24" height="24" fill="white" transform="translate(0.5)"/>
</clipPath>
</defs>
</svg>
