<svg width="21" height="21" viewBox="0 0 21 21" fill="none" xmlns="http://www.w3.org/2000/svg">
<g clip-path="url(#clip0_693_15877)">
<path fill-rule="evenodd" clip-rule="evenodd" d="M4.71664 19.9399C4.87706 20.0877 5.12294 20.0877 5.28336 19.9399C5.28336 19.9399 6.74792 18.586 7.91875 16.6968C8.71875 15.407 9.375 13.8704 9.375 12.3424C9.375 9.92786 7.41458 7.96745 5 7.96745C2.58542 7.96745 0.625 9.92786 0.625 12.3424C0.625 13.8704 1.28125 15.407 2.08125 16.6968C3.25208 18.586 4.71664 19.9399 4.71664 19.9399ZM8.86459 19.2174H7.19793C6.96876 19.2174 6.78126 19.4041 6.78126 19.6341C6.78126 19.8641 6.96876 20.0508 7.19793 20.0508H8.86459C9.09584 20.0508 9.28126 19.8641 9.28126 19.6341C9.28126 19.4041 9.09584 19.2174 8.86459 19.2174ZM12.1979 19.2174C11.625 19.2174 11.0646 19.2174 10.5313 19.2174C10.3021 19.2174 10.1146 19.4041 10.1146 19.6341C10.1146 19.8641 10.3021 20.0508 10.5313 20.0508H12.1979C12.4292 20.0508 12.6146 19.8641 12.6146 19.6341C12.6146 19.4041 12.4292 19.2174 12.1979 19.2174ZM15.5313 19.2174C14.9917 19.2174 14.4292 19.2174 13.8646 19.2174C13.6354 19.2174 13.4479 19.4041 13.4479 19.6341C13.4479 19.8641 13.6354 20.0508 13.8646 20.0508H15.5313C15.7625 20.0508 15.9479 19.8641 15.9479 19.6341C15.9479 19.4041 15.7625 19.2174 15.5313 19.2174ZM18.5458 18.7895C18.15 19.0437 17.6833 19.1974 17.1833 19.2156C16.9542 19.2239 16.7729 19.4172 16.7833 19.647C16.7917 19.877 16.9833 20.0568 17.2146 20.0485C17.8687 20.0247 18.4792 19.8231 18.9958 19.4908C19.1896 19.3664 19.2458 19.1085 19.1208 18.9149C18.9958 18.7214 18.7396 18.6654 18.5458 18.7895ZM19.7854 16.3304C19.7896 16.3895 19.7917 16.4491 19.7917 16.5091C19.7917 16.9481 19.6875 17.3627 19.5021 17.7293C19.3979 17.9345 19.4812 18.1854 19.6854 18.2891C19.8917 18.3929 20.1417 18.3106 20.2458 18.1054C20.4875 17.6256 20.625 17.0833 20.625 16.5091C20.625 16.431 20.6229 16.3533 20.6167 16.2764C20.6021 16.0468 20.4042 15.8727 20.175 15.8877C19.9459 15.9024 19.7708 16.101 19.7854 16.3304ZM18.2333 14.0562C18.6729 14.2627 19.0479 14.5843 19.3208 14.982C19.45 15.1718 19.7104 15.2204 19.9 15.0906C20.0896 14.9608 20.1375 14.7012 20.0083 14.5114C19.6521 13.9918 19.1625 13.5718 18.5875 13.3018C18.3792 13.2041 18.1313 13.2937 18.0333 13.5018C17.9354 13.7099 18.025 13.9583 18.2333 14.0562ZM5 10.4674C6.03542 10.4674 6.875 11.3077 6.875 12.3424C6.875 13.3772 6.03542 14.2174 5 14.2174C3.96458 14.2174 3.125 13.3772 3.125 12.3424C3.125 11.3077 3.96458 10.4674 5 10.4674ZM11.6271 13.3022C12.0583 13.6239 12.5833 13.8008 13.125 13.8008H13.4542C13.6833 13.8008 13.8708 13.6141 13.8708 13.3841C13.8708 13.1541 13.6833 12.9674 13.4542 12.9674H13.125C12.7625 12.9674 12.4125 12.8495 12.1271 12.6349C11.9437 12.4972 11.6812 12.5347 11.5437 12.7189C11.4062 12.9031 11.4438 13.1643 11.6271 13.3022ZM15.1208 13.8008H16.7875C17.0167 13.8008 17.2042 13.6141 17.2042 13.3841C17.2042 13.1541 17.0167 12.9674 16.7875 12.9674H15.1208C14.8896 12.9674 14.7042 13.1541 14.7042 13.3841C14.7042 13.6141 14.8896 13.8008 15.1208 13.8008ZM11.1667 9.74516C10.8271 10.1724 10.625 10.7131 10.625 11.3008C10.625 11.4085 10.6313 11.5154 10.6459 11.6208C10.675 11.8489 10.8834 12.0102 11.1125 11.9808C11.3396 11.9512 11.5021 11.7422 11.4729 11.5141C11.4625 11.4437 11.4583 11.3724 11.4583 11.3008C11.4583 10.9089 11.5937 10.5483 11.8208 10.2635C11.9625 10.0835 11.9333 9.82099 11.7521 9.67807C11.5729 9.53495 11.3104 9.56495 11.1667 9.74516ZM14.5833 8.79724C14.5833 8.79724 13.8937 8.79786 13.1229 8.7987C13.0396 8.7987 12.9563 8.80307 12.875 8.8112C12.6458 8.83391 12.4792 9.03828 12.5021 9.26703C12.525 9.49578 12.7292 9.66307 12.9583 9.64036C13.0125 9.63495 13.0687 9.63203 13.125 9.63203C13.8937 9.6312 14.5833 9.63057 14.5833 9.63057C14.8146 9.63036 15 9.44349 15 9.21349C15 8.98349 14.8125 8.79703 14.5833 8.79724ZM16.8 9.5262C16.9583 9.67016 17.2 9.67016 17.3583 9.5262C17.3583 9.5262 18.5229 8.47307 19.4541 7.00349C20.0937 5.99224 20.6167 4.78641 20.6167 3.58849C20.6167 1.63599 19.0312 0.0507812 17.0792 0.0507812C15.1271 0.0507812 13.5417 1.63599 13.5417 3.58849C13.5417 4.78641 14.0646 5.99224 14.7042 7.00349C15.6354 8.47307 16.8 9.5262 16.8 9.5262ZM17.0792 2.13411C17.8854 2.13411 18.5375 2.78766 18.5375 3.59245C18.5375 4.39724 17.8854 5.05078 17.0792 5.05078C16.275 5.05078 15.6208 4.39724 15.6208 3.59245C15.6208 2.78766 16.275 2.13411 17.0792 2.13411Z" fill="black"/>
</g>
<defs>
<clipPath id="clip0_693_15877">
<rect width="20" height="20" fill="white" transform="translate(0.625 0.0507812)"/>
</clipPath>
</defs>
</svg>
