<svg width="12" height="12" viewBox="0 0 12 12" fill="none" xmlns="http://www.w3.org/2000/svg">
<g clip-path="url(#clip0_279_21837)">
<path d="M4.93862 9.06101C5.52423 9.64699 6.47397 9.6473 7.05995 9.06169C7.06019 9.06145 7.0604 9.06124 7.06063 9.06101L8.66612 7.45552C8.85133 7.2507 8.83541 6.9345 8.63059 6.7493C8.43988 6.57687 8.14949 6.57717 7.95913 6.75L6.49614 8.21351L6.49963 0.500016C6.49961 0.223852 6.27576 0 5.99962 0C5.72347 0 5.49962 0.223852 5.49962 0.499992L5.49512 8.20399L4.04012 6.75C3.84475 6.55477 3.52811 6.55488 3.33287 6.75026C3.13764 6.94563 3.13776 7.26227 3.33313 7.45751L4.93862 9.06101Z" fill="white"/>
<path d="M11.5 8C11.2239 8 11 8.22385 11 8.49999V10.5C11 10.7761 10.7762 11 10.5 11H1.5C1.22386 11 1.00001 10.7761 1.00001 10.5V8.50002C1.00001 8.22387 0.776156 8.00002 0.500016 8.00002C0.223852 8 0 8.22387 0 8.50002V10.5C0 11.3284 0.671578 12 1.5 12H10.5C11.3284 12 12 11.3284 12 10.5V8.50002C12 8.22387 11.7761 8 11.5 8Z" fill="white"/>
</g>
<defs>
<clipPath id="clip0_279_21837">
<rect width="12" height="12" fill="white"/>
</clipPath>
</defs>
</svg>
