<svg width="21" height="21" viewBox="0 0 21 21" fill="none" xmlns="http://www.w3.org/2000/svg">
<path d="M5.4326 6.61845C5.60602 6.55973 5.78897 6.52014 5.98216 6.52014C6.92905 6.52014 7.7005 7.2916 7.7005 8.23848C7.7005 8.41734 7.66501 8.58666 7.61448 8.74846C8.6392 9.64824 9.866 10.5883 11.2109 11.3563C11.7666 10.4388 12.2875 9.4482 12.7743 8.39276C12.4766 8.0835 12.2909 7.66502 12.2909 7.20282C12.2909 6.27162 13.0364 5.5152 13.9615 5.48925C14.1765 4.87825 14.3117 4.43382 14.3629 4.25902V3.05341C13.1245 2.30109 11.6772 1.85938 10.1254 1.85938C7.61515 1.85938 5.36773 2.99606 3.86377 4.77994L4.43656 5.47357C4.44952 5.48928 4.81066 5.9453 5.4326 6.61845Z" fill="#0D1320"/>
<path d="M15.7277 4.09082V4.35435C15.7277 4.41512 15.7195 4.47586 15.7031 4.53458C15.6963 4.56054 15.5448 5.11077 15.2314 5.99759C15.5379 6.30822 15.7277 6.73352 15.7277 7.20253C15.7277 8.14122 14.9706 8.90382 14.0353 8.91882C13.5356 10.0057 13.001 11.0318 12.429 11.9834C13.7588 12.5938 15.1707 12.9938 16.5989 12.9938H17.7615C18.1151 12.079 18.3172 11.0891 18.3172 10.0514C18.3172 7.70159 17.3177 5.58592 15.7277 4.09082Z" fill="#0D1320"/>
<path d="M7.62925 14.9715C7.62925 14.0239 8.40071 13.2525 9.34827 13.2525C9.53055 13.2525 9.70259 13.2887 9.86781 13.3419C10.074 13.0682 10.2815 12.7985 10.4802 12.507C9.06838 11.6953 7.79105 10.719 6.72262 9.78236C6.49733 9.89091 6.24814 9.95712 5.98189 9.95712C5.0343 9.95712 4.26288 9.18637 4.26288 8.23878C4.26288 7.98686 4.32022 7.74929 4.41853 7.53357C3.76586 6.82631 3.39106 6.3532 3.37334 6.32996L3.05044 5.93945C2.34453 7.14987 1.93286 8.55146 1.93286 10.0513C1.93286 13.017 3.52217 15.6119 5.88838 17.0496L6.89332 16.4755C7.19711 16.2345 7.49683 15.9676 7.79243 15.6904C7.69002 15.4706 7.62925 15.2289 7.62925 14.9715Z" fill="#0D1320"/>
<path d="M11.6936 13.1445C11.4363 13.5269 11.1693 13.8887 10.8997 14.2437C11.0041 14.4655 11.0669 14.7106 11.0669 14.9714C11.0669 15.919 10.2962 16.6904 9.34859 16.6904C9.16222 16.6904 8.98608 16.6529 8.81814 16.5976C8.45153 16.9464 8.07878 17.2803 7.69921 17.5793C7.67326 17.6005 7.64529 17.6189 7.61591 17.636L7.39062 17.7643C8.2474 18.0695 9.16564 18.2436 10.1255 18.2436C13.0611 18.2436 15.6335 16.6864 17.0801 14.3597H16.5995C14.8962 14.3597 13.2338 13.8736 11.6936 13.1445Z" fill="#0D1320"/>
</svg>
