<svg width="24" height="25" viewBox="0 0 24 25" fill="none" xmlns="http://www.w3.org/2000/svg">
<path d="M20.8657 8.31322L8.25072 20.9282C7.9721 21.2071 7.64123 21.4284 7.27704 21.5794C6.91285 21.7304 6.52247 21.8081 6.12822 21.8081C5.73397 21.8081 5.34359 21.7304 4.9794 21.5794C4.6152 21.4284 4.28434 21.2071 4.00572 20.9282L3.13572 20.0207C2.85679 19.7421 2.63551 19.4112 2.48454 19.047C2.33357 18.6828 2.25586 18.2925 2.25586 17.8982C2.25586 17.504 2.33357 17.1136 2.48454 16.7494C2.63551 16.3852 2.85679 16.0543 3.13572 15.7757L15.7507 3.19822C16.0293 2.91929 16.3602 2.69801 16.7244 2.54704C17.0886 2.39607 17.479 2.31836 17.8732 2.31836C18.2675 2.31836 18.6578 2.39607 19.022 2.54704C19.3862 2.69801 19.7171 2.91929 19.9957 3.19822L20.9032 4.10572C21.4502 4.67174 21.7528 5.43006 21.7458 6.21715C21.7388 7.00423 21.4227 7.75703 20.8657 8.31322Z" fill="#CBD5E1"/>
<path d="M18.2103 12.0628L21.3903 8.88283C22.0933 8.1796 22.4883 7.22595 22.4883 6.23158C22.4883 5.23722 22.0933 4.28356 21.3903 3.58033L20.4828 2.66533C19.7796 1.96232 18.8259 1.56738 17.8316 1.56738C16.8372 1.56738 15.8836 1.96232 15.1803 2.66533L12.0003 5.85283L8.82033 2.66533C8.1171 1.96232 7.16345 1.56738 6.16908 1.56738C5.17472 1.56738 4.22106 1.96232 3.51783 2.66533L2.60283 3.57283C1.89982 4.27606 1.50488 5.22972 1.50488 6.22408C1.50488 7.21845 1.89982 8.1721 2.60283 8.87533L5.79033 12.0628L2.60283 15.2428C1.89982 15.9461 1.50488 16.8997 1.50488 17.8941C1.50488 18.8884 1.89982 19.8421 2.60283 20.5453L3.51033 21.4528C4.21356 22.1558 5.16722 22.5508 6.16158 22.5508C7.15595 22.5508 8.1096 22.1558 8.81283 21.4528L12.0003 18.2728L15.1803 21.4528C15.8836 22.1558 16.8372 22.5508 17.8316 22.5508C18.8259 22.5508 19.7796 22.1558 20.4828 21.4528L21.3903 20.5453C22.0933 19.8421 22.4883 18.8884 22.4883 17.8941C22.4883 16.8997 22.0933 15.9461 21.3903 15.2428L18.2103 12.0628ZM3.00033 6.22783C3.00158 5.93193 3.06117 5.63918 3.17571 5.36635C3.29025 5.09351 3.45748 4.84595 3.66783 4.63783L4.57533 3.73033C4.78436 3.52057 5.03275 3.35414 5.30624 3.24058C5.57973 3.12701 5.87295 3.06856 6.16908 3.06856C6.46521 3.06856 6.75843 3.12701 7.03192 3.24058C7.30542 3.35414 7.5538 3.52057 7.76283 3.73033L10.9428 6.91033L6.84783 11.0053L3.66783 7.81783C3.45748 7.60972 3.29025 7.36215 3.17571 7.08932C3.06117 6.81648 3.00158 6.52373 3.00033 6.22783ZM7.74783 20.3953C7.5388 20.6051 7.29041 20.7715 7.01692 20.8851C6.74343 20.9986 6.45021 21.0571 6.15408 21.0571C5.85795 21.0571 5.56473 20.9986 5.29124 20.8851C5.01775 20.7715 4.76936 20.6051 4.56033 20.3953L3.66783 19.4878C3.45807 19.2788 3.29164 19.0304 3.17808 18.7569C3.06451 18.4834 3.00606 18.1902 3.00606 17.8941C3.00606 17.5979 3.06451 17.3047 3.17808 17.0312C3.29164 16.7577 3.45807 16.5094 3.66783 16.3003L16.2453 3.73033C16.4544 3.52057 16.7027 3.35414 16.9762 3.24058C17.2497 3.12701 17.543 3.06856 17.8391 3.06856C18.1352 3.06856 18.4284 3.12701 18.7019 3.24058C18.9754 3.35414 19.2238 3.52057 19.4328 3.73033L20.3328 4.63783C20.5426 4.84686 20.709 5.09525 20.8226 5.36874C20.9361 5.64223 20.9946 5.93545 20.9946 6.23158C20.9946 6.52771 20.9361 6.82093 20.8226 7.09442C20.709 7.36792 20.5426 7.6163 20.3328 7.82533L7.74783 20.3953ZM20.3328 19.4878L19.4253 20.3953C19.2163 20.6051 18.9679 20.7715 18.6944 20.8851C18.4209 20.9986 18.1277 21.0571 17.8316 21.0571C17.5354 21.0571 17.2422 20.9986 16.9687 20.8851C16.6952 20.7715 16.4469 20.6051 16.2378 20.3953L13.0578 17.2153L17.1528 13.1203L20.3328 16.3003C20.5426 16.5094 20.709 16.7577 20.8226 17.0312C20.9361 17.3047 20.9946 17.5979 20.9946 17.8941C20.9946 18.1902 20.9361 18.4834 20.8226 18.7569C20.709 19.0304 20.5426 19.2788 20.3328 19.4878Z" fill="#102C57"/>
<path d="M9.75 13.5625C10.1642 13.5625 10.5 13.2267 10.5 12.8125C10.5 12.3983 10.1642 12.0625 9.75 12.0625C9.33579 12.0625 9 12.3983 9 12.8125C9 13.2267 9.33579 13.5625 9.75 13.5625Z" fill="#102C57"/>
<path d="M11.25 12.0625C11.6642 12.0625 12 11.7267 12 11.3125C12 10.8983 11.6642 10.5625 11.25 10.5625C10.8358 10.5625 10.5 10.8983 10.5 11.3125C10.5 11.7267 10.8358 12.0625 11.25 12.0625Z" fill="#102C57"/>
<path d="M12.75 10.5625C13.1642 10.5625 13.5 10.2267 13.5 9.8125C13.5 9.39829 13.1642 9.0625 12.75 9.0625C12.3358 9.0625 12 9.39829 12 9.8125C12 10.2267 12.3358 10.5625 12.75 10.5625Z" fill="#102C57"/>
<path d="M11.25 15.0625C11.6642 15.0625 12 14.7267 12 14.3125C12 13.8983 11.6642 13.5625 11.25 13.5625C10.8358 13.5625 10.5 13.8983 10.5 14.3125C10.5 14.7267 10.8358 15.0625 11.25 15.0625Z" fill="#102C57"/>
<path d="M12.75 13.5625C13.1642 13.5625 13.5 13.2267 13.5 12.8125C13.5 12.3983 13.1642 12.0625 12.75 12.0625C12.3358 12.0625 12 12.3983 12 12.8125C12 13.2267 12.3358 13.5625 12.75 13.5625Z" fill="#102C57"/>
<path d="M14.25 12.0625C14.6642 12.0625 15 11.7267 15 11.3125C15 10.8983 14.6642 10.5625 14.25 10.5625C13.8358 10.5625 13.5 10.8983 13.5 11.3125C13.5 11.7267 13.8358 12.0625 14.25 12.0625Z" fill="#102C57"/>
</svg>
