<svg width="74" height="50" viewBox="0 0 74 50" fill="none" xmlns="http://www.w3.org/2000/svg">
<g clip-path="url(#clip0_1712_10998)">
<path fill-rule="evenodd" clip-rule="evenodd" d="M25.0353 14.1416C31.0975 14.1462 36.0075 19.0322 36.0029 25.0555C35.9982 31.0787 31.0806 35.957 25.0183 35.9524C18.9561 35.9478 14.0462 31.0618 14.0508 25.0386C14.0554 19.0154 18.9731 14.137 25.0353 14.1416" fill="#F9C900"/>
<path fill-rule="evenodd" clip-rule="evenodd" d="M22.4174 39.5917C22.4174 39.7235 22.4005 39.8553 22.365 39.9886L20.5432 46.7214C20.3226 47.5368 19.4789 48.0196 18.6582 47.8004C17.8361 47.5812 17.3502 46.7429 17.5707 45.9275L19.3925 39.1947C19.6131 38.3793 20.4569 37.8966 21.2775 38.1142C21.9655 38.2981 22.4174 38.9173 22.4174 39.5917" fill="#F9C900"/>
<path fill-rule="evenodd" clip-rule="evenodd" d="M14.7907 36.8264C14.7907 37.2386 14.6241 37.6494 14.294 37.9498L9.13413 42.6749C8.50939 43.2465 7.53604 43.2067 6.96067 42.586C6.38375 41.9653 6.42386 40.9982 7.04859 40.425L12.2084 35.7014C12.8347 35.1297 13.8081 35.1681 14.3834 35.7903C14.6565 36.083 14.7907 36.4555 14.7907 36.8264" fill="#F9C900"/>
<mask id="mask0_1712_10998" style="mask-type:luminance" maskUnits="userSpaceOnUse" x="0" y="27" width="11" height="6">
<path fill-rule="evenodd" clip-rule="evenodd" d="M0.75293 27.8755V32.6789H10.6245V27.8755L0.75293 27.8755V27.8755Z" fill="white"/>
</mask>
<g mask="url(#mask0_1712_10998)">
<path fill-rule="evenodd" clip-rule="evenodd" d="M10.6248 29.4067C10.6248 30.0872 10.1635 30.7064 9.47094 30.8842L2.67753 32.6298C1.85535 32.8413 1.01466 32.3493 0.801789 31.5325C0.590459 30.7156 1.08408 29.8803 1.9078 29.6688L8.7012 27.9246C9.52338 27.7131 10.3625 28.2036 10.5754 29.022C10.6093 29.1507 10.6248 29.2795 10.6248 29.4067" fill="#F9C900"/>
</g>
<path fill-rule="evenodd" clip-rule="evenodd" d="M10.8401 20.8392C10.8401 20.9649 10.8247 21.0921 10.7907 21.2209C10.5794 22.0378 9.74024 22.5297 8.91806 22.3198L2.12157 20.5818C1.29939 20.3718 0.804231 19.5365 1.01556 18.7196C1.22689 17.9027 2.06604 17.4107 2.88976 17.6207L9.68471 19.3587C10.3789 19.5365 10.8401 20.1572 10.8401 20.8392" fill="#F9C900"/>
<path fill-rule="evenodd" clip-rule="evenodd" d="M14.7528 13.3956C14.7528 13.7787 14.6094 14.1619 14.3194 14.4577C13.7286 15.0646 12.7537 15.0799 12.1428 14.4929L7.10333 9.64218C6.49247 9.05518 6.47705 8.08809 7.06785 7.48117C7.65864 6.87425 8.63354 6.85892 9.24439 7.44592L14.2839 12.2952C14.597 12.5956 14.7528 12.9956 14.7528 13.3956" fill="#F9C900"/>
<path fill-rule="evenodd" clip-rule="evenodd" d="M21.9063 9.14392C21.9063 9.82748 21.4405 10.4497 20.7433 10.6244C19.9195 10.8313 19.0819 10.3348 18.8752 9.51482L17.1599 2.7544C16.9532 1.93444 17.453 1.10529 18.2767 0.898383C19.1004 0.693011 19.9381 1.18958 20.1448 2.00801L21.8601 8.76843C21.8909 8.89411 21.9063 9.01978 21.9063 9.14392" fill="#F9C900"/>
<path fill-rule="evenodd" clip-rule="evenodd" d="M32.2068 2.88106C32.2068 3.0098 32.1898 3.14007 32.1559 3.27035L30.3727 10.0124C30.1567 10.8293 29.3145 11.3166 28.4923 11.1021C27.6717 10.8875 27.1796 10.0507 27.3956 9.23534L29.1788 2.49177C29.3947 1.67641 30.2369 1.18751 31.0591 1.40207C31.7502 1.58292 32.2068 2.20211 32.2068 2.88106" fill="#F9C900"/>
<path fill-rule="evenodd" clip-rule="evenodd" d="M43.3658 8.70122C43.3658 9.12729 43.1869 9.55183 42.8368 9.85376L37.5427 14.4302C36.9026 14.9835 35.9292 14.916 35.3723 14.28C34.8139 13.6424 34.8818 12.6769 35.5235 12.122L40.8176 7.54715C41.4577 6.99234 42.4295 7.05978 42.9879 7.69735C43.2424 7.98702 43.3658 8.34565 43.3658 8.70122" fill="#F9C900"/>
<path fill-rule="evenodd" clip-rule="evenodd" d="M48.821 18.9079C48.821 19.5792 48.3722 20.1938 47.6888 20.3808L40.9232 22.2246C40.1025 22.4483 39.2557 21.9701 39.032 21.1548C38.8068 20.3394 39.2881 19.4995 40.1087 19.2758L46.8743 17.432C47.695 17.2083 48.5403 17.6864 48.7655 18.5018C48.8025 18.6367 48.821 18.7731 48.821 18.9079" fill="#F9C900"/>
<path fill-rule="evenodd" clip-rule="evenodd" d="M48.7058 30.829C48.7058 30.9547 48.6904 31.0819 48.6565 31.2106C48.4451 32.0275 47.606 32.5195 46.7838 32.3095L39.9873 30.5715C39.1651 30.3615 38.6684 29.5278 38.8813 28.7094C39.0926 27.8925 39.9318 27.4005 40.7555 27.6105L47.5505 29.3485C48.2446 29.5262 48.7058 30.147 48.7058 30.829" fill="#F9C900"/>
<path fill-rule="evenodd" clip-rule="evenodd" d="M42.9557 41.3234C42.9557 41.7203 42.8014 42.1158 42.4929 42.4146C41.8851 43.0062 40.9102 42.9955 40.3164 42.3916L35.411 37.406C34.8171 36.8021 34.8279 35.8351 35.4357 35.245C36.0435 34.6534 37.0184 34.6641 37.6123 35.268L42.5176 40.2536C42.8107 40.551 42.9557 40.9372 42.9557 41.3234" fill="#F9C900"/>
<path fill-rule="evenodd" clip-rule="evenodd" d="M32.3654 46.9618C32.3654 47.6362 31.9135 48.2523 31.227 48.4362C30.4064 48.6554 29.5611 48.1726 29.3405 47.3573L27.5141 40.626C27.2935 39.8106 27.7794 38.9723 28.6001 38.7516C29.4207 38.5324 30.266 39.0152 30.4866 39.8305L32.3114 46.5618C32.3485 46.6952 32.3654 46.83 32.3654 46.9618" fill="#F9C900"/>
<mask id="mask1_1712_10998" style="mask-type:luminance" maskUnits="userSpaceOnUse" x="13" y="15" width="60" height="34">
<path fill-rule="evenodd" clip-rule="evenodd" d="M13.8838 48.8748H72.6535V15.3369H13.8838V48.8748V48.8748Z" fill="white"/>
</mask>
<g mask="url(#mask1_1712_10998)">
<path fill-rule="evenodd" clip-rule="evenodd" d="M22.7843 31.0126C17.8775 31.0126 13.8838 35.0189 13.8838 39.9448C13.8838 44.8676 17.8775 48.8754 22.7843 48.8754H61.4823C67.6433 48.8754 72.6535 43.8453 72.6535 37.6627C72.6535 31.4801 67.6433 26.45 61.4823 26.45C60.3362 26.45 59.1963 26.6278 58.098 26.9757L57.3822 27.2041L57.1293 26.4929C54.7645 19.8199 48.4431 15.3369 41.4014 15.3369C32.7924 15.3369 25.6473 21.8107 24.7804 30.395L24.7002 31.1904L23.9104 31.0923C23.4723 31.0372 23.1144 31.0126 22.7843 31.0126" fill="#D6E3F2"/>
</g>
</g>
<defs>
<clipPath id="clip0_1712_10998">
<rect width="73.225" height="48.575" fill="white" transform="translate(0.750977 0.852051)"/>
</clipPath>
</defs>
</svg>
