<svg width="24" height="25" viewBox="0 0 24 25" fill="none" xmlns="http://www.w3.org/2000/svg">
<g clip-path="url(#clip0_279_20611)">
<path d="M0.763609 18.5544L0.992394 18.3597L5.64496 14.4011C5.64496 14.4011 5.64497 14.4011 5.64497 14.4011C6.05547 14.0518 6.65605 14.0486 7.07028 14.3925C7.07028 14.3925 7.07029 14.3925 7.07029 14.3925L9.98463 16.8125L0.763609 18.5544ZM0.763609 18.5544V18.8547M0.763609 18.5544V18.8547M0.763609 18.8547V21.4332C0.763609 22.7037 1.79625 23.7363 3.0668 23.7363H20.9332C22.2037 23.7363 23.2363 22.7038 23.2363 21.4332L23.2364 15.8611L23.2364 15.6304L23.091 15.4513L18.6296 9.95813C18.6296 9.95811 18.6296 9.95809 18.6296 9.95806C18.3583 9.62401 18.0039 9.55922 17.8265 9.55013L17.8264 9.55013M0.763609 18.8547L17.8264 9.55013M17.8264 9.55013C17.6489 9.54106 17.2899 9.56921 16.9859 9.87378L10.0613 16.8089M17.8264 9.55013L10.0613 16.8089M10.0613 16.8089C10.0405 16.8298 10.0073 16.8313 9.98468 16.8126L10.0613 16.8089ZM22.0818 14.0284L23.2363 15.4501V13.6187V3.56684C23.2363 2.29631 22.2038 1.26366 20.9332 1.26366H3.0668C1.79623 1.26366 0.763609 2.29628 0.763609 3.56684V16.9987V18.4052L1.83482 17.4937L5.57132 14.3146L5.15011 13.8195L5.57132 14.3146C6.02497 13.9286 6.68476 13.9247 7.14296 14.3052L7.14297 14.3052L9.56125 16.3132L10.0175 16.6921L10.4365 16.2724L16.9056 9.79333L16.9056 9.79331C17.149 9.5495 17.4875 9.41925 17.8323 9.43655C18.177 9.45425 18.5002 9.61843 18.7177 9.88627L18.7178 9.88629L22.0818 14.0284ZM3.0668 1.15H20.9332C22.2653 1.15 23.35 2.23475 23.35 3.56684V21.4332C23.35 22.7652 22.2653 23.85 20.9332 23.85H3.0668C1.73473 23.85 0.65 22.7652 0.65 21.4332V3.56684C0.65 2.23475 1.73473 1.15 3.0668 1.15Z" fill="black" stroke="black" stroke-width="1.3"/>
<path d="M7.55491 3.45312C5.67545 3.45312 4.14648 4.98219 4.14648 6.86155C4.14648 8.74095 5.6755 10.27 7.55491 10.27C9.43431 10.27 10.9633 8.74095 10.9633 6.86155C10.9633 4.98214 9.43436 3.45312 7.55491 3.45312ZM7.55491 8.85636C6.45494 8.85636 5.56009 7.96147 5.56009 6.86155C5.56009 5.76158 6.45494 4.86673 7.55491 4.86673C8.65488 4.86673 9.54972 5.76162 9.54972 6.86155C9.54972 7.96147 8.65488 8.85636 7.55491 8.85636Z" fill="black"/>
</g>
<defs>
<clipPath id="clip0_279_20611">
<rect width="24" height="24" fill="white" transform="translate(0 0.5)"/>
</clipPath>
</defs>
</svg>
