<svg width="17" height="20" viewBox="0 0 17 20" fill="none" xmlns="http://www.w3.org/2000/svg">
<path d="M12.824 0.839844H3.35971C2.46891 0.840666 1.61483 1.1949 0.984944 1.82479C0.355054 2.45468 0.000822149 3.30875 0 4.19955V6.94756C0.0395762 7.1616 0.152864 7.35504 0.320193 7.49426C0.487522 7.63349 0.698325 7.70972 0.916002 7.70972C1.13368 7.70972 1.34448 7.63349 1.51181 7.49426C1.67914 7.35504 1.79243 7.1616 1.832 6.94756V4.19955C1.83282 3.79463 1.99404 3.40653 2.28036 3.12021C2.56669 2.83389 2.95479 2.67267 3.35971 2.67185H12.824C13.2289 2.67267 13.617 2.83389 13.9034 3.12021C14.1897 3.40653 14.3509 3.79463 14.3517 4.19955V15.8002C14.3509 16.2051 14.1897 16.5932 13.9034 16.8795C13.617 17.1658 13.2289 17.3271 12.824 17.3279H3.35971C2.95479 17.3271 2.56669 17.1658 2.28036 16.8795C1.99404 16.5932 1.83282 16.2051 1.832 15.8002V13.0522C1.832 12.8092 1.7355 12.5762 1.56371 12.4045C1.39193 12.2327 1.15894 12.1362 0.916002 12.1362C0.673063 12.1362 0.440074 12.2327 0.268291 12.4045C0.096507 12.5762 0 12.8092 0 13.0522L0 15.8002C0.000822149 16.691 0.355054 17.545 0.984944 18.1749C1.61483 18.8048 2.46891 19.1591 3.35971 19.1599H12.824C13.7148 19.1591 14.5689 18.8048 15.1988 18.1749C15.8287 17.545 16.1829 16.691 16.1837 15.8002V4.19955C16.1829 3.30875 15.8287 2.45468 15.1988 1.82479C14.5689 1.1949 13.7148 0.840666 12.824 0.839844Z" fill="#001A88"/>
<path d="M0 10.0002C0 10.2472 0.0981427 10.4842 0.272838 10.6589C0.447533 10.8335 0.684471 10.9317 0.931527 10.9317H8.62905L6.52069 13.0152C6.39602 13.1944 6.33825 13.4117 6.35748 13.6292C6.37671 13.8467 6.47172 14.0505 6.62591 14.2051C6.7801 14.3596 6.98368 14.4551 7.20111 14.4749C7.41854 14.4946 7.63599 14.4374 7.81551 14.3131L11.4888 10.6491C11.6577 10.4753 11.7521 10.2425 11.7521 10.0002C11.7521 9.75783 11.6577 9.52504 11.4888 9.3512L7.82483 5.68719C7.6457 5.55655 7.42585 5.49409 7.20479 5.51102C6.98374 5.52796 6.77597 5.62318 6.61882 5.77957C6.46168 5.93596 6.36547 6.14328 6.34748 6.36425C6.3295 6.58522 6.39091 6.80537 6.52069 6.98512L8.62284 9.08416H0.931527C0.687137 9.08413 0.452523 9.18013 0.278267 9.35149C0.104011 9.52284 0.00407316 9.75581 0 10.0002Z" fill="#001A88"/>
</svg>
