<svg width="21" height="21" viewBox="0 0 21 21" fill="none" xmlns="http://www.w3.org/2000/svg">
<g clip-path="url(#clip0_693_15945)">
<path d="M12.3088 5.91167L10.6649 8.06539L11.7172 5.55217C11.7434 5.42144 11.8479 5.34627 11.9231 5.34627C11.9493 5.34627 11.9721 5.37242 12.0244 5.39529L12.178 5.47046L12.3316 5.54563C12.4656 5.6306 12.4395 5.75479 12.3088 5.91167ZM10.0799 8.27129L10.5407 4.65342C10.5897 4.3985 10.5145 4.21875 10.3348 4.21875H10.1027C10.0537 4.21875 9.82168 4.21875 9.82168 4.21875C9.64193 4.21875 9.56676 4.37235 9.61578 4.65342L10.0799 8.27129ZM10.7204 12.1931C10.874 12.5526 10.9263 12.7847 10.9263 13.1147V16.1149V16.5267C10.9263 16.6575 10.825 16.7817 10.6714 16.7817H9.33799C9.18439 16.7817 9.08307 16.6803 9.08307 16.5267V16.1149V15.6802H1.97479V16.1149V16.5267C1.97479 16.6575 1.87347 16.7817 1.71987 16.7817H0.379918C0.226313 16.7817 0.125 16.6803 0.125 16.5267V16.1149V13.1147C0.125 12.7781 0.174023 12.5232 0.330895 12.1931L1.99767 8.70596C2.17741 8.29417 2.69052 7.96408 3.15133 7.96408H7.87058C8.33139 7.96408 8.84776 8.3007 9.05366 8.70596L10.7204 12.1931ZM1.61202 12.0428H9.40662L8.2791 9.63412C8.04706 9.17331 7.84443 9.06872 7.35748 9.06872H3.66444C3.58927 9.06872 3.53371 9.06872 3.48469 9.06872C3.12519 9.11775 2.94544 9.24847 2.76895 9.63412L1.61202 12.0428ZM2.69052 13.7847C2.69052 13.3239 2.30487 12.9644 1.84406 12.9644C1.38325 12.9644 1.02375 13.3239 1.02375 13.7847C1.02375 14.2455 1.38325 14.6312 1.84406 14.6312C2.30487 14.6312 2.69052 14.2488 2.69052 13.7847ZM10.0243 13.7847C10.0243 13.3239 9.63866 12.9644 9.17785 12.9644C8.71704 12.9644 8.35754 13.3239 8.35754 13.7847C8.35754 14.2455 8.71704 14.6312 9.17785 14.6312C9.63866 14.6344 10.0243 14.2488 10.0243 13.7847ZM9.51447 8.29417L8.46212 5.78094C8.4131 5.65021 8.33139 5.57504 8.25622 5.57504C8.23008 5.57504 8.2072 5.57504 8.18106 5.57504C8.15491 5.57504 8.15491 5.60119 8.13203 5.60119L7.97843 5.67636L7.8477 5.77767C7.71697 5.85284 7.74639 5.98357 7.87385 6.13717L9.51447 8.29417ZM20.0511 13.2193L19.2798 16.1182L19.1784 16.5038C19.1523 16.6346 18.9987 16.7097 18.8712 16.6836L17.5901 16.347C17.4594 16.3208 17.3842 16.1672 17.4104 16.0397L17.5117 15.6541L17.6424 15.2423L11.3054 13.5494V13.0624C11.3054 12.8565 11.2793 12.6277 11.2303 12.4218C11.5669 12.3957 11.8709 12.1669 11.9721 11.8042C12.1029 11.3695 11.8185 10.9087 11.3806 10.778C11.0995 10.729 10.8152 10.8041 10.6093 10.9839L10.0177 9.75177C10.0439 9.72563 10.0668 9.6766 10.0929 9.65046L12.6061 6.72544C12.8382 6.44438 13.2238 6.29077 13.5833 6.26463C13.714 6.26463 13.8154 6.26463 13.9199 6.29077L18.4104 7.44444C18.8712 7.57517 19.283 8.03598 19.3582 8.47065L20.0739 12.2683C20.1557 12.6539 20.1328 12.9154 20.0511 13.2193ZM18.9497 11.8892L18.4627 9.27462C18.3614 8.76478 18.1817 8.60791 17.7209 8.47718L14.1553 7.5C13.9755 7.45098 13.8481 7.45098 13.7206 7.45098C13.5147 7.47712 13.335 7.60458 13.1291 7.83662L11.3839 9.85962L18.9497 11.8892ZM18.4627 12.7095C18.4137 12.6833 18.3614 12.6833 18.3092 12.6833C18.2568 12.6833 18.2078 12.6833 18.1556 12.6833C17.8189 12.7095 17.5379 12.9382 17.4627 13.301C17.332 13.7357 17.5934 14.1965 18.0281 14.3272C18.4628 14.4579 18.9236 14.1736 19.0543 13.7356C19.1785 13.2945 18.9007 12.8337 18.4627 12.7095Z" fill="black"/>
</g>
<defs>
<clipPath id="clip0_693_15945">
<rect width="20" height="20" fill="white" transform="translate(0.125 0.5)"/>
</clipPath>
</defs>
</svg>
