<svg width="21" height="21" viewBox="0 0 21 21" fill="none" xmlns="http://www.w3.org/2000/svg">
<g clip-path="url(#clip0_693_16220)">
<path d="M2.75781 19.9141C2.75781 20.2377 3.02016 20.5 3.34375 20.5H17.4062C17.7298 20.5 17.9922 20.2377 17.9922 19.9141V18.1172H2.75781V19.9141Z" fill="black"/>
<path d="M10.375 5.1875C7.14414 5.1875 4.51562 7.81602 4.51562 11.0469V16.9453H16.2344V11.0469C16.2344 7.81602 13.6059 5.1875 10.375 5.1875Z" fill="black"/>
<path d="M10.3359 4.01562C10.6595 4.01562 10.9219 3.75328 10.9219 3.42969V1.08594C10.9219 0.762344 10.6595 0.5 10.3359 0.5C10.0123 0.5 9.75 0.762344 9.75 1.08594V3.42969C9.75 3.75328 10.0123 4.01562 10.3359 4.01562Z" fill="black"/>
<path d="M5.72242 4.84427C5.88473 5.1254 6.24336 5.22005 6.52281 5.05872C6.80309 4.89693 6.8991 4.53857 6.73726 4.25833L5.56539 2.22861C5.40355 1.94833 5.04523 1.85236 4.765 2.01415C4.48473 2.17595 4.38871 2.53431 4.55055 2.81454L5.72242 4.84427Z" fill="black"/>
<path d="M3.74188 7.86827C3.90372 7.58804 3.80771 7.22968 3.52743 7.06788L1.49767 5.89601C1.21739 5.73417 0.859033 5.83018 0.697275 6.11046C0.535439 6.39069 0.631455 6.74905 0.911728 6.91085L2.94149 8.08272C3.22052 8.24386 3.57938 8.14976 3.74188 7.86827Z" fill="black"/>
<path d="M14.2272 5.05876C14.5062 5.21989 14.865 5.12575 15.0275 4.8443L16.1994 2.81458C16.3613 2.53434 16.2652 2.17598 15.985 2.01419C15.7047 1.85231 15.3463 1.94837 15.1846 2.22864L14.0127 4.25837C13.8509 4.5386 13.9469 4.89696 14.2272 5.05876Z" fill="black"/>
<path d="M20.0527 6.11042C19.8908 5.83015 19.5326 5.73421 19.2523 5.89597L17.2225 7.06785C16.9422 7.22964 16.8462 7.588 17.0081 7.86824C17.1704 8.14937 17.529 8.24402 17.8085 8.08269L19.8382 6.91081C20.1185 6.74902 20.2145 6.3907 20.0527 6.11042Z" fill="black"/>
</g>
<defs>
<clipPath id="clip0_693_16220">
<rect width="20" height="20" fill="white" transform="translate(0.375 0.5)"/>
</clipPath>
</defs>
</svg>
