<svg width="21" height="21" viewBox="0 0 21 21" fill="none" xmlns="http://www.w3.org/2000/svg">
<g clip-path="url(#clip0_693_16047)">
<path d="M0.625 9.32812H20.625V11.6719H0.625V9.32812Z" fill="black"/>
<path d="M8.26831 0.5H10.6251V8.15625H8.26831V0.5Z" fill="black"/>
<path d="M4.7395 2.21387H7.09626V8.15602H4.7395V2.21387Z" fill="black"/>
<path d="M1.21094 3.92871H3.5677V8.15672H1.21094V3.92871Z" fill="black"/>
<path d="M16.1241 2.80055L16.7248 3.40121L17.5534 2.57258L15.4818 0.500977L13.4102 2.57258L14.2388 3.40121L14.9301 2.70992C15.2425 5.57598 17.6772 7.81398 20.625 7.81398V6.64211C18.3556 6.64211 16.4685 4.97461 16.1241 2.80055Z" fill="black"/>
<path d="M6.31992 18.2876C6.00746 15.4216 3.57281 13.1836 0.625 13.1836V14.3555C2.89441 14.3555 4.78148 16.023 5.1259 18.197L4.52523 17.5964L3.6966 18.425L5.7682 20.4966L7.8398 18.425L7.01117 17.5964L6.31992 18.2876Z" fill="black"/>
<path d="M10.625 12.8438H12.9818V20.5H10.625V12.8438Z" fill="black"/>
<path d="M14.1536 12.8438H16.5103V18.7859H14.1536V12.8438Z" fill="black"/>
<path d="M17.6824 12.8438H20.0391V17.0718H17.6824V12.8438Z" fill="black"/>
</g>
<defs>
<clipPath id="clip0_693_16047">
<rect width="20" height="20" fill="white" transform="translate(0.625 0.5)"/>
</clipPath>
</defs>
</svg>
