<svg width="14" height="15" viewBox="0 0 14 15" fill="none" xmlns="http://www.w3.org/2000/svg">
<path d="M12.7574 3.92331C12.643 2.80576 12.461 1.93564 12.1729 1.59362C10.9851 0.187368 2.66462 0.0844569 1.71992 1.59362C1.48884 1.96337 1.32676 2.83041 1.218 3.92516C0.867051 3.96645 0.59375 4.26193 0.59375 4.62367V5.99264C0.59375 6.29706 0.786632 6.55372 1.05593 6.65386C0.992148 8.81008 1.04391 11.0597 1.13943 12.1784C1.13943 13.0421 1.71962 12.8988 1.71962 12.8988H2.26345V13.8312C2.26345 14.2009 2.64459 14.5001 3.11416 14.5001C3.58435 14.5001 3.9655 14.2009 3.9655 13.8312V12.8988H10.2924V13.8312C10.2924 14.2009 10.6732 14.5001 11.1434 14.5001C11.613 14.5001 11.9942 14.2009 11.9942 13.8312V12.8988H12.1729C12.1729 12.8988 12.8557 12.9925 12.8994 12.5858C12.8994 11.4701 12.9697 8.99741 12.9117 6.66341C13.198 6.57375 13.4069 6.31 13.4069 5.99264V4.62367C13.4072 4.25331 13.1206 3.95289 12.7574 3.92331ZM3.75197 1.79421H10.1408V2.76078H3.75197V1.79421ZM3.84317 11.7979C3.34155 11.7979 2.93515 11.3912 2.93515 10.8896C2.93515 10.3883 3.34155 9.98185 3.84317 9.98185C4.34479 9.98185 4.75151 10.3883 4.75151 10.8896C4.75151 11.3912 4.3451 11.7979 3.84317 11.7979ZM10.1066 11.7979C9.6053 11.7979 9.19797 11.3912 9.19797 10.8896C9.19797 10.3883 9.605 9.98185 10.1066 9.98185C10.6082 9.98185 11.0146 10.3883 11.0146 10.8896C11.0149 11.3912 10.6082 11.7979 10.1066 11.7979ZM11.2611 7.82317H2.63165V3.2969H11.2611V7.82317Z" fill="#353535"/>
</svg>
