<svg width="24" height="24" viewBox="0 0 24 24" fill="none" xmlns="http://www.w3.org/2000/svg">
<path d="M21.0682 5.79557L23.6161 4.40696C23.7877 4.31356 24.0003 4.42987 24.0003 4.61666V7.39564C24.0003 7.58243 23.7877 7.69873 23.6161 7.60534L21.0682 6.21673C20.8966 6.12333 20.8966 5.89072 21.0682 5.79733V5.79557Z" fill="white"/>
<path d="M7.02255 2.0437L10.684 0.0471357C10.9302 -0.0867908 11.2361 0.0806174 11.2361 0.34847V4.34336C11.2361 4.61121 10.9302 4.77862 10.684 4.64469L7.02255 2.64813C6.77634 2.5142 6.77634 2.17939 7.02255 2.04546V2.0437Z" fill="white"/>
<path d="M4.21357 8.48071L0.552112 6.48415C0.3059 6.35022 0 6.51763 0 6.78548V10.7804C0 11.0482 0.3059 11.2156 0.552112 11.0817L4.21357 9.08514C4.45978 8.95121 4.45978 8.6164 4.21357 8.48247V8.48071Z" fill="white"/>
<path d="M7.02255 14.9163L10.684 12.9197C10.9302 12.7858 11.2361 12.9532 11.2361 13.221V17.2159C11.2361 17.4838 10.9302 17.6512 10.684 17.5173L7.02255 15.5207C6.77634 15.3868 6.77634 15.0519 7.02255 14.918V14.9163Z" fill="white"/>
<path d="M5.24101 13.9894V9.99447C5.24101 9.72661 4.93511 9.55921 4.6889 9.69313L1.02743 11.6897C0.781221 11.8236 0.781221 12.1584 1.02743 12.2924L4.6889 14.2889C4.93511 14.4229 5.24101 14.2554 5.24101 13.9876V13.9894Z" fill="white"/>
<path d="M5.99512 13.9894V9.99447C5.99512 9.72661 6.30102 9.55921 6.54723 9.69313L10.2087 11.6897C10.4549 11.8236 10.4549 12.1584 10.2087 12.2924L6.54723 14.2889C6.30102 14.4229 5.99512 14.2554 5.99512 13.9876V13.9894Z" fill="white"/>
<path d="M16.2057 2.0437L12.5423 0.0471357C12.2961 -0.0867908 11.9902 0.0806174 11.9902 0.34847V4.34336C11.9902 4.61121 12.2961 4.77862 12.5423 4.64469L16.2038 2.64813C16.45 2.5142 16.45 2.17939 16.2038 2.04546L16.2057 2.0437Z" fill="white"/>
<path d="M20.8574 1.28768V3.59087C20.8574 3.74594 21.0346 3.8411 21.1764 3.76532L23.2878 2.61285C23.4296 2.53531 23.4296 2.34324 23.2878 2.2657L21.1764 1.11323C21.0346 1.03569 20.8574 1.13261 20.8574 1.28768Z" fill="white"/>
<path d="M19.1795 3.05716V7.05204C19.1795 7.3199 18.8736 7.48731 18.6274 7.35338L14.9659 5.35682C14.7197 5.22289 14.7197 4.88807 14.9659 4.75415L18.6274 2.75758C18.8736 2.62366 19.1795 2.79107 19.1795 3.05892V3.05716Z" fill="white"/>
<path d="M16.2038 14.9163L12.5423 12.9197C12.2961 12.7858 11.9902 12.9532 11.9902 13.221V17.2159C11.9902 17.4838 12.2961 17.6512 12.5423 17.5173L16.2038 15.5207C16.45 15.3868 16.45 15.0519 16.2038 14.918V14.9163Z" fill="white"/>
<path d="M7.02255 8.48071L10.684 6.48415C10.9302 6.35022 11.2361 6.51763 11.2361 6.78548V10.7804C11.2361 11.0482 10.9302 11.2156 10.684 11.0817L7.02255 9.08514C6.77634 8.95121 6.77634 8.6164 7.02255 8.48247V8.48071Z" fill="white"/>
<path d="M5.24101 3.57181V7.56669C5.24101 7.83455 4.93511 8.00195 4.6889 7.86803L1.02743 5.87146C0.781221 5.73754 0.781221 5.40272 1.02743 5.2688L4.6889 3.27223C4.93511 3.13831 5.24101 3.30572 5.24101 3.57357V3.57181Z" fill="white"/>
<path d="M5.99512 3.57181V7.56669C5.99512 7.83455 6.30102 8.00195 6.54723 7.86803L10.2087 5.87146C10.4549 5.73754 10.4549 5.40272 10.2087 5.2688L6.54723 3.27223C6.30102 3.13831 5.99512 3.30572 5.99512 3.57357V3.57181Z" fill="white"/>
<path d="M4.21357 14.9163L0.552112 12.9197C0.3059 12.7858 0 12.9532 0 13.221V17.2159C0 17.4838 0.3059 17.6512 0.552112 17.5173L4.21357 15.5207C4.45978 15.3868 4.45978 15.0519 4.21357 14.918V14.9163Z" fill="white"/>
<path d="M7.02255 21.3518L10.684 19.3552C10.9302 19.2213 11.2361 19.3887 11.2361 19.6566V23.6515C11.2361 23.9193 10.9302 24.0867 10.684 23.9528L7.02255 21.9562C6.77634 21.8223 6.77634 21.4875 7.02255 21.3536V21.3518Z" fill="white"/>
<path d="M5.24101 16.4439V20.4388C5.24101 20.7066 4.93511 20.874 4.6889 20.7401L1.02743 18.7435C0.781221 18.6096 0.781221 18.2748 1.02743 18.1409L4.6889 16.1443C4.93511 16.0104 5.24101 16.1778 5.24101 16.4456V16.4439Z" fill="white"/>
<path d="M5.99512 16.4439V20.4388C5.99512 20.7066 6.30102 20.874 6.54723 20.7401L10.2087 18.7435C10.4549 18.6096 10.4549 18.2748 10.2087 18.1409L6.54723 16.1443C6.30102 16.0104 5.99512 16.1778 5.99512 16.4456V16.4439Z" fill="white"/>
<path d="M16.2038 8.48071L12.5423 6.48415C12.2961 6.35022 11.9902 6.51763 11.9902 6.78548V10.7804C11.9902 11.0482 12.2961 11.2156 12.5423 11.0817L16.2038 9.08514C16.45 8.95121 16.45 8.6164 16.2038 8.48247V8.48071Z" fill="white"/>
<path d="M19.0147 14.9163L22.6762 12.9197C22.9224 12.7858 23.2283 12.9532 23.2283 13.221V17.2159C23.2283 17.4838 22.9224 17.6512 22.6762 17.5173L19.0147 15.5207C18.7685 15.3868 18.7685 15.0519 19.0147 14.918V14.9163Z" fill="white"/>
<path d="M16.2038 21.3518L12.5423 19.3552C12.2961 19.2213 11.9902 19.3887 11.9902 19.6566V23.6515C11.9902 23.9193 12.2961 24.0867 12.5423 23.9528L16.2038 21.9562C16.45 21.8223 16.45 21.4875 16.2038 21.3536V21.3518Z" fill="white"/>
<path d="M17.9854 13.9894V9.99447C17.9854 9.72661 18.2913 9.55921 18.5375 9.69313L22.1989 11.6897C22.4451 11.8236 22.4451 12.1584 22.1989 12.2924L18.5375 14.2889C18.2913 14.4229 17.9854 14.2554 17.9854 13.9876V13.9894Z" fill="white"/>
<path d="M17.9854 16.4439V20.4388C17.9854 20.7066 18.2913 20.874 18.5375 20.7401L22.1989 18.7435C22.4451 18.6096 22.4451 18.2748 22.1989 18.1409L18.5375 16.1443C18.2913 16.0104 17.9854 16.1778 17.9854 16.4456V16.4439Z" fill="white"/>
<path d="M17.2332 13.9894V9.99447C17.2332 9.72661 16.9273 9.55921 16.6811 9.69313L13.0196 11.6897C12.7734 11.8236 12.7734 12.1584 13.0196 12.2924L16.6811 14.2889C16.9273 14.4229 17.2332 14.2554 17.2332 13.9876V13.9894Z" fill="white"/>
<path d="M17.2332 16.4439V20.4388C17.2332 20.7066 16.9273 20.874 16.6811 20.7401L13.0196 18.7435C12.7734 18.6096 12.7734 18.2748 13.0196 18.1409L16.6811 16.1443C16.9273 16.0104 17.2332 16.1778 17.2332 16.4456V16.4439Z" fill="white"/>
</svg>
