<svg width="13" height="14" viewBox="0 0 13 14" fill="none" xmlns="http://www.w3.org/2000/svg">
<path d="M10.7497 6.40332H2.24967V2.86165H10.7497M9.68717 10.6533C9.40538 10.6533 9.13513 10.5414 8.93587 10.3421C8.73662 10.1429 8.62467 9.87261 8.62467 9.59082C8.62467 9.30903 8.73662 9.03878 8.93587 8.83952C9.13513 8.64026 9.40538 8.52832 9.68717 8.52832C9.96897 8.52832 10.2392 8.64026 10.4385 8.83952C10.6377 9.03878 10.7497 9.30903 10.7497 9.59082C10.7497 9.87261 10.6377 10.1429 10.4385 10.3421C10.2392 10.5414 9.96897 10.6533 9.68717 10.6533ZM3.31217 10.6533C3.03038 10.6533 2.76013 10.5414 2.56087 10.3421C2.36162 10.1429 2.24967 9.87261 2.24967 9.59082C2.24967 9.30903 2.36162 9.03878 2.56087 8.83952C2.76013 8.64026 3.03038 8.52832 3.31217 8.52832C3.59397 8.52832 3.86422 8.64026 4.06348 8.83952C4.26273 9.03878 4.37467 9.30903 4.37467 9.59082C4.37467 9.87261 4.26273 10.1429 4.06348 10.3421C3.86422 10.5414 3.59397 10.6533 3.31217 10.6533ZM0.833008 9.94499C0.833008 10.5683 1.10926 11.1279 1.54134 11.5175V12.7783C1.54134 12.9662 1.61597 13.1463 1.74881 13.2792C1.88165 13.412 2.06181 13.4867 2.24967 13.4867H2.95801C3.14587 13.4867 3.32604 13.412 3.45887 13.2792C3.59171 13.1463 3.66634 12.9662 3.66634 12.7783V12.07H9.33301V12.7783C9.33301 12.9662 9.40763 13.1463 9.54047 13.2792C9.67331 13.412 9.85348 13.4867 10.0413 13.4867H10.7497C10.9375 13.4867 11.1177 13.412 11.2505 13.2792C11.3834 13.1463 11.458 12.9662 11.458 12.7783V11.5175C11.8901 11.1279 12.1663 10.5683 12.1663 9.94499V2.86165C12.1663 0.382487 9.63051 0.0283203 6.49967 0.0283203C3.36884 0.0283203 0.833008 0.382487 0.833008 2.86165V9.94499Z" fill="black"/>
</svg>
