<svg width="26" height="26" viewBox="0 0 26 26" fill="none" xmlns="http://www.w3.org/2000/svg">
<g clip-path="url(#clip0_341_22477)">
<path d="M20.3655 4.78973L12.8405 2.05084C12.343 1.86978 11.794 1.89375 11.3143 2.11747C10.8345 2.34119 10.4632 2.74634 10.2822 3.24379L4.80746 18.2855C4.43021 19.3219 4.96453 20.4678 6.00007 20.8447L13.5242 23.5832C14.0217 23.7643 14.5708 23.7404 15.0507 23.5168C15.5306 23.2931 15.9021 22.8881 16.0834 22.3906L21.5585 7.34803C21.7395 6.85059 21.7156 6.30159 21.4918 5.82181C21.2681 5.34204 20.863 4.97079 20.3655 4.78973ZM10.1046 21.2744C9.45623 21.0385 9.08288 20.4269 9.27202 19.9072C9.46116 19.3876 10.1403 19.1591 10.7887 19.3951C11.437 19.6311 11.8104 20.2426 11.6213 20.7623C11.4321 21.2819 10.753 21.5104 10.1046 21.2744ZM14.8894 19.8234L7.37191 17.0873L12.1602 3.93159L19.6777 6.66775L14.8894 19.8234Z" fill="black"/>
</g>
<defs>
<clipPath id="clip0_341_22477">
<rect width="20" height="20" fill="white" transform="translate(7.20703) rotate(20)"/>
</clipPath>
</defs>
</svg>
