<svg width="21" height="21" viewBox="0 0 21 21" fill="none" xmlns="http://www.w3.org/2000/svg">
<g clip-path="url(#clip0_693_15760)">
<path fill-rule="evenodd" clip-rule="evenodd" d="M17.4499 11.2843C16.7311 10.9823 16.2263 10.2717 16.2263 9.4432C16.2264 8.6652 16.6715 7.99121 17.3209 7.66184L17.321 9.66883L18.2225 10.1893L19.124 9.66883L19.1241 7.66184C19.7735 7.99117 20.2187 8.6652 20.2187 9.4432C20.2187 10.2717 19.7139 10.9823 18.9951 11.2843V15.5726C19.7139 15.8746 20.2187 16.5852 20.2186 17.4136C20.2187 18.1917 19.7735 18.8657 19.124 19.195V17.188L18.2225 16.6675L17.321 17.188V19.195C16.6715 18.8656 16.2264 18.1916 16.2264 17.4136C16.2263 16.5851 16.7311 15.8745 17.4499 15.5725V11.2843ZM2.7582 10.9485C2.88379 10.6914 3.11277 10.4935 3.39058 10.4095C3.39058 8.44004 4.97726 6.84219 6.94914 6.84219C7.13422 6.84219 7.31598 6.85633 7.49344 6.88355C8.26148 5.87289 9.47621 5.22023 10.8437 5.22023C12.2792 5.22023 13.5466 5.93926 14.3054 7.03688H15.4678L15.7945 8.45555C16.0288 7.87957 16.4648 7.39527 17.0383 7.10445L17.9537 6.63891C17.802 6.24434 17.6053 5.83348 17.3536 5.42484L17.996 3.97855L16.2909 2.27336L14.8441 2.91594C14.1556 2.49203 13.4043 2.18016 12.6177 1.99297L12.0494 0.516602H9.63797L9.06984 1.99262C8.28301 2.1798 7.53144 2.49168 6.84281 2.91582L5.39648 2.27336L3.69137 3.97855L4.33391 5.42531C3.90996 6.11383 3.59808 6.86516 3.4109 7.65176L1.93453 8.22004V10.6314L2.7582 10.9485ZM3.6898 10.9904C3.46289 10.9904 3.27875 11.1761 3.27875 11.4014C3.27875 11.6286 3.46488 11.8125 3.6898 11.8125H10.2085C10.4346 11.8125 10.6195 11.6275 10.6195 11.4014C10.6195 11.1753 10.4345 10.9904 10.2085 10.9904C9.97445 10.9904 3.92398 10.9904 3.6898 10.9904ZM6.94918 7.46719C8.55894 7.46719 9.86336 8.76156 9.8823 10.3654H4.01609C4.0368 8.76113 5.34055 7.46719 6.94918 7.46719ZM9.57047 12.4375C9.18238 13.5097 8.15527 14.2759 6.94918 14.2759C5.74305 14.2759 4.71598 13.5097 4.32789 12.4375H9.57047ZM1.92226 19.5856L11.976 19.5856C12.223 19.5856 12.4068 19.3628 12.3596 19.1202C11.8659 16.5823 9.63129 14.6665 6.94914 14.6665C4.26687 14.6665 2.0323 16.5824 1.53867 19.1203C1.49148 19.3628 1.67523 19.5856 1.92226 19.5856ZM15.4558 19.195H13.4797V15.0543C13.4797 14.8855 13.6179 14.7473 13.7867 14.7473H15.1488C15.3177 14.7473 15.4558 14.8855 15.4558 15.0543V19.195ZM13.9651 14.1224V9.91051L13.6201 9.1602L13.9651 7.66188H14.9704L15.3154 9.1602L14.9704 9.91055V14.1224H13.9651V14.1224Z" fill="black"/>
</g>
<defs>
<clipPath id="clip0_693_15760">
<rect width="20" height="20" fill="white" transform="translate(0.875 0.0507812)"/>
</clipPath>
</defs>
</svg>
