<svg width="24" height="25" viewBox="0 0 24 25" fill="none" xmlns="http://www.w3.org/2000/svg">
<g clip-path="url(#clip0_279_20605)">
<mask id="path-1-inside-1_279_20605" fill="white">
<path d="M22.5493 4.14041L19.2319 0.823063C19.0235 0.61475 18.7465 0.5 18.4519 0.5H4.48452C3.87631 0.5 3.38145 0.994859 3.38145 1.60306V12.5242H2.60577C1.79033 12.5242 1.12695 13.1876 1.12695 14.003V20.7666C1.12695 21.582 1.79033 22.2455 2.60577 22.2455H14.2542C14.8625 22.2455 15.3573 21.7506 15.3573 21.1424V15.8818C15.3573 15.2736 14.8624 14.7787 14.2542 14.7787H2.60577C2.17803 14.7787 1.83008 14.4308 1.83008 14.003C1.83008 13.5753 2.17803 13.2274 2.60577 13.2274H3.38145V13.6274C3.38145 13.8216 3.53886 13.979 3.73302 13.979C3.92717 13.979 4.08458 13.8216 4.08458 13.6274V1.60306C4.08458 1.38252 4.26402 1.20312 4.48452 1.20312H18.0359V4.60911C18.0359 5.01017 18.3622 5.33647 18.7633 5.33647H22.1692V23.3969C22.1692 23.6175 21.9898 23.7969 21.7693 23.7969H4.48452C4.26397 23.7969 4.08458 23.6175 4.08458 23.3969C4.08458 23.2028 3.92717 23.0454 3.73302 23.0454C3.53886 23.0454 3.38145 23.2028 3.38145 23.3969C3.38145 24.0052 3.87631 24.5 4.48452 24.5H21.7693C22.3775 24.5 22.8724 24.0051 22.8724 23.3969V4.92041C22.8724 4.6258 22.7577 4.34877 22.5493 4.14041ZM2.60577 15.4819H14.2542C14.4747 15.4819 14.6541 15.6613 14.6541 15.8818V21.1424C14.6541 21.363 14.4747 21.5424 14.2542 21.5424H2.60577C2.17803 21.5424 1.83008 21.1944 1.83008 20.7666V15.2616C2.05569 15.4013 2.32147 15.4819 2.60577 15.4819ZM18.7391 4.60911V1.32467L22.0478 4.63334H18.7633C18.7499 4.63334 18.7391 4.62247 18.7391 4.60911Z"/>
</mask>
<path d="M22.5493 4.14041L19.2319 0.823063C19.0235 0.61475 18.7465 0.5 18.4519 0.5H4.48452C3.87631 0.5 3.38145 0.994859 3.38145 1.60306V12.5242H2.60577C1.79033 12.5242 1.12695 13.1876 1.12695 14.003V20.7666C1.12695 21.582 1.79033 22.2455 2.60577 22.2455H14.2542C14.8625 22.2455 15.3573 21.7506 15.3573 21.1424V15.8818C15.3573 15.2736 14.8624 14.7787 14.2542 14.7787H2.60577C2.17803 14.7787 1.83008 14.4308 1.83008 14.003C1.83008 13.5753 2.17803 13.2274 2.60577 13.2274H3.38145V13.6274C3.38145 13.8216 3.53886 13.979 3.73302 13.979C3.92717 13.979 4.08458 13.8216 4.08458 13.6274V1.60306C4.08458 1.38252 4.26402 1.20312 4.48452 1.20312H18.0359V4.60911C18.0359 5.01017 18.3622 5.33647 18.7633 5.33647H22.1692V23.3969C22.1692 23.6175 21.9898 23.7969 21.7693 23.7969H4.48452C4.26397 23.7969 4.08458 23.6175 4.08458 23.3969C4.08458 23.2028 3.92717 23.0454 3.73302 23.0454C3.53886 23.0454 3.38145 23.2028 3.38145 23.3969C3.38145 24.0052 3.87631 24.5 4.48452 24.5H21.7693C22.3775 24.5 22.8724 24.0051 22.8724 23.3969V4.92041C22.8724 4.6258 22.7577 4.34877 22.5493 4.14041ZM2.60577 15.4819H14.2542C14.4747 15.4819 14.6541 15.6613 14.6541 15.8818V21.1424C14.6541 21.363 14.4747 21.5424 14.2542 21.5424H2.60577C2.17803 21.5424 1.83008 21.1944 1.83008 20.7666V15.2616C2.05569 15.4013 2.32147 15.4819 2.60577 15.4819ZM18.7391 4.60911V1.32467L22.0478 4.63334H18.7633C18.7499 4.63334 18.7391 4.62247 18.7391 4.60911Z" fill="black"/>
<path d="M22.5493 4.14041L23.4685 3.22117L23.4685 3.22115L22.5493 4.14041ZM19.2319 0.823063L20.1511 -0.0961893L20.151 -0.0962797L19.2319 0.823063ZM3.38145 12.5242V13.8242H4.68145V12.5242H3.38145ZM3.38145 13.2274H4.68145V11.9274H3.38145V13.2274ZM18.0359 1.20312H19.3359V-0.096875H18.0359V1.20312ZM22.1692 5.33647H23.4692V4.03647H22.1692V5.33647ZM22.8724 4.92041L21.5724 4.9202V4.92041H22.8724ZM1.83008 15.2616L2.51426 14.1562L0.530078 12.9281V15.2616H1.83008ZM18.7391 1.32467L19.6583 0.40542L17.4391 -1.81374V1.32467H18.7391ZM22.0478 4.63334V5.93334H25.1864L22.9671 3.71409L22.0478 4.63334ZM23.4685 3.22115L20.1511 -0.0961893L18.3126 1.74231L21.6301 5.05966L23.4685 3.22115ZM20.151 -0.0962797C19.6989 -0.548256 19.0913 -0.8 18.4519 -0.8V1.8C18.4295 1.8 18.4033 1.79545 18.3767 1.78446C18.3502 1.77347 18.3285 1.75817 18.3127 1.7424L20.151 -0.0962797ZM18.4519 -0.8H4.48452V1.8H18.4519V-0.8ZM4.48452 -0.8C3.15834 -0.8 2.08145 0.276888 2.08145 1.60306H4.68145C4.68145 1.71283 4.59428 1.8 4.48452 1.8V-0.8ZM2.08145 1.60306V12.5242H4.68145V1.60306H2.08145ZM3.38145 11.2242H2.60577V13.8242H3.38145V11.2242ZM2.60577 11.2242C1.07233 11.2242 -0.173047 12.4697 -0.173047 14.003H2.42695C2.42695 13.9056 2.50833 13.8242 2.60577 13.8242V11.2242ZM-0.173047 14.003V20.7666H2.42695V14.003H-0.173047ZM-0.173047 20.7666C-0.173047 22.2999 1.0723 23.5455 2.60577 23.5455V20.9455C2.50835 20.9455 2.42695 20.8641 2.42695 20.7666H-0.173047ZM2.60577 23.5455H14.2542V20.9455H2.60577V23.5455ZM14.2542 23.5455C15.5805 23.5455 16.6573 22.4685 16.6573 21.1424H14.0573C14.0573 21.0327 14.1444 20.9455 14.2542 20.9455V23.5455ZM16.6573 21.1424V15.8818H14.0573V21.1424H16.6573ZM16.6573 15.8818C16.6573 14.5557 15.5804 13.4787 14.2542 13.4787V16.0787C14.1444 16.0787 14.0573 15.9915 14.0573 15.8818H16.6573ZM14.2542 13.4787H2.60577V16.0787H14.2542V13.4787ZM2.60577 13.4787C2.896 13.4787 3.13008 13.7128 3.13008 14.003H0.530078C0.530078 15.1488 1.46006 16.0787 2.60577 16.0787V13.4787ZM3.13008 14.003C3.13008 14.2933 2.896 14.5274 2.60577 14.5274V11.9274C1.46006 11.9274 0.530078 12.8573 0.530078 14.003H3.13008ZM2.60577 14.5274H3.38145V11.9274H2.60577V14.5274ZM2.08145 13.2274V13.6274H4.68145V13.2274H2.08145ZM2.08145 13.6274C2.08145 14.5396 2.82089 15.279 3.73302 15.279V12.679C4.25683 12.679 4.68145 13.1036 4.68145 13.6274H2.08145ZM3.73302 15.279C4.64514 15.279 5.38458 14.5396 5.38458 13.6274H2.78458C2.78458 13.1036 3.2092 12.679 3.73302 12.679V15.279ZM5.38458 13.6274V1.60306H2.78458V13.6274H5.38458ZM5.38458 1.60306C5.38458 2.10059 4.98189 2.50312 4.48452 2.50312V-0.096875C3.54615 -0.096875 2.78458 0.664444 2.78458 1.60306H5.38458ZM4.48452 2.50312H18.0359V-0.096875H4.48452V2.50312ZM16.7359 1.20312V4.60911H19.3359V1.20312H16.7359ZM16.7359 4.60911C16.7359 5.72804 17.6441 6.63647 18.7633 6.63647V4.03647C19.0803 4.03647 19.3359 4.29231 19.3359 4.60911H16.7359ZM18.7633 6.63647H22.1692V4.03647H18.7633V6.63647ZM20.8692 5.33647V23.3969H23.4692V5.33647H20.8692ZM20.8692 23.3969C20.8692 22.8994 21.2719 22.4969 21.7693 22.4969V25.0969C22.7077 25.0969 23.4692 24.3355 23.4692 23.3969H20.8692ZM21.7693 22.4969H4.48452V25.0969H21.7693V22.4969ZM4.48452 22.4969C4.98194 22.4969 5.38458 22.8995 5.38458 23.3969H2.78458C2.78458 24.3355 3.546 25.0969 4.48452 25.0969V22.4969ZM5.38458 23.3969C5.38458 22.4848 4.64514 21.7454 3.73302 21.7454V24.3454C3.2092 24.3454 2.78458 23.9208 2.78458 23.3969H5.38458ZM3.73302 21.7454C2.82089 21.7454 2.08145 22.4848 2.08145 23.3969H4.68145C4.68145 23.9208 4.25683 24.3454 3.73302 24.3454V21.7454ZM2.08145 23.3969C2.08145 24.7232 3.15838 25.8 4.48452 25.8V23.2C4.59425 23.2 4.68145 23.2872 4.68145 23.3969H2.08145ZM4.48452 25.8H21.7693V23.2H4.48452V25.8ZM21.7693 25.8C23.0956 25.8 24.1724 24.7231 24.1724 23.3969H21.5724C21.5724 23.2872 21.6595 23.2 21.7693 23.2V25.8ZM24.1724 23.3969V4.92041H21.5724V23.3969H24.1724ZM24.1724 4.92061C24.1725 4.28104 23.9207 3.6733 23.4685 3.22117L21.6301 5.05965C21.6143 5.04384 21.5989 5.02209 21.5879 4.99553C21.5769 4.96896 21.5724 4.94268 21.5724 4.9202L24.1724 4.92061ZM2.60577 16.7819H14.2542V14.1819H2.60577V16.7819ZM14.2542 16.7819C13.7566 16.7819 13.3541 16.3791 13.3541 15.8818H15.9541C15.9541 14.9435 15.1929 14.1819 14.2542 14.1819V16.7819ZM13.3541 15.8818V21.1424H15.9541V15.8818H13.3541ZM13.3541 21.1424C13.3541 20.6449 13.7568 20.2424 14.2542 20.2424V22.8424C15.1926 22.8424 15.9541 22.0811 15.9541 21.1424H13.3541ZM14.2542 20.2424H2.60577V22.8424H14.2542V20.2424ZM2.60577 20.2424C2.8961 20.2424 3.13008 20.4765 3.13008 20.7666H0.530078C0.530078 21.9122 1.45996 22.8424 2.60577 22.8424V20.2424ZM3.13008 20.7666V15.2616H0.530078V20.7666H3.13008ZM1.1459 16.367C1.57079 16.63 2.0725 16.7819 2.60577 16.7819V14.1819C2.57043 14.1819 2.54059 14.1725 2.51426 14.1562L1.1459 16.367ZM20.0391 4.60911V1.32467H17.4391V4.60911H20.0391ZM17.8198 2.24392L21.1286 5.5526L22.9671 3.71409L19.6583 0.40542L17.8198 2.24392ZM22.0478 3.33334H18.7633V5.93334H22.0478V3.33334ZM18.7633 3.33334C19.4695 3.33334 20.0391 3.90606 20.0391 4.60911H17.4391C17.4391 5.33888 18.0304 5.93334 18.7633 5.93334V3.33334Z" fill="black" mask="url(#path-1-inside-1_279_20605)"/>
<path d="M11.0898 20.3556C11.284 20.3556 11.4414 20.1982 11.4414 20.0041V18.8353H12.2032C12.3973 18.8353 12.5547 18.6779 12.5547 18.4838C12.5547 18.2896 12.3973 18.1322 12.2032 18.1322H11.4414V17.3716H12.2993C12.4934 17.3716 12.6508 17.2142 12.6508 17.02C12.6508 16.8258 12.4934 16.6685 12.2993 16.6685H11.0898C10.8957 16.6685 10.7383 16.8258 10.7383 17.02V20.004C10.7383 20.1982 10.8957 20.3556 11.0898 20.3556Z" fill="black"/>
<path d="M7.39299 20.2204C7.45884 20.2857 7.54791 20.3224 7.64067 20.3224H7.64199C7.66697 20.3223 8.25595 20.3201 8.49122 20.3159C9.35995 20.3007 9.99052 19.5422 9.99052 18.5123C9.99052 17.4296 9.37584 16.7021 8.46094 16.7021H7.63477C7.54139 16.7021 7.45191 16.7393 7.38595 16.8054C7.32 16.8715 7.28302 16.961 7.2832 17.0544V17.0567V17.0567V19.9234C7.2832 19.9476 7.28564 19.9712 7.29028 19.9939C7.29591 20.0792 7.332 20.1598 7.39299 20.2204ZM8.46094 17.4053C9.07031 17.4053 9.28739 17.9771 9.28739 18.5123C9.28739 19.2628 8.88136 19.6059 8.47894 19.6129C8.36709 19.6149 8.16755 19.6164 7.99102 19.6175C7.98989 19.2726 7.98755 17.7641 7.98694 17.4053H8.46094Z" fill="black"/>
<path d="M4.47266 20.3664C4.66681 20.3664 4.82422 20.2091 4.82422 20.0149V19.0588C4.99878 19.0579 5.19725 19.057 5.30966 19.057C5.98044 19.057 6.52616 18.5188 6.52616 17.8571C6.52616 17.1955 5.98044 16.6572 5.30966 16.6572H4.47266C4.37923 16.6572 4.28966 16.6944 4.22366 16.7606C4.15794 16.8265 4.12114 16.9158 4.12114 17.0088L4.12109 20.0148C4.12109 20.2091 4.2785 20.3664 4.47266 20.3664ZM5.30966 17.3604C5.58795 17.3604 5.82303 17.5879 5.82303 17.8572C5.82303 18.1264 5.58795 18.3539 5.30966 18.3539C5.198 18.3539 5.00202 18.3548 4.82811 18.3557C4.82717 18.1761 4.82577 17.5483 4.82525 17.3604H5.30966V17.3604Z" fill="black"/>
<path d="M11.0599 10.6935C10.1958 10.9662 9.30901 11.3437 8.83594 11.832C8.44561 12.2349 8.37488 12.7023 8.64183 13.1145C8.82301 13.3942 9.07205 13.5404 9.35208 13.5404C9.45957 13.5404 9.57165 13.5189 9.68616 13.4751C10.0993 13.3171 10.5454 12.8677 11.0501 12.1012C11.2131 11.8537 11.378 11.5787 11.5422 11.2812C11.602 11.2636 11.6629 11.2461 11.7253 11.2287C12.7174 10.9511 13.8399 10.7496 14.825 10.6654C15.4255 11.2461 16.0463 11.6986 16.5754 11.822C17.1576 11.9578 17.6191 11.6916 17.8097 11.1099C17.9252 10.7575 17.7923 10.4252 17.4541 10.2211C17.1063 10.0111 16.5021 9.90976 15.6585 9.91942C15.4788 9.92148 15.2891 9.92879 15.0918 9.94102C14.7128 9.55018 14.3185 9.08307 13.9388 8.56721C13.6446 8.1676 13.3816 7.76771 13.1592 7.3876C13.1834 7.30431 13.2064 7.22213 13.2282 7.14142C13.4685 6.25018 13.5542 5.56782 13.4829 5.11323C13.38 4.45674 12.9563 4.36351 12.7789 4.35395C12.1749 4.32127 11.7681 4.62601 11.6907 5.16906C11.6292 5.60045 11.7743 6.19398 12.1218 6.9331C12.2045 7.10879 12.2971 7.28987 12.3989 7.47479C12.361 7.59648 12.3199 7.72309 12.2753 7.85485C11.9513 8.81363 11.5123 9.83527 11.0599 10.6935ZM9.37158 12.8354C9.34651 12.8386 9.30422 12.8439 9.23194 12.7322C9.17311 12.6414 9.16993 12.5729 9.22013 12.4793C9.33751 12.2605 9.73824 11.9535 10.5137 11.6363C9.97247 12.4757 9.56799 12.8109 9.37158 12.8354ZM17.1474 10.867C17.1469 10.8714 17.1455 10.8791 17.1416 10.8909C17.0538 11.1589 16.9358 11.1841 16.7351 11.1373C16.4902 11.0802 16.179 10.8992 15.8319 10.6222C16.7717 10.6297 17.0995 10.799 17.1474 10.867ZM12.3867 5.26834C12.4011 5.16784 12.4171 5.05482 12.6846 5.05482C12.7014 5.05482 12.7193 5.05529 12.7381 5.05618C12.8182 5.15373 12.8594 5.58774 12.6742 6.44668C12.456 5.94629 12.3494 5.5306 12.3867 5.26834ZM12.8763 8.26853C13.0306 8.50567 13.1966 8.74515 13.3725 8.98412C13.6249 9.32696 13.91 9.68288 14.2115 10.0226C13.8627 10.0647 13.5029 10.1191 13.1429 10.1844C12.8993 10.2286 12.4747 10.312 11.9776 10.436C12.0879 10.2074 12.1966 9.97042 12.303 9.72676C12.5144 9.24259 12.7088 8.74717 12.8763 8.26853Z" fill="black"/>
</g>
<defs>
<clipPath id="clip0_279_20605">
<rect width="24" height="24" fill="white" transform="translate(0 0.5)"/>
</clipPath>
</defs>
</svg>
