<svg width="14" height="17" viewBox="0 0 14 17" fill="none" xmlns="http://www.w3.org/2000/svg">
<path d="M7.00129 0.951172C5.34394 0.953127 3.75504 1.61237 2.58312 2.78429C1.4112 3.95621 0.751959 5.54511 0.750004 7.20245C0.74848 8.55676 1.19084 9.87425 2.00935 10.9532C2.00935 10.9532 2.17984 11.1777 2.20769 11.2101L7.00129 16.8635L11.7972 11.2073C11.8222 11.1771 11.9932 10.9532 11.9932 10.9532L11.9938 10.9515C12.8117 9.87294 13.2539 8.55611 13.2526 7.20245C13.2506 5.54511 12.5914 3.95621 11.4194 2.78429C10.2475 1.61237 8.65863 0.953127 7.00129 0.951172ZM7.00129 9.47565C6.55169 9.47565 6.11219 9.34233 5.73837 9.09254C5.36454 8.84276 5.07318 8.48774 4.90113 8.07237C4.72908 7.657 4.68406 7.19993 4.77177 6.75898C4.85948 6.31802 5.07598 5.91297 5.3939 5.59506C5.71181 5.27715 6.11685 5.06065 6.55781 4.97294C6.99876 4.88523 7.45583 4.93024 7.8712 5.1023C8.28657 5.27435 8.64159 5.56571 8.89138 5.93954C9.14116 6.31336 9.27448 6.75286 9.27448 7.20245C9.27373 7.80511 9.03399 8.38287 8.60785 8.80901C8.1817 9.23516 7.60394 9.4749 7.00129 9.47565Z" fill="white"/>
</svg>
