<svg width="18" height="20" viewBox="0 0 18 20" fill="none" xmlns="http://www.w3.org/2000/svg">
<mask id="path-1-inside-1_2903_7985" fill="white">
<path d="M12.3389 13.2143C14.4671 9.87469 14.1996 10.2913 14.2609 10.2043C15.0358 9.11137 15.4453 7.82508 15.4453 6.48438C15.4453 2.92891 12.5601 0 9 0C5.45148 0 2.55469 2.92313 2.55469 6.48438C2.55469 7.82422 2.97281 9.14418 3.77305 10.2518L5.66102 13.2143C3.64246 13.5245 0.210938 14.4489 0.210938 16.4844C0.210938 17.2264 0.695234 18.2838 3.00242 19.1078C4.61344 19.6831 6.7434 20 9 20C13.2197 20 17.7891 18.8097 17.7891 16.4844C17.7891 14.4486 14.3616 13.5251 12.3389 13.2143ZM4.75191 9.60723C4.74547 9.59715 4.73875 9.5873 4.73172 9.57762C4.06582 8.66152 3.72656 7.57582 3.72656 6.48438C3.72656 3.55398 6.08617 1.17188 9 1.17188C11.9078 1.17188 14.2734 3.55504 14.2734 6.48438C14.2734 7.57758 13.9406 8.62645 13.3107 9.5184C13.2543 9.59285 13.5487 9.13535 9 16.273L4.75191 9.60723ZM9 18.8281C4.39086 18.8281 1.38281 17.4733 1.38281 16.4844C1.38281 15.8197 2.92844 14.7268 6.35344 14.3007L8.50586 17.6782C8.61344 17.847 8.79977 17.9492 8.99996 17.9492C9.20016 17.9492 9.38652 17.847 9.49406 17.6782L11.6464 14.3007C15.0715 14.7268 16.6172 15.8197 16.6172 16.4844C16.6172 17.4649 13.6362 18.8281 9 18.8281Z"/>
</mask>
<path d="M12.3389 13.2143C14.4671 9.87469 14.1996 10.2913 14.2609 10.2043C15.0358 9.11137 15.4453 7.82508 15.4453 6.48438C15.4453 2.92891 12.5601 0 9 0C5.45148 0 2.55469 2.92313 2.55469 6.48438C2.55469 7.82422 2.97281 9.14418 3.77305 10.2518L5.66102 13.2143C3.64246 13.5245 0.210938 14.4489 0.210938 16.4844C0.210938 17.2264 0.695234 18.2838 3.00242 19.1078C4.61344 19.6831 6.7434 20 9 20C13.2197 20 17.7891 18.8097 17.7891 16.4844C17.7891 14.4486 14.3616 13.5251 12.3389 13.2143ZM4.75191 9.60723C4.74547 9.59715 4.73875 9.5873 4.73172 9.57762C4.06582 8.66152 3.72656 7.57582 3.72656 6.48438C3.72656 3.55398 6.08617 1.17188 9 1.17188C11.9078 1.17188 14.2734 3.55504 14.2734 6.48438C14.2734 7.57758 13.9406 8.62645 13.3107 9.5184C13.2543 9.59285 13.5487 9.13535 9 16.273L4.75191 9.60723ZM9 18.8281C4.39086 18.8281 1.38281 17.4733 1.38281 16.4844C1.38281 15.8197 2.92844 14.7268 6.35344 14.3007L8.50586 17.6782C8.61344 17.847 8.79977 17.9492 8.99996 17.9492C9.20016 17.9492 9.38652 17.847 9.49406 17.6782L11.6464 14.3007C15.0715 14.7268 16.6172 15.8197 16.6172 16.4844C16.6172 17.4649 13.6362 18.8281 9 18.8281Z" fill="#B9B9B9"/>
<path d="M12.3389 13.2143L-186.683 -113.618L-381.136 191.512L-23.5107 246.475L12.3389 13.2143ZM14.2609 10.2043L-178.262 -126.291L-178.473 -125.994L-178.683 -125.696L14.2609 10.2043ZM3.77305 10.2518L202.794 -116.582L199.097 -122.382L195.07 -127.957L3.77305 10.2518ZM5.66102 13.2143L41.5068 246.476L399.142 191.518L204.682 -113.619L5.66102 13.2143ZM3.00242 19.1078L-76.372 241.359L-76.3716 241.359L3.00242 19.1078ZM4.75191 9.60723L203.772 -117.228L203.671 -117.386L203.57 -117.544L4.75191 9.60723ZM4.73172 9.57762L195.727 -129.048L195.677 -129.115L195.628 -129.183L4.73172 9.57762ZM13.3107 9.5184L201.374 152.095L203.785 148.915L206.088 145.654L13.3107 9.5184ZM9 16.273L-190.02 143.108L9.00135 455.397L208.021 143.107L9 16.273ZM6.35344 14.3007L205.374 -112.533L125.222 -238.303L-22.7767 -219.895L6.35344 14.3007ZM8.50586 17.6782L207.534 -109.144L207.53 -109.15L207.526 -109.156L8.50586 17.6782ZM9.49406 17.6782L-189.528 -109.154L-189.535 -109.143L-189.542 -109.132L9.49406 17.6782ZM11.6464 14.3007L40.776 -219.895L-107.224 -238.303L-187.375 -112.531L11.6464 14.3007ZM211.36 140.047C212.53 138.211 212.86 137.693 213.034 137.42C213.07 137.363 212.968 137.523 212.818 137.757C212.741 137.877 212.563 138.155 212.331 138.513C212.139 138.81 211.646 139.57 211.004 140.539C210.665 141.052 210.174 141.789 209.575 142.673C208.977 143.554 208.148 144.764 207.142 146.191C206.096 147.675 204.88 149.364 203.505 151.211C202.094 153.104 200.902 154.644 200.091 155.681C199.755 156.11 199.481 156.457 199.48 156.458C199.406 156.552 199.623 156.277 199.852 155.986C200.455 155.218 201.335 154.088 202.38 152.709C204.441 149.987 206.088 147.69 207.204 146.104L-178.683 -125.696C-177.574 -127.27 -175.932 -129.561 -173.874 -132.277C-172.831 -133.654 -171.954 -134.781 -171.352 -135.548C-171.124 -135.838 -170.907 -136.112 -170.982 -136.017C-170.984 -136.015 -171.258 -135.668 -171.595 -135.237C-172.408 -134.199 -173.601 -132.657 -175.013 -130.762C-176.39 -128.913 -177.608 -127.222 -178.656 -125.735C-180.55 -123.048 -181.976 -120.903 -182.536 -120.056C-183.186 -119.074 -183.69 -118.297 -183.898 -117.976C-184.145 -117.595 -184.342 -117.287 -184.444 -117.128C-184.644 -116.817 -184.817 -116.546 -184.884 -116.441C-185.123 -116.065 -185.724 -115.123 -186.683 -113.618L211.36 140.047ZM206.783 146.7C235.867 105.678 251.445 56.688 251.445 6.48438H-220.555C-220.555 -41.0379 -205.796 -87.4557 -178.262 -126.291L206.783 146.7ZM251.445 6.48438C251.445 -125.441 144.86 -236 9 -236V236C-119.74 236 -220.555 131.299 -220.555 6.48438H251.445ZM9 -236C-126.437 -236 -233.445 -125.861 -233.445 6.48438H238.555C238.555 131.708 137.34 236 9 236V-236ZM-233.445 6.48438C-233.445 56.9153 -217.695 106.699 -187.524 148.46L195.07 -127.957C223.641 -88.4109 238.555 -41.2668 238.555 6.48438H-233.445ZM-195.248 137.085L-193.36 140.048L204.682 -113.619L202.794 -116.582L-195.248 137.085ZM-30.1848 -220.048C-41.24 -218.349 -67.9996 -213.649 -98.6024 -199.197C-110.335 -193.656 -235.789 -134.866 -235.789 16.4844H236.211C236.211 89.0106 203.691 143.695 173.153 176.351C145.623 205.791 117.168 220.892 102.96 227.601C74.578 241.005 50.5435 245.087 41.5068 246.476L-30.1848 -220.048ZM-235.789 16.4844C-235.789 73.5034 -215.212 130.099 -175.553 174.661C-140.221 214.362 -100.334 232.801 -76.372 241.359L82.3769 -203.144C104.032 -195.41 142.523 -177.911 177.036 -139.13C215.876 -95.4883 236.211 -39.7926 236.211 16.4844H-235.789ZM-76.3716 241.359C-42.6139 253.415 -12.1756 256 9 256V-216C18.6629 -216 29.2108 -215.339 40.4857 -213.661C51.3607 -212.044 65.8478 -209.047 82.3764 -203.144L-76.3716 241.359ZM9 256C29.0428 256 59.4059 253.679 93.3922 241.706C109.653 235.977 141.66 222.919 173.64 194.544C208.498 163.616 253.789 103.455 253.789 16.4844H-218.211C-218.211 -69.3238 -173.491 -128.463 -139.622 -158.515C-108.631 -186.013 -78.0296 -198.337 -63.4383 -203.477C-32.7916 -214.274 -6.82307 -216 9 -216V256ZM253.789 16.4844C253.789 -134.764 128.502 -193.576 116.622 -199.188C85.9892 -213.658 59.2039 -218.354 48.1885 -220.047L-23.5107 246.475C-32.5034 245.093 -56.5637 241.015 -84.9771 227.593C-99.2053 220.872 -127.68 205.753 -155.217 176.282C-185.771 143.582 -218.211 88.9158 -218.211 16.4844H253.789ZM203.57 -117.544C201.028 -121.519 198.408 -125.353 195.727 -129.048L-186.263 148.203C-188.931 144.527 -191.537 140.713 -194.066 136.758L203.57 -117.544ZM195.628 -129.183C224.861 -88.9669 239.727 -41.2775 239.727 6.48438H-232.273C-232.273 56.4291 -216.729 106.29 -186.165 148.338L195.628 -129.183ZM239.727 6.48438C239.727 132.102 138.209 237.172 9 237.172V-234.828C-126.037 -234.828 -232.273 -124.994 -232.273 6.48438H239.727ZM9 237.172C-120.07 237.172 -221.727 132.25 -221.727 6.48438H250.273C250.273 -125.14 143.885 -234.828 9 -234.828V237.172ZM-221.727 6.48438C-221.727 -41.123 -206.991 -87.6413 -179.466 -126.618L206.088 145.654C234.872 104.894 250.273 56.2782 250.273 6.48438H-221.727ZM-174.753 -133.059C-173.358 -134.898 -171.935 -136.719 -170.485 -138.519C-169.253 -140.048 -168.035 -141.511 -168.492 -140.96C-168.794 -140.595 -170.313 -138.763 -172.188 -136.38C-174.13 -133.911 -175.883 -131.581 -177.45 -129.431C-180.191 -125.668 -182.218 -122.644 -182.899 -121.627C-183.741 -120.366 -184.392 -119.367 -184.637 -118.989C-185.154 -118.194 -185.584 -117.52 -185.663 -117.397C-185.828 -117.14 -185.996 -116.877 -186.136 -116.657C-186.663 -115.83 -187.814 -114.022 -190.021 -110.561L208.021 143.107C210.363 139.431 211.339 137.899 211.816 137.151C211.927 136.977 211.94 136.957 211.906 137.009C211.887 137.039 211.818 137.148 211.718 137.302C211.634 137.433 211.422 137.762 211.143 138.192C210.923 138.53 210.291 139.502 209.462 140.742C209.022 141.4 208.354 142.391 207.527 143.59C206.702 144.786 205.512 146.487 204.041 148.505C202.478 150.652 200.727 152.978 198.788 155.444C196.915 157.825 195.398 159.654 195.097 160.016C194.643 160.565 195.863 159.1 197.098 157.567C198.55 155.764 199.976 153.94 201.374 152.095L-174.753 -133.059ZM208.02 -110.562L203.772 -117.228L-194.268 136.442L-190.02 143.108L208.02 -110.562ZM9 -217.172C27.9331 -217.172 52.9707 -214.629 81.0466 -204.856C93.8567 -200.397 117.849 -190.83 143.718 -171.387C156.777 -161.572 176.978 -144.278 195.501 -117.547C214.153 -90.6301 237.383 -44.6138 237.383 16.4844H-234.617C-234.617 133.824 -153.778 195.468 -139.868 205.923C-113.291 225.898 -88.2589 235.989 -74.1207 240.91C-43.3884 251.608 -14.5422 254.828 9 254.828V-217.172ZM237.383 16.4844C237.383 105.55 189.205 161.733 170.282 181.055C146.727 205.105 123.087 218.866 108.603 226.149C78.5048 241.283 51.7677 246.471 35.4836 248.496L-22.7767 -219.895C-42.4859 -217.443 -71.7083 -211.496 -103.436 -195.543C-118.734 -187.85 -142.975 -173.665 -166.927 -149.209C-186.247 -129.483 -234.617 -72.914 -234.617 16.4844H237.383ZM-192.667 141.135L-190.515 144.512L207.526 -109.156L205.374 -112.533L-192.667 141.135ZM-190.522 144.5C-147.07 212.692 -71.8177 253.949 8.99996 253.949V-218.051C89.4173 -218.051 164.297 -176.998 207.534 -109.144L-190.522 144.5ZM8.99996 253.949C89.8186 253.949 165.077 212.69 208.53 144.488L-189.542 -109.132C-146.304 -176.996 -71.4182 -218.051 8.99996 -218.051V253.949ZM208.516 144.51L210.668 141.133L-187.375 -112.531L-189.528 -109.154L208.516 144.51ZM-17.4831 248.496C-33.7667 246.471 -60.5033 241.283 -90.6012 226.15C-105.085 218.867 -128.725 205.107 -152.28 181.057C-171.203 161.736 -219.383 105.553 -219.383 16.4844H252.617C252.617 -72.9163 204.244 -129.486 184.924 -149.211C160.972 -173.666 136.732 -187.851 121.434 -195.544C89.7066 -211.496 60.4847 -217.443 40.776 -219.895L-17.4831 248.496ZM-219.383 16.4844C-219.383 -44.5139 -196.226 -90.4392 -177.701 -117.26C-159.273 -143.938 -139.165 -161.236 -126.123 -171.083C-100.281 -190.593 -76.2789 -200.227 -63.3705 -204.742C-35.1204 -214.623 -9.94625 -217.172 9 -217.172V254.828C32.5825 254.828 61.5652 251.598 92.4649 240.79C106.698 235.812 131.735 225.653 158.281 205.611C172.178 195.119 252.617 133.498 252.617 16.4844H-219.383Z" fill="#B9B9B9" mask="url(#path-1-inside-1_2903_7985)"/>
</svg>
