<svg width="25" height="24" viewBox="0 0 25 24" fill="none" xmlns="http://www.w3.org/2000/svg">
<path d="M23.6418 4.98375L19.5168 0.85875C19.4453 0.789677 19.35 0.75074 19.2505 0.75H9.87555C9.57745 0.75089 9.29182 0.869703 9.08104 1.08049C8.87025 1.29127 8.75144 1.57691 8.75055 1.875V4.14375C6.73062 4.23843 4.82477 5.10748 3.42877 6.57044C2.03278 8.03341 1.25391 9.97786 1.25391 12C1.25391 14.0221 2.03278 15.9666 3.42877 17.4296C4.82477 18.8925 6.73062 19.7616 8.75055 19.8563V22.125C8.75144 22.4231 8.87025 22.7087 9.08104 22.9195C9.29182 23.1303 9.57745 23.2491 9.87555 23.25H22.6255C22.9236 23.2491 23.2093 23.1303 23.4201 22.9195C23.6308 22.7087 23.7497 22.4231 23.7505 22.125V5.25C23.7498 5.15058 23.7109 5.05526 23.6418 4.98375ZM19.6255 2.02875L22.4718 4.875H20.0005C19.9011 4.875 19.8057 4.83549 19.7354 4.76516C19.6651 4.69484 19.6255 4.59946 19.6255 4.5V2.02875ZM2.00055 12C2.00299 10.1761 2.70395 8.42243 3.95937 7.09936C5.21478 5.77629 6.92929 4.98433 8.75055 4.88625V11.8463L3.83805 16.7587C2.65549 15.4559 2.00043 13.7595 2.00055 12ZM4.3668 17.2875L9.2793 12.375H16.2393C16.171 13.7187 15.7229 15.0155 14.947 16.1147C14.1712 17.2139 13.0994 18.0704 11.8562 18.5848C10.613 19.0992 9.24931 19.2504 7.92361 19.0208C6.59791 18.7911 5.36456 18.1901 4.3668 17.2875ZM23.0005 22.125C23.0005 22.2245 22.961 22.3198 22.8907 22.3902C22.8204 22.4605 22.725 22.5 22.6255 22.5H9.87555C9.77609 22.5 9.68071 22.4605 9.61038 22.3902C9.54006 22.3198 9.50055 22.2245 9.50055 22.125V19.8563C11.5198 19.7587 13.4243 18.8889 14.8202 17.4266C16.2162 15.9644 16.9967 14.0216 17.0005 12C17.0005 11.9005 16.961 11.8052 16.8907 11.7348C16.8204 11.6645 16.725 11.625 16.6255 11.625H9.50055V1.875C9.50055 1.77554 9.54006 1.68016 9.61038 1.60984C9.68071 1.53951 9.77609 1.5 9.87555 1.5H18.8755V4.5C18.8764 4.79809 18.9953 5.08373 19.206 5.29451C19.4168 5.5053 19.7025 5.62411 20.0005 5.625H23.0005V22.125Z" fill="#1845CC"/>
<path d="M10.626 2.625C10.5265 2.625 10.4311 2.66451 10.3608 2.73484C10.2905 2.80516 10.251 2.90054 10.251 3V10.5C10.251 10.5995 10.2905 10.6948 10.3608 10.7652C10.4311 10.8355 10.5265 10.875 10.626 10.875H18.126C18.2254 10.875 18.3208 10.8355 18.3911 10.7652C18.4615 10.6948 18.501 10.5995 18.501 10.5C18.4987 8.41212 17.6683 6.41041 16.1919 4.93406C14.7156 3.4577 12.7139 2.62728 10.626 2.625ZM11.001 10.125V3.38625C12.7576 3.48057 14.4174 4.22082 15.6613 5.46472C16.9052 6.70862 17.6454 8.36839 17.7397 10.125H11.001Z" fill="#1845CC"/>
<path d="M18.876 15C18.2085 15 17.5559 15.1979 17.0009 15.5688C16.4459 15.9396 16.0133 16.4667 15.7579 17.0834C15.5024 17.7001 15.4356 18.3787 15.5658 19.0334C15.6961 19.6881 16.0175 20.2895 16.4895 20.7615C16.9615 21.2335 17.5629 21.5549 18.2175 21.6852C18.8722 21.8154 19.5508 21.7485 20.1675 21.4931C20.7842 21.2376 21.3113 20.8051 21.6822 20.2501C22.053 19.695 22.251 19.0425 22.251 18.375C22.2496 17.4803 21.8936 16.6227 21.2609 15.99C20.6283 15.3574 19.7707 15.0014 18.876 15ZM18.876 21C18.3568 21 17.8493 20.846 17.4176 20.5576C16.9859 20.2692 16.6495 19.8592 16.4508 19.3795C16.2521 18.8999 16.2001 18.3721 16.3014 17.8629C16.4027 17.3537 16.6527 16.886 17.0198 16.5188C17.3869 16.1517 17.8547 15.9017 18.3639 15.8004C18.8731 15.6992 19.4009 15.7511 19.8805 15.9498C20.3602 16.1485 20.7701 16.4849 21.0586 16.9166C21.347 17.3483 21.501 17.8558 21.501 18.375C21.5002 19.0709 21.2234 19.7382 20.7313 20.2303C20.2391 20.7224 19.5719 20.9992 18.876 21Z" fill="#1845CC"/>
<path d="M18.1255 18.9697L17.2656 18.1099L16.7354 18.6401L17.8604 19.7651C17.9307 19.8354 18.026 19.8749 18.1255 19.8749C18.2249 19.8749 18.3203 19.8354 18.3906 19.7651L20.6406 17.5151L20.1104 16.9849L18.1255 18.9697Z" fill="#1845CC"/>
<path d="M19.251 7.125H22.251V7.875H19.251V7.125Z" fill="#1845CC"/>
<path d="M19.251 9.375H22.251V10.125H19.251V9.375Z" fill="#1845CC"/>
<path d="M19.251 11.625H22.251V12.375H19.251V11.625Z" fill="#1845CC"/>
</svg>
