<svg width="12" height="12" viewBox="0 0 12 12" fill="none" xmlns="http://www.w3.org/2000/svg">
<path d="M4.5 1.125C4.5 1.33209 4.33209 1.5 4.125 1.5H2.625C2.00464 1.5 1.5 2.00464 1.5 2.625V4.125C1.5 4.33209 1.33209 4.5 1.125 4.5C0.917908 4.5 0.75 4.33209 0.75 4.125V2.625C0.75 1.59119 1.59119 0.75 2.625 0.75H4.125C4.33209 0.75 4.5 0.917908 4.5 1.125ZM9.375 0.75H7.875C7.66772 0.75 7.5 0.917908 7.5 1.125C7.5 1.33209 7.66772 1.5 7.875 1.5H9.375C9.99536 1.5 10.5 2.00464 10.5 2.625V4.125C10.5 4.33209 10.6677 4.5 10.875 4.5C11.0823 4.5 11.25 4.33209 11.25 4.125V2.625C11.25 1.59119 10.4088 0.75 9.375 0.75ZM4.125 10.5H2.625C2.00464 10.5 1.5 9.99536 1.5 9.375V7.875C1.5 7.66772 1.33209 7.5 1.125 7.5C0.917908 7.5 0.75 7.66772 0.75 7.875V9.375C0.75 10.4088 1.59119 11.25 2.625 11.25H4.125C4.33209 11.25 4.5 11.0823 4.5 10.875C4.5 10.6677 4.33209 10.5 4.125 10.5ZM10.875 7.5C10.6677 7.5 10.5 7.66772 10.5 7.875V9.375C10.5 9.99536 9.99536 10.5 9.375 10.5H7.875C7.66772 10.5 7.5 10.6677 7.5 10.875C7.5 11.0823 7.66772 11.25 7.875 11.25H9.375C10.4088 11.25 11.25 10.4088 11.25 9.375V7.875C11.25 7.66772 11.0823 7.5 10.875 7.5Z" fill="white"/>
</svg>
