<svg width="25" height="24" viewBox="0 0 25 24" fill="none" xmlns="http://www.w3.org/2000/svg">
<mask id="mask0_1130_8399" style="mask-type:luminance" maskUnits="userSpaceOnUse" x="0" y="0" width="25" height="24">
<path d="M0.5 1.90735e-06H24.5V24H0.5V1.90735e-06Z" fill="white"/>
</mask>
<g mask="url(#mask0_1130_8399)">
<path d="M12.4984 8.31249C10.4619 8.31249 8.81091 9.96342 8.81091 12C8.81091 14.0365 10.4619 15.6875 12.4984 15.6875C14.535 15.6875 16.1859 14.0365 16.1859 12C16.1859 9.96342 14.535 8.31249 12.4984 8.31249ZM22.8485 9.36858L21.8501 10.1905C20.7113 11.128 20.7113 12.8719 21.8501 13.8095L22.8485 14.6314C23.2023 14.9227 23.2937 15.427 23.0646 15.8239L21.0931 19.2385C20.864 19.6354 20.3815 19.8085 19.9523 19.6477L18.7413 19.194C17.36 18.6765 15.8497 19.5485 15.6072 21.0035L15.3946 22.2791C15.3193 22.7311 14.9281 23.0625 14.4699 23.0625H10.527C10.0687 23.0625 9.67758 22.7311 9.60225 22.2791L9.38963 21.0035C9.14714 19.5485 7.63688 18.6765 6.25552 19.194L5.04455 19.6477C4.61536 19.8085 4.13288 19.6354 3.90371 19.2385L1.93229 15.8239C1.70316 15.427 1.79452 14.9227 2.14833 14.6314L3.14677 13.8095C4.2856 12.8719 4.2856 11.128 3.14677 10.1905L2.14833 9.36858C1.79452 9.0773 1.70316 8.57292 1.93229 8.17603L3.90371 4.76142C4.13288 4.36453 4.61536 4.19147 5.04455 4.35225L6.25552 4.80591C7.63688 5.32341 9.14714 4.45149 9.38963 2.99644L9.60225 1.72083C9.67758 1.26881 10.0687 0.937502 10.527 0.937502H14.4699C14.9281 0.937502 15.3193 1.26881 15.3946 1.72083L15.6072 2.99644C15.8497 4.45149 17.36 5.32341 18.7413 4.80591L19.9523 4.35225C20.3815 4.19147 20.864 4.36453 21.0931 4.76142L23.0646 8.17603C23.2937 8.57292 23.2023 9.0773 22.8485 9.36858Z" stroke="#1845CC" stroke-miterlimit="10" stroke-linecap="round" stroke-linejoin="round"/>
</g>
</svg>
