<svg width="25" height="24" viewBox="0 0 25 24" fill="none" xmlns="http://www.w3.org/2000/svg">
<mask id="mask0_1130_9115" style="mask-type:luminance" maskUnits="userSpaceOnUse" x="0" y="0" width="25" height="24">
<path d="M0.5 1.90735e-06H24.5V24H0.5V1.90735e-06Z" fill="white"/>
</mask>
<g mask="url(#mask0_1130_9115)">
<path d="M12.4994 8.31249C10.4629 8.31249 8.81189 9.96342 8.81189 12C8.81189 14.0365 10.4629 15.6875 12.4994 15.6875C14.5359 15.6875 16.1869 14.0365 16.1869 12C16.1869 9.96342 14.5359 8.31249 12.4994 8.31249ZM22.8495 9.36858L21.8511 10.1905C20.7122 11.128 20.7122 12.8719 21.8511 13.8095L22.8495 14.6314C23.2033 14.9227 23.2947 15.427 23.0655 15.8239L21.0941 19.2385C20.8649 19.6354 20.3825 19.8085 19.9533 19.6477L18.7423 19.194C17.3609 18.6765 15.8507 19.5485 15.6082 21.0035L15.3956 22.2791C15.3202 22.7311 14.9291 23.0625 14.4709 23.0625H10.5279C10.0697 23.0625 9.67856 22.7311 9.60323 22.2791L9.39061 21.0035C9.14812 19.5485 7.63786 18.6765 6.2565 19.194L5.04553 19.6477C4.61634 19.8085 4.13386 19.6354 3.90468 19.2385L1.93326 15.8239C1.70414 15.427 1.7955 14.9227 2.14931 14.6314L3.14775 13.8095C4.28657 12.8719 4.28657 11.128 3.14775 10.1905L2.14931 9.36858C1.7955 9.0773 1.70414 8.57292 1.93326 8.17603L3.90468 4.76142C4.13386 4.36453 4.61634 4.19147 5.04553 4.35225L6.2565 4.80591C7.63786 5.32341 9.14812 4.45149 9.39061 2.99644L9.60323 1.72083C9.67856 1.26881 10.0697 0.937502 10.5279 0.937502H14.4709C14.9291 0.937502 15.3202 1.26881 15.3956 1.72083L15.6082 2.99644C15.8507 4.45149 17.3609 5.32341 18.7423 4.80591L19.9533 4.35225C20.3825 4.19147 20.8649 4.36453 21.0941 4.76142L23.0655 8.17603C23.2947 8.57292 23.2033 9.0773 22.8495 9.36858Z" stroke="#68696D" stroke-miterlimit="10" stroke-linecap="round" stroke-linejoin="round"/>
</g>
</svg>
