<svg width="19" height="18" viewBox="0 0 19 18" fill="none" xmlns="http://www.w3.org/2000/svg">
<g clip-path="url(#clip0_666_38223)">
<path d="M6.13278 8.11914H1.86872C1.72531 8.11914 1.60901 8.23541 1.60901 8.37885V10.3179C1.60901 10.4613 1.72531 10.5777 1.86872 10.5777H6.13278C6.27623 10.5777 6.39253 10.4613 6.39253 10.3179V8.37885C6.39253 8.23541 6.27623 8.11914 6.13278 8.11914Z" fill="#0D1320"/>
<path d="M14.5113 8.84375H12.9735C12.912 8.84375 12.8622 8.8936 12.8622 8.95509V10.4929C12.8622 10.5543 12.912 10.6042 12.9735 10.6042H14.5113C14.5727 10.6042 14.6225 10.5543 14.6225 10.4929V8.95509C14.6225 8.8936 14.5727 8.84375 14.5113 8.84375Z" fill="#0D1320"/>
<path d="M12.0443 8.84375H10.5066C10.445 8.84375 10.3953 8.8936 10.3953 8.95509V10.4929C10.3953 10.5543 10.445 10.6042 10.5066 10.6042H12.0443C12.1059 10.6042 12.1557 10.5543 12.1557 10.4929V8.95509C12.1557 8.8936 12.1059 8.84375 12.0443 8.84375Z" fill="#0D1320"/>
<path d="M9.57752 8.84375H8.03981C7.97828 8.84375 7.92847 8.8936 7.92847 8.95509V10.4929C7.92847 10.5543 7.97828 10.6042 8.03981 10.6042H9.57752C9.63898 10.6042 9.68879 10.5543 9.68879 10.4929V8.95509C9.68883 8.8936 9.63898 8.84375 9.57752 8.84375Z" fill="#0D1320"/>
<path d="M12.0443 6.53711H10.5066C10.445 6.53711 10.3953 6.58696 10.3953 6.64842V8.1862C10.3953 8.24766 10.445 8.29751 10.5066 8.29751H12.0443C12.1059 8.29751 12.1557 8.24766 12.1557 8.1862V6.64842C12.1557 6.58696 12.1059 6.53711 12.0443 6.53711Z" fill="#0D1320"/>
<path d="M9.57752 6.53711H8.03981C7.97828 6.53711 7.92847 6.58696 7.92847 6.64842V8.1862C7.92847 8.24766 7.97828 8.29751 8.03981 8.29751H9.57752C9.63898 8.29751 9.68879 8.24766 9.68879 8.1862V6.64842C9.68883 6.58696 9.63898 6.53711 9.57752 6.53711Z" fill="#0D1320"/>
<path d="M4.69383 5.54004H3.30783C3.22588 5.54004 3.15942 5.60653 3.15942 5.68848V7.44639C3.15942 7.52834 3.22588 7.59483 3.30783 7.59483H4.69383C4.77582 7.59483 4.84224 7.52838 4.84224 7.44639V5.68848C4.84224 5.60653 4.77579 5.54004 4.69383 5.54004Z" fill="#0D1320"/>
<path d="M4.69383 4.33009H4.22344V2.71773C4.22344 2.59478 4.12375 2.49512 4.0008 2.49512C3.87781 2.49512 3.77815 2.59478 3.77815 2.71773V4.33009H3.30783C3.22588 4.33009 3.15942 4.39654 3.15942 4.47853V4.86792C3.15942 4.94984 3.22588 5.01633 3.30783 5.01633H4.69383C4.77582 5.01633 4.84224 4.94984 4.84224 4.86792V4.47853C4.84224 4.39654 4.77579 4.33009 4.69383 4.33009Z" fill="#0D1320"/>
<path d="M18.655 10.6912C18.6387 10.6618 18.6077 10.6436 18.574 10.6436H15.6157C15.5872 10.6436 15.5602 10.6567 15.5427 10.6792L15.1504 11.1811H0.759416C0.728559 11.1811 0.699795 11.1964 0.682493 11.222C0.665265 11.2476 0.661812 11.2801 0.673383 11.3087C0.673383 11.3087 1.92997 14.413 2.34959 15.4475C2.3638 15.4825 2.39782 15.5054 2.43558 15.5054H15.6724C15.7046 15.5054 15.7373 15.4943 15.7575 15.4615C16.4789 14.2909 18.6528 10.7852 18.6528 10.7852C18.6705 10.7566 18.6713 10.7206 18.655 10.6912ZM12.7458 13.0133C12.5447 13.0133 12.3816 12.8503 12.3816 12.6491C12.3816 12.4479 12.5447 12.2849 12.7458 12.2849C12.947 12.2849 13.1101 12.448 13.1101 12.6491C13.1101 12.8502 12.947 13.0133 12.7458 13.0133ZM14.5113 13.0133C14.3101 13.0133 14.1471 12.8503 14.1471 12.6491C14.1471 12.4479 14.3101 12.2849 14.5113 12.2849C14.7124 12.2849 14.8755 12.448 14.8755 12.6491C14.8755 12.8502 14.7124 13.0133 14.5113 13.0133Z" fill="#0D1320"/>
</g>
<defs>
<clipPath id="clip0_666_38223">
<rect width="18" height="18" fill="white" transform="translate(0.666626)"/>
</clipPath>
</defs>
</svg>
