<svg width="52" height="31" viewBox="0 0 52 31" fill="none" xmlns="http://www.w3.org/2000/svg">
<path d="M52 2.21429V0H36.8333V2.21429H43.3333V4.42857H41.1667V8.85714H34.0167L30.7645 3.1H21.3525L18.1025 8.85714H10.8333V4.42857H8.66667V2.21429H15.1667V0H0V2.21429H6.5V4.42857H4.33333V15.5H10.8333V13.2857H17.6952L18.1632 14.1139C15.3096 15.5921 12.912 17.8487 11.2358 20.6336C9.55974 23.4186 8.67052 26.6233 8.66667 29.8929C8.66667 30.1865 8.7808 30.4681 8.98397 30.6757C9.18713 30.8834 9.46268 31 9.75 31C10.0373 31 10.3129 30.8834 10.516 30.6757C10.7192 30.4681 10.8333 30.1865 10.8333 29.8929C10.8368 27.0119 11.6259 24.189 13.112 21.7409C14.5981 19.2928 16.7224 17.3165 19.2465 16.0336L21.3525 19.7603H30.7645L32.8445 16.0779C35.345 17.3703 37.4463 19.3453 38.9153 21.7838C40.3843 24.2224 41.1636 27.0292 41.1667 29.8929C41.1667 30.1865 41.2808 30.4681 41.484 30.6757C41.6871 30.8834 41.9627 31 42.25 31C42.5373 31 42.8129 30.8834 43.016 30.6757C43.2192 30.4681 43.3333 30.1865 43.3333 29.8929C43.3303 26.6407 42.4513 23.4522 40.7926 20.6767C39.1339 17.9012 36.7597 15.646 33.93 14.1581L34.4218 13.2857H41.1667V15.5H47.6667V4.42857H45.5V2.21429H52Z" fill="#0D1320"/>
</svg>
