<svg width="40" height="40" viewBox="0 0 40 40" fill="none" xmlns="http://www.w3.org/2000/svg">
<g clip-path="url(#clip0_496_20061)">
<path d="M38.8281 16.4844H1.17188C0.524141 16.4844 0 17.0085 0 17.6562C0 18.304 0.524141 18.8281 1.17188 18.8281H2.34375V22.3438C2.34375 22.9915 2.86789 23.5156 3.51562 23.5156C4.16336 23.5156 4.6875 22.9915 4.6875 22.3438V18.8281H35.3125V22.3438C35.3125 22.9915 35.8366 23.5156 36.4844 23.5156C37.1321 23.5156 37.6562 22.9915 37.6562 22.3438V18.8281H38.8281C39.4759 18.8281 40 18.304 40 17.6562C40 17.0085 39.4759 16.4844 38.8281 16.4844Z" fill="black"/>
<path d="M27.1094 0H22.3437C21.696 0 21.1719 0.524141 21.1719 1.17188V14.1406H30.7183L28.2606 0.955547C28.1577 0.401719 27.6736 0 27.1094 0Z" fill="black"/>
<path d="M35.0424 39.5766C35.2655 39.3087 35.3571 38.9552 35.2919 38.6118L32.0366 21.1719H21.1719V38.8281C21.1719 39.4759 21.696 40 22.3438 40H34.1406C34.4897 40 34.8193 39.8444 35.0424 39.5766Z" fill="black"/>
<path d="M17.6562 40C18.3039 40 18.8281 39.4759 18.8281 38.8281V21.1719H7.96348L4.70809 38.6118C4.64285 38.9552 4.73442 39.3087 4.95754 39.5766C5.18067 39.8444 5.51028 40 5.85934 40H17.6562Z" fill="black"/>
<path d="M12.8906 0C12.3264 0 11.8423 0.401719 11.7394 0.955547L9.28186 14.1406H18.8281V1.17188C18.8281 0.524141 18.304 0 17.6562 0H12.8906Z" fill="black"/>
</g>
<defs>
<clipPath id="clip0_496_20061">
<rect width="40" height="40" fill="white"/>
</clipPath>
</defs>
</svg>
