<svg width="19" height="18" viewBox="0 0 19 18" fill="none" xmlns="http://www.w3.org/2000/svg">
<path d="M3.75265 15.5254C3.72025 15.5254 3.68785 15.5254 3.65545 15.5254L1.65205 17.5234C1.64567 17.5292 1.64125 17.5368 1.6394 17.5452C1.63755 17.5536 1.63836 17.5624 1.64173 17.5703C1.64509 17.5782 1.65084 17.5849 1.65818 17.5894C1.66551 17.5939 1.67406 17.596 1.68265 17.5954H3.52225C3.71592 17.5947 3.90153 17.5178 4.03885 17.3812L5.90005 15.5254H3.75265Z" fill="#0D1320"/>
<path d="M5.99901 15.9297L4.73901 17.1897H14.261L13.001 15.9297H5.99901Z" fill="#0D1320"/>
<path d="M17.348 17.5229L15.3446 15.5195C15.3122 15.5195 15.2798 15.5195 15.2474 15.5195H13.1L14.9612 17.3807C15.0985 17.5173 15.2841 17.5943 15.4778 17.5949H17.3174C17.326 17.5955 17.3345 17.5934 17.3418 17.5889C17.3492 17.5844 17.3549 17.5777 17.3583 17.5698C17.3617 17.5619 17.3625 17.5531 17.3606 17.5447C17.3588 17.5363 17.3544 17.5287 17.348 17.5229Z" fill="#0D1320"/>
<path d="M3.75263 15.1653H15.2474C15.5372 15.1653 15.8151 15.0502 16.02 14.8453C16.2249 14.6404 16.34 14.3625 16.34 14.0727V2.64087C16.34 2.04796 16.1045 1.47932 15.6852 1.06007C15.266 0.640809 14.6974 0.405273 14.1044 0.405273H4.89563C4.30272 0.405273 3.73408 0.640809 3.31483 1.06007C2.89557 1.47932 2.66003 2.04796 2.66003 2.64087V14.0727C2.66003 14.3625 2.77515 14.6404 2.98005 14.8453C3.18495 15.0502 3.46286 15.1653 3.75263 15.1653ZM5.18003 14.1753C4.96643 14.1753 4.75762 14.1119 4.58002 13.9933C4.40241 13.8746 4.26399 13.7059 4.18224 13.5086C4.1005 13.3112 4.07911 13.0941 4.12079 12.8846C4.16246 12.6751 4.26532 12.4826 4.41636 12.3316C4.5674 12.1806 4.75984 12.0777 4.96934 12.036C5.17884 11.9944 5.39599 12.0157 5.59333 12.0975C5.79068 12.1792 5.95935 12.3177 6.07802 12.4953C6.19669 12.6729 6.26003 12.8817 6.26003 13.0953C6.26003 13.3817 6.14625 13.6564 5.94371 13.8589C5.74117 14.0615 5.46647 14.1753 5.18003 14.1753ZM13.82 14.1753C13.6064 14.1753 13.3976 14.1119 13.22 13.9933C13.0424 13.8746 12.904 13.7059 12.8222 13.5086C12.7405 13.3112 12.7191 13.0941 12.7608 12.8846C12.8025 12.6751 12.9053 12.4826 13.0564 12.3316C13.2074 12.1806 13.3998 12.0777 13.6093 12.036C13.8188 11.9944 14.036 12.0157 14.2333 12.0975C14.4307 12.1792 14.5993 12.3177 14.718 12.4953C14.8367 12.6729 14.9 12.8817 14.9 13.0953C14.9 13.3817 14.7862 13.6564 14.5837 13.8589C14.3812 14.0615 14.1065 14.1753 13.82 14.1753ZM3.38003 3.79647C3.38003 3.72057 3.41019 3.64777 3.46386 3.5941C3.51753 3.54043 3.59033 3.51027 3.66623 3.51027H15.3338C15.4097 3.51027 15.4825 3.54043 15.5362 3.5941C15.5899 3.64777 15.62 3.72057 15.62 3.79647V10.6941C15.62 10.77 15.5899 10.8428 15.5362 10.8964C15.4825 10.9501 15.4097 10.9803 15.3338 10.9803H3.66623C3.59033 10.9803 3.51753 10.9501 3.46386 10.8964C3.41019 10.8428 3.38003 10.77 3.38003 10.6941V3.79647Z" fill="#0D1320"/>
</svg>
