<svg width="14" height="13" viewBox="0 0 14 13" fill="none" xmlns="http://www.w3.org/2000/svg">
<path d="M8.4484 2.63105C9.09572 3.03692 9.54963 3.72373 9.63227 4.52096C9.89627 4.6443 10.1893 4.71524 10.4999 4.71524C11.634 4.71524 12.5532 3.79606 12.5532 2.66215C12.5532 1.52807 11.634 0.608887 10.4999 0.608887C9.37666 0.609236 8.46552 1.51199 8.4484 2.63105ZM7.10326 6.83507C8.23734 6.83507 9.15652 5.91571 9.15652 4.78181C9.15652 3.6479 8.23716 2.72872 7.10326 2.72872C5.96935 2.72872 5.04964 3.64807 5.04964 4.78198C5.04964 5.91589 5.96935 6.83507 7.10326 6.83507ZM7.97422 6.97502H6.23195C4.78233 6.97502 3.603 8.15453 3.603 9.60415V11.7348L3.60841 11.7682L3.75517 11.8141C5.13857 12.2464 6.34045 12.3905 7.32969 12.3905C9.26187 12.3905 10.3818 11.8396 10.4508 11.8045L10.588 11.7352H10.6026V9.60415C10.6032 8.15453 9.42384 6.97502 7.97422 6.97502ZM11.3712 4.85536H9.64241C9.62371 5.54706 9.32844 6.16993 8.86143 6.6179C10.15 7.00105 11.0927 8.19593 11.0927 9.60729V10.2639C12.7997 10.2013 13.7834 9.71754 13.8482 9.68504L13.9853 9.6155H14V7.48414C14 6.0347 12.8207 4.85536 11.3712 4.85536ZM3.50044 4.71559C3.90211 4.71559 4.27583 4.59835 4.59241 4.39865C4.69305 3.74225 5.04493 3.16865 5.54759 2.77799C5.54968 2.73955 5.55335 2.70146 5.55335 2.66267C5.55335 1.52859 4.63399 0.609411 3.50044 0.609411C2.36618 0.609411 1.44717 1.52859 1.44717 2.66267C1.44717 3.79623 2.36618 4.71559 3.50044 4.71559ZM5.34439 6.6179C4.87965 6.1722 4.58542 5.55265 4.56393 4.86515C4.49981 4.86043 4.43639 4.85536 4.37105 4.85536H2.62895C1.17933 4.85536 0 6.0347 0 7.48414V9.61515L0.0054162 9.648L0.152178 9.6943C1.26197 10.0408 2.25244 10.2005 3.11274 10.2508V9.60729C3.11309 8.19593 4.05551 7.0014 5.34439 6.6179Z" fill="#353535"/>
</svg>
