<svg width="17" height="11" viewBox="0 0 17 11" fill="none" xmlns="http://www.w3.org/2000/svg">
<path d="M11.333 4.40332C12.5088 4.40332 13.4509 3.45415 13.4509 2.27832C13.4509 1.10249 12.5088 0.15332 11.333 0.15332C10.1572 0.15332 9.20801 1.10249 9.20801 2.27832C9.20801 3.45415 10.1572 4.40332 11.333 4.40332ZM5.66634 4.40332C6.84217 4.40332 7.78426 3.45415 7.78426 2.27832C7.78426 1.10249 6.84217 0.15332 5.66634 0.15332C4.49051 0.15332 3.54134 1.10249 3.54134 2.27832C3.54134 3.45415 4.49051 4.40332 5.66634 4.40332ZM5.66634 5.81999C4.01592 5.81999 0.708008 6.64874 0.708008 8.29915V10.07H10.6247V8.29915C10.6247 6.64874 7.31676 5.81999 5.66634 5.81999ZM11.333 5.81999C11.1276 5.81999 10.8938 5.83415 10.6459 5.8554C11.4676 6.4504 12.0413 7.25082 12.0413 8.29915V10.07H16.2913V8.29915C16.2913 6.64874 12.9834 5.81999 11.333 5.81999Z" fill="black"/>
</svg>
