<svg width="30" height="30" viewBox="0 0 30 30" fill="none" xmlns="http://www.w3.org/2000/svg">
<g clip-path="url(#clip0_279_20589)">
<path d="M11.0531 4.69805C11.0531 4.82445 10.9506 4.92695 10.8242 4.92695C10.6978 4.92695 10.5953 4.82445 10.5953 4.69805V2.92822C10.5953 2.80182 10.6978 2.69932 10.8242 2.69932C10.9506 2.69932 11.0531 2.80182 11.0531 2.92822V4.69805Z" fill="white" stroke="white" stroke-width="1.3"/>
<path d="M2.85123 8.79439L1.31848 7.90945C0.898071 7.66664 0.360532 7.81078 0.117895 8.23113C-0.1248 8.65154 0.0192232 9.18908 0.439575 9.43172L1.97233 10.3167C2.39174 10.5589 2.92969 10.4163 3.17291 9.99498C3.41561 9.57457 3.27159 9.03703 2.85123 8.79439Z" fill="white"/>
<path d="M1.97233 18.5086L0.439575 19.3935C0.0192232 19.6362 -0.1248 20.1737 0.117895 20.5941C0.361821 21.0165 0.900122 21.1574 1.31848 20.9158L2.85123 20.0308C3.27159 19.7881 3.41561 19.2506 3.17291 18.8302C2.93022 18.4099 2.3928 18.2657 1.97233 18.5086Z" fill="white"/>
<path d="M19.6779 10.3167L21.2106 9.43172C21.631 9.18902 21.775 8.65154 21.5323 8.23113C21.2896 7.81078 20.7522 7.66664 20.3317 7.90945L18.7989 8.79439C18.3786 9.03709 18.2346 9.57457 18.4773 9.99498C18.7212 10.4174 19.2595 10.5583 19.6779 10.3167Z" fill="white"/>
<path d="M23.3728 15.6604C22.3667 13.1741 19.9262 11.5302 17.2413 11.5418C16.1411 9.09205 13.679 7.38135 10.8242 7.38135C6.94713 7.38135 3.79297 10.5356 3.79297 14.4126C3.79297 16.9 5.09188 19.0889 7.04639 20.3392C4.96238 23.6314 7.33191 27.9478 11.2306 27.9478C25.0594 27.9333 24.3027 27.9831 24.5435 27.9084C27.6154 27.5619 29.9994 24.9565 29.9994 21.7955C29.9994 18.1857 26.9149 15.3829 23.3728 15.6604ZM5.55078 14.4127C5.55078 11.5049 7.91645 9.13922 10.8242 9.13922C12.7851 9.13922 14.4983 10.2156 15.4069 11.808C12.6296 12.6218 10.7012 15.1573 10.6703 18.0664C9.79725 18.1622 8.97406 18.4884 8.26508 19.0215C6.6476 18.1198 5.55078 16.3922 5.55078 14.4127ZM24.2111 26.1749C23.898 26.2003 15.9222 26.1855 11.2306 26.19C8.33246 26.19 6.92018 22.5976 9.07648 20.6285C9.72371 20.0375 10.5856 19.723 11.5247 19.8084C12.0912 19.8595 12.5529 19.3694 12.4747 18.8112C12.0672 15.9031 14.3192 13.2994 17.2612 13.2994C19.4376 13.2994 21.3558 14.7643 21.9259 16.8619C22.0478 17.3101 22.4974 17.5859 22.952 17.4921C25.6914 16.9256 28.2416 19.0197 28.2416 21.7955C28.2416 24.0663 26.4712 25.99 24.2111 26.1749Z" fill="white"/>
</g>
<defs>
<clipPath id="clip0_279_20589">
<rect width="30" height="30" fill="white"/>
</clipPath>
</defs>
</svg>
