<svg width="21" height="21" viewBox="0 0 21 21" fill="none" xmlns="http://www.w3.org/2000/svg">
<g clip-path="url(#clip0_693_15581)">
<path d="M17.5495 18.874L9.68326 14.709C9.47826 14.6003 9.22826 14.6153 9.03451 14.7465L3.01951 18.9115C2.79451 19.0678 2.69701 19.3515 2.77951 19.6128C2.85951 19.8715 3.10201 20.0503 3.37451 20.0503H17.2558C17.542 20.0503 17.7933 19.8553 17.862 19.5753C17.932 19.2965 17.802 19.0078 17.5495 18.874Z" fill="black"/>
<path d="M20.1821 17.6873L18.3321 9.35853C18.2871 9.15478 18.1433 8.98853 17.9496 8.91228C17.7546 8.83603 17.5358 8.86228 17.3658 8.97978L11.3496 13.1448C11.1696 13.2698 11.0683 13.4785 11.0821 13.6948C11.0946 13.9135 11.2208 14.1085 11.4133 14.2098L19.2783 18.3748C19.3708 18.4235 19.4708 18.4485 19.5708 18.4485C19.7046 18.4485 19.8383 18.406 19.9496 18.3198C20.1433 18.1723 20.2346 17.926 20.1821 17.6873Z" fill="black"/>
<path d="M15.8295 7.98953C15.747 7.72828 15.5057 7.55078 15.232 7.55078H9.52696C8.48946 9.42953 6.95445 11.2258 6.3232 11.9283C5.9682 12.3233 5.45946 12.5508 4.92821 12.5508C4.39696 12.5508 3.8882 12.3233 3.5332 11.9283C3.28945 11.657 2.91196 11.2233 2.47946 10.6858L0.966955 17.4933C0.911955 17.7445 1.01571 18.0033 1.22821 18.147C1.33321 18.2183 1.45571 18.2533 1.57696 18.2533C1.70196 18.2533 1.82571 18.217 1.93321 18.142L15.587 8.68828C15.8132 8.53453 15.9095 8.25078 15.8295 7.98953Z" fill="black"/>
<path d="M4.92822 0.0507812C2.51572 0.0507812 0.553223 2.01328 0.553223 4.42578C0.553223 6.67078 4.06322 10.647 4.46322 11.0933C4.58197 11.2245 4.75072 11.3008 4.92822 11.3008C5.10572 11.3008 5.27447 11.2245 5.39322 11.0933C5.79322 10.647 9.30322 6.67078 9.30322 4.42578C9.30322 2.01328 7.34072 0.0507812 4.92822 0.0507812ZM4.92822 6.30078C3.89322 6.30078 3.05322 5.46078 3.05322 4.42578C3.05322 3.39078 3.89322 2.55078 4.92822 2.55078C5.96322 2.55078 6.80322 3.39078 6.80322 4.42578C6.80322 5.46078 5.96322 6.30078 4.92822 6.30078Z" fill="black"/>
</g>
<defs>
<clipPath id="clip0_693_15581">
<rect width="20" height="20" fill="white" transform="translate(0.375 0.0507812)"/>
</clipPath>
</defs>
</svg>
